<mxfile host="app.diagrams.net" modified="2021-06-05T15:26:44.171Z" agent="5.0 (Windows NT 10.0; Win64; x64) AppleWebKit/537.36 (KHTML, like Gecko) Chrome/91.0.4472.77 Safari/537.36" etag="JsrVTqNFKTV2eAU_x94P" version="14.7.6" type="github" pages="4">
  <diagram id="4v4Gl8N1S-kkFyW56kZ1" name="Page-1">
    <mxGraphModel dx="2889" dy="1122" grid="0" gridSize="10" guides="1" tooltips="1" connect="1" arrows="1" fold="1" page="1" pageScale="1" pageWidth="827" pageHeight="1169" background="none" math="0" shadow="0">
      <root>
        <mxCell id="0" />
        <mxCell id="1" parent="0" />
        <mxCell id="nhhz1PPNxXzfXSCWjOdO-1" value="#1 Турникет (Тр)" style="swimlane;fontStyle=0;childLayout=stackLayout;horizontal=1;startSize=26;fillColor=none;horizontalStack=0;resizeParent=1;resizeParentMax=0;resizeLast=0;collapsible=1;marginBottom=0;" parent="1" vertex="1">
          <mxGeometry x="-358" y="473" width="140" height="130" as="geometry" />
        </mxCell>
        <mxCell id="nhhz1PPNxXzfXSCWjOdO-2" value="id турникета" style="text;strokeColor=none;fillColor=none;align=left;verticalAlign=top;spacingLeft=4;spacingRight=4;overflow=hidden;rotatable=0;points=[[0,0.5],[1,0.5]];portConstraint=eastwest;" parent="nhhz1PPNxXzfXSCWjOdO-1" vertex="1">
          <mxGeometry y="26" width="140" height="26" as="geometry" />
        </mxCell>
        <mxCell id="nhhz1PPNxXzfXSCWjOdO-3" value="id валидатора (R12)&#xa;" style="text;strokeColor=none;fillColor=none;align=left;verticalAlign=top;spacingLeft=4;spacingRight=4;overflow=hidden;rotatable=0;points=[[0,0.5],[1,0.5]];portConstraint=eastwest;" parent="nhhz1PPNxXzfXSCWjOdO-1" vertex="1">
          <mxGeometry y="52" width="140" height="26" as="geometry" />
        </mxCell>
        <mxCell id="nhhz1PPNxXzfXSCWjOdO-4" value="id двери (R14)" style="text;strokeColor=none;fillColor=none;align=left;verticalAlign=top;spacingLeft=4;spacingRight=4;overflow=hidden;rotatable=0;points=[[0,0.5],[1,0.5]];portConstraint=eastwest;" parent="nhhz1PPNxXzfXSCWjOdO-1" vertex="1">
          <mxGeometry y="78" width="140" height="26" as="geometry" />
        </mxCell>
        <mxCell id="nhhz1PPNxXzfXSCWjOdO-5" value="- состояние" style="text;strokeColor=none;fillColor=none;align=left;verticalAlign=top;spacingLeft=4;spacingRight=4;overflow=hidden;rotatable=0;points=[[0,0.5],[1,0.5]];portConstraint=eastwest;" parent="nhhz1PPNxXzfXSCWjOdO-1" vertex="1">
          <mxGeometry y="104" width="140" height="26" as="geometry" />
        </mxCell>
        <mxCell id="nhhz1PPNxXzfXSCWjOdO-6" value="#2 Валидатор (В)" style="swimlane;fontStyle=0;childLayout=stackLayout;horizontal=1;startSize=26;fillColor=none;horizontalStack=0;resizeParent=1;resizeParentMax=0;resizeLast=0;collapsible=1;marginBottom=0;" parent="1" vertex="1">
          <mxGeometry x="-124" y="473" width="140" height="130" as="geometry" />
        </mxCell>
        <mxCell id="nhhz1PPNxXzfXSCWjOdO-7" value="id валидатора" style="text;strokeColor=none;fillColor=none;align=left;verticalAlign=top;spacingLeft=4;spacingRight=4;overflow=hidden;rotatable=0;points=[[0,0.5],[1,0.5]];portConstraint=eastwest;" parent="nhhz1PPNxXzfXSCWjOdO-6" vertex="1">
          <mxGeometry y="26" width="140" height="26" as="geometry" />
        </mxCell>
        <mxCell id="nhhz1PPNxXzfXSCWjOdO-8" value="id табло (R23)&#xa;" style="text;strokeColor=none;fillColor=none;align=left;verticalAlign=top;spacingLeft=4;spacingRight=4;overflow=hidden;rotatable=0;points=[[0,0.5],[1,0.5]];portConstraint=eastwest;" parent="nhhz1PPNxXzfXSCWjOdO-6" vertex="1">
          <mxGeometry y="52" width="140" height="26" as="geometry" />
        </mxCell>
        <mxCell id="nhhz1PPNxXzfXSCWjOdO-9" value="- состояние" style="text;strokeColor=none;fillColor=none;align=left;verticalAlign=top;spacingLeft=4;spacingRight=4;overflow=hidden;rotatable=0;points=[[0,0.5],[1,0.5]];portConstraint=eastwest;" parent="nhhz1PPNxXzfXSCWjOdO-6" vertex="1">
          <mxGeometry y="78" width="140" height="26" as="geometry" />
        </mxCell>
        <mxCell id="nhhz1PPNxXzfXSCWjOdO-10" value="- БД" style="text;strokeColor=none;fillColor=none;align=left;verticalAlign=top;spacingLeft=4;spacingRight=4;overflow=hidden;rotatable=0;points=[[0,0.5],[1,0.5]];portConstraint=eastwest;" parent="nhhz1PPNxXzfXSCWjOdO-6" vertex="1">
          <mxGeometry y="104" width="140" height="26" as="geometry" />
        </mxCell>
        <mxCell id="nhhz1PPNxXzfXSCWjOdO-11" style="edgeStyle=orthogonalEdgeStyle;rounded=0;orthogonalLoop=1;jettySize=auto;html=1;exitX=1;exitY=0.5;exitDx=0;exitDy=0;entryX=0;entryY=0.5;entryDx=0;entryDy=0;startArrow=classic;startFill=1;jumpStyle=none;shadow=0;sketch=0;" parent="1" source="nhhz1PPNxXzfXSCWjOdO-3" target="nhhz1PPNxXzfXSCWjOdO-8" edge="1">
          <mxGeometry relative="1" as="geometry">
            <mxPoint x="-160" y="501" as="targetPoint" />
          </mxGeometry>
        </mxCell>
        <mxCell id="nhhz1PPNxXzfXSCWjOdO-12" value="R12" style="edgeLabel;html=1;align=center;verticalAlign=middle;resizable=0;points=[];" parent="nhhz1PPNxXzfXSCWjOdO-11" vertex="1" connectable="0">
          <mxGeometry x="0.2128" y="-1" relative="1" as="geometry">
            <mxPoint x="-10" y="-1" as="offset" />
          </mxGeometry>
        </mxCell>
        <mxCell id="nhhz1PPNxXzfXSCWjOdO-13" value="#3 Табло (Т)" style="swimlane;fontStyle=0;childLayout=stackLayout;horizontal=1;startSize=26;fillColor=none;horizontalStack=0;resizeParent=1;resizeParentMax=0;resizeLast=0;collapsible=1;marginBottom=0;" parent="1" vertex="1">
          <mxGeometry x="112" y="473" width="140" height="130" as="geometry" />
        </mxCell>
        <mxCell id="nhhz1PPNxXzfXSCWjOdO-14" value="id табло" style="text;strokeColor=none;fillColor=none;align=left;verticalAlign=top;spacingLeft=4;spacingRight=4;overflow=hidden;rotatable=0;points=[[0,0.5],[1,0.5]];portConstraint=eastwest;" parent="nhhz1PPNxXzfXSCWjOdO-13" vertex="1">
          <mxGeometry y="26" width="140" height="26" as="geometry" />
        </mxCell>
        <mxCell id="nhhz1PPNxXzfXSCWjOdO-15" value="- текст" style="text;strokeColor=none;fillColor=none;align=left;verticalAlign=top;spacingLeft=4;spacingRight=4;overflow=hidden;rotatable=0;points=[[0,0.5],[1,0.5]];portConstraint=eastwest;" parent="nhhz1PPNxXzfXSCWjOdO-13" vertex="1">
          <mxGeometry y="52" width="140" height="26" as="geometry" />
        </mxCell>
        <mxCell id="nhhz1PPNxXzfXSCWjOdO-16" value="- состояние" style="text;strokeColor=none;fillColor=none;align=left;verticalAlign=top;spacingLeft=4;spacingRight=4;overflow=hidden;rotatable=0;points=[[0,0.5],[1,0.5]];portConstraint=eastwest;" parent="nhhz1PPNxXzfXSCWjOdO-13" vertex="1">
          <mxGeometry y="78" width="140" height="26" as="geometry" />
        </mxCell>
        <mxCell id="nhhz1PPNxXzfXSCWjOdO-17" value="- время ожидания" style="text;strokeColor=none;fillColor=none;align=left;verticalAlign=top;spacingLeft=4;spacingRight=4;overflow=hidden;rotatable=0;points=[[0,0.5],[1,0.5]];portConstraint=eastwest;" parent="nhhz1PPNxXzfXSCWjOdO-13" vertex="1">
          <mxGeometry y="104" width="140" height="26" as="geometry" />
        </mxCell>
        <mxCell id="nhhz1PPNxXzfXSCWjOdO-18" style="edgeStyle=orthogonalEdgeStyle;rounded=0;sketch=0;jumpStyle=none;orthogonalLoop=1;jettySize=auto;html=1;exitX=1;exitY=0.5;exitDx=0;exitDy=0;entryX=0;entryY=0.5;entryDx=0;entryDy=0;shadow=0;startArrow=classic;startFill=1;" parent="1" source="nhhz1PPNxXzfXSCWjOdO-8" target="nhhz1PPNxXzfXSCWjOdO-15" edge="1">
          <mxGeometry relative="1" as="geometry" />
        </mxCell>
        <mxCell id="nhhz1PPNxXzfXSCWjOdO-19" value="&amp;nbsp;R23" style="edgeLabel;html=1;align=center;verticalAlign=middle;resizable=0;points=[];" parent="nhhz1PPNxXzfXSCWjOdO-18" vertex="1" connectable="0">
          <mxGeometry x="-0.0864" y="3" relative="1" as="geometry">
            <mxPoint x="4" y="3" as="offset" />
          </mxGeometry>
        </mxCell>
        <mxCell id="nhhz1PPNxXzfXSCWjOdO-20" value="#4 Двери (Д)" style="swimlane;fontStyle=0;childLayout=stackLayout;horizontal=1;startSize=26;fillColor=none;horizontalStack=0;resizeParent=1;resizeParentMax=0;resizeLast=0;collapsible=1;marginBottom=0;" parent="1" vertex="1">
          <mxGeometry x="-264" y="685" width="140" height="104" as="geometry" />
        </mxCell>
        <mxCell id="nhhz1PPNxXzfXSCWjOdO-21" value="id двери" style="text;strokeColor=none;fillColor=none;align=left;verticalAlign=top;spacingLeft=4;spacingRight=4;overflow=hidden;rotatable=0;points=[[0,0.5],[1,0.5]];portConstraint=eastwest;" parent="nhhz1PPNxXzfXSCWjOdO-20" vertex="1">
          <mxGeometry y="26" width="140" height="26" as="geometry" />
        </mxCell>
        <mxCell id="nhhz1PPNxXzfXSCWjOdO-22" value="id светодиода (R45)" style="text;strokeColor=none;fillColor=none;align=left;verticalAlign=top;spacingLeft=4;spacingRight=4;overflow=hidden;rotatable=0;points=[[0,0.5],[1,0.5]];portConstraint=eastwest;" parent="nhhz1PPNxXzfXSCWjOdO-20" vertex="1">
          <mxGeometry y="52" width="140" height="26" as="geometry" />
        </mxCell>
        <mxCell id="nhhz1PPNxXzfXSCWjOdO-23" value="- состояние" style="text;strokeColor=none;fillColor=none;align=left;verticalAlign=top;spacingLeft=4;spacingRight=4;overflow=hidden;rotatable=0;points=[[0,0.5],[1,0.5]];portConstraint=eastwest;" parent="nhhz1PPNxXzfXSCWjOdO-20" vertex="1">
          <mxGeometry y="78" width="140" height="26" as="geometry" />
        </mxCell>
        <mxCell id="nhhz1PPNxXzfXSCWjOdO-24" value="#5 Светодиод (С)" style="swimlane;fontStyle=0;childLayout=stackLayout;horizontal=1;startSize=26;fillColor=none;horizontalStack=0;resizeParent=1;resizeParentMax=0;resizeLast=0;collapsible=1;marginBottom=0;" parent="1" vertex="1">
          <mxGeometry x="16" y="685" width="140" height="78" as="geometry" />
        </mxCell>
        <mxCell id="nhhz1PPNxXzfXSCWjOdO-25" value="id светодиода" style="text;strokeColor=none;fillColor=none;align=left;verticalAlign=top;spacingLeft=4;spacingRight=4;overflow=hidden;rotatable=0;points=[[0,0.5],[1,0.5]];portConstraint=eastwest;" parent="nhhz1PPNxXzfXSCWjOdO-24" vertex="1">
          <mxGeometry y="26" width="140" height="26" as="geometry" />
        </mxCell>
        <mxCell id="nhhz1PPNxXzfXSCWjOdO-26" value="- текст" style="text;strokeColor=none;fillColor=none;align=left;verticalAlign=top;spacingLeft=4;spacingRight=4;overflow=hidden;rotatable=0;points=[[0,0.5],[1,0.5]];portConstraint=eastwest;" parent="nhhz1PPNxXzfXSCWjOdO-24" vertex="1">
          <mxGeometry y="52" width="140" height="26" as="geometry" />
        </mxCell>
        <mxCell id="nhhz1PPNxXzfXSCWjOdO-27" style="edgeStyle=orthogonalEdgeStyle;rounded=0;sketch=0;jumpStyle=none;orthogonalLoop=1;jettySize=auto;html=1;exitX=1;exitY=0.5;exitDx=0;exitDy=0;entryX=0;entryY=0.5;entryDx=0;entryDy=0;shadow=0;startArrow=classic;startFill=1;" parent="1" source="nhhz1PPNxXzfXSCWjOdO-22" target="nhhz1PPNxXzfXSCWjOdO-25" edge="1">
          <mxGeometry relative="1" as="geometry" />
        </mxCell>
        <mxCell id="nhhz1PPNxXzfXSCWjOdO-28" value="R45&lt;br&gt;" style="edgeLabel;html=1;align=center;verticalAlign=middle;resizable=0;points=[];" parent="nhhz1PPNxXzfXSCWjOdO-27" vertex="1" connectable="0">
          <mxGeometry x="0.0843" y="-2" relative="1" as="geometry">
            <mxPoint as="offset" />
          </mxGeometry>
        </mxCell>
        <mxCell id="nhhz1PPNxXzfXSCWjOdO-29" style="edgeStyle=orthogonalEdgeStyle;rounded=0;sketch=0;jumpStyle=none;orthogonalLoop=1;jettySize=auto;html=1;exitX=0;exitY=0.5;exitDx=0;exitDy=0;entryX=0;entryY=0.5;entryDx=0;entryDy=0;shadow=0;startArrow=classic;startFill=1;" parent="1" source="nhhz1PPNxXzfXSCWjOdO-4" target="nhhz1PPNxXzfXSCWjOdO-22" edge="1">
          <mxGeometry relative="1" as="geometry" />
        </mxCell>
        <mxCell id="nhhz1PPNxXzfXSCWjOdO-30" value="R14&lt;br&gt;" style="edgeLabel;html=1;align=center;verticalAlign=middle;resizable=0;points=[];" parent="nhhz1PPNxXzfXSCWjOdO-29" vertex="1" connectable="0">
          <mxGeometry x="-0.0187" y="1" relative="1" as="geometry">
            <mxPoint as="offset" />
          </mxGeometry>
        </mxCell>
        <mxCell id="nhhz1PPNxXzfXSCWjOdO-31" value="&lt;font style=&quot;font-size: 17px&quot;&gt;&lt;b&gt;Информационная модель&lt;/b&gt;&lt;/font&gt;" style="text;html=1;strokeColor=none;fillColor=none;align=center;verticalAlign=middle;whiteSpace=wrap;rounded=0;" parent="1" vertex="1">
          <mxGeometry x="-346" y="413" width="320" height="20" as="geometry" />
        </mxCell>
        <mxCell id="nhhz1PPNxXzfXSCWjOdO-32" value="&lt;font style=&quot;font-size: 17px&quot;&gt;&lt;b&gt;Турникет&lt;/b&gt;&lt;/font&gt;" style="text;html=1;strokeColor=none;fillColor=none;align=center;verticalAlign=middle;whiteSpace=wrap;rounded=0;" parent="1" vertex="1">
          <mxGeometry x="-346" y="856" width="320" height="20" as="geometry" />
        </mxCell>
        <mxCell id="nhhz1PPNxXzfXSCWjOdO-33" style="edgeStyle=orthogonalEdgeStyle;rounded=0;sketch=0;jumpStyle=none;orthogonalLoop=1;jettySize=auto;html=1;exitX=0.5;exitY=1;exitDx=0;exitDy=0;entryX=0.5;entryY=1;entryDx=0;entryDy=0;shadow=0;startArrow=none;startFill=0;" parent="1" source="nhhz1PPNxXzfXSCWjOdO-35" target="nhhz1PPNxXzfXSCWjOdO-38" edge="1">
          <mxGeometry relative="1" as="geometry" />
        </mxCell>
        <mxCell id="nhhz1PPNxXzfXSCWjOdO-34" value="Тр2&lt;br&gt;" style="edgeLabel;html=1;align=center;verticalAlign=middle;resizable=0;points=[];" parent="nhhz1PPNxXzfXSCWjOdO-33" vertex="1" connectable="0">
          <mxGeometry x="0.0123" y="1" relative="1" as="geometry">
            <mxPoint as="offset" />
          </mxGeometry>
        </mxCell>
        <mxCell id="nhhz1PPNxXzfXSCWjOdO-35" value="Ожидание" style="rounded=0;whiteSpace=wrap;html=1;" parent="1" vertex="1">
          <mxGeometry x="-370" y="980" width="120" height="60" as="geometry" />
        </mxCell>
        <mxCell id="nhhz1PPNxXzfXSCWjOdO-36" style="edgeStyle=orthogonalEdgeStyle;rounded=0;sketch=0;jumpStyle=none;orthogonalLoop=1;jettySize=auto;html=1;exitX=0.5;exitY=0;exitDx=0;exitDy=0;entryX=0.5;entryY=0;entryDx=0;entryDy=0;shadow=0;startArrow=none;startFill=0;" parent="1" source="nhhz1PPNxXzfXSCWjOdO-38" target="nhhz1PPNxXzfXSCWjOdO-35" edge="1">
          <mxGeometry relative="1" as="geometry" />
        </mxCell>
        <mxCell id="nhhz1PPNxXzfXSCWjOdO-37" value="Тр1" style="edgeLabel;html=1;align=center;verticalAlign=middle;resizable=0;points=[];" parent="nhhz1PPNxXzfXSCWjOdO-36" vertex="1" connectable="0">
          <mxGeometry x="-0.0736" y="-2" relative="1" as="geometry">
            <mxPoint x="-11" y="-1" as="offset" />
          </mxGeometry>
        </mxCell>
        <mxCell id="nhhz1PPNxXzfXSCWjOdO-38" value="Пропуск человека" style="rounded=0;whiteSpace=wrap;html=1;" parent="1" vertex="1">
          <mxGeometry x="-84" y="980" width="120" height="60" as="geometry" />
        </mxCell>
        <mxCell id="nhhz1PPNxXzfXSCWjOdO-39" value="" style="shape=table;html=1;whiteSpace=wrap;startSize=0;container=1;collapsible=0;childLayout=tableLayout;sketch=0;verticalAlign=middle;" parent="1" vertex="1">
          <mxGeometry x="109" y="957" width="180" height="128.5" as="geometry" />
        </mxCell>
        <mxCell id="nhhz1PPNxXzfXSCWjOdO-40" value="" style="shape=partialRectangle;html=1;whiteSpace=wrap;collapsible=0;dropTarget=0;pointerEvents=0;fillColor=none;top=0;left=0;bottom=0;right=0;points=[[0,0.5],[1,0.5]];portConstraint=eastwest;sketch=0;" parent="nhhz1PPNxXzfXSCWjOdO-39" vertex="1">
          <mxGeometry width="180" height="39" as="geometry" />
        </mxCell>
        <mxCell id="nhhz1PPNxXzfXSCWjOdO-41" value="" style="shape=partialRectangle;html=1;whiteSpace=wrap;connectable=0;top=0;left=0;bottom=0;right=0;overflow=hidden;sketch=0;" parent="nhhz1PPNxXzfXSCWjOdO-40" vertex="1">
          <mxGeometry width="60" height="39" as="geometry" />
        </mxCell>
        <mxCell id="nhhz1PPNxXzfXSCWjOdO-42" value="ТР1" style="shape=partialRectangle;html=1;whiteSpace=wrap;connectable=0;top=0;left=0;bottom=0;right=0;overflow=hidden;sketch=0;" parent="nhhz1PPNxXzfXSCWjOdO-40" vertex="1">
          <mxGeometry x="60" width="60" height="39" as="geometry" />
        </mxCell>
        <mxCell id="nhhz1PPNxXzfXSCWjOdO-43" value="ТР2" style="shape=partialRectangle;html=1;whiteSpace=wrap;connectable=0;top=0;left=0;bottom=0;right=0;overflow=hidden;sketch=0;" parent="nhhz1PPNxXzfXSCWjOdO-40" vertex="1">
          <mxGeometry x="120" width="60" height="39" as="geometry" />
        </mxCell>
        <mxCell id="nhhz1PPNxXzfXSCWjOdO-44" value="" style="shape=partialRectangle;html=1;whiteSpace=wrap;collapsible=0;dropTarget=0;pointerEvents=0;fillColor=none;top=0;left=0;bottom=0;right=0;points=[[0,0.5],[1,0.5]];portConstraint=eastwest;sketch=0;" parent="nhhz1PPNxXzfXSCWjOdO-39" vertex="1">
          <mxGeometry y="39" width="180" height="45" as="geometry" />
        </mxCell>
        <mxCell id="nhhz1PPNxXzfXSCWjOdO-45" value="1" style="shape=partialRectangle;html=1;whiteSpace=wrap;connectable=0;top=0;left=0;bottom=0;right=0;overflow=hidden;sketch=0;" parent="nhhz1PPNxXzfXSCWjOdO-44" vertex="1">
          <mxGeometry width="60" height="45" as="geometry" />
        </mxCell>
        <mxCell id="nhhz1PPNxXzfXSCWjOdO-46" value="2" style="shape=partialRectangle;html=1;whiteSpace=wrap;connectable=0;fillColor=#f5f5f5;top=0;left=0;bottom=0;right=0;overflow=hidden;sketch=0;strokeColor=#666666;fontColor=#333333;" parent="nhhz1PPNxXzfXSCWjOdO-44" vertex="1">
          <mxGeometry x="60" width="60" height="45" as="geometry" />
        </mxCell>
        <mxCell id="nhhz1PPNxXzfXSCWjOdO-47" value="-" style="shape=partialRectangle;html=1;whiteSpace=wrap;connectable=0;fillColor=#f5f5f5;top=0;left=0;bottom=0;right=0;overflow=hidden;shadow=0;sketch=0;strokeColor=#666666;fontColor=#333333;" parent="nhhz1PPNxXzfXSCWjOdO-44" vertex="1">
          <mxGeometry x="120" width="60" height="45" as="geometry" />
        </mxCell>
        <mxCell id="nhhz1PPNxXzfXSCWjOdO-48" value="" style="shape=partialRectangle;html=1;whiteSpace=wrap;collapsible=0;dropTarget=0;pointerEvents=0;fillColor=none;top=0;left=0;bottom=0;right=0;points=[[0,0.5],[1,0.5]];portConstraint=eastwest;sketch=0;" parent="nhhz1PPNxXzfXSCWjOdO-39" vertex="1">
          <mxGeometry y="84" width="180" height="45" as="geometry" />
        </mxCell>
        <mxCell id="nhhz1PPNxXzfXSCWjOdO-49" value="2" style="shape=partialRectangle;html=1;whiteSpace=wrap;connectable=0;top=0;left=0;bottom=0;right=0;overflow=hidden;sketch=0;" parent="nhhz1PPNxXzfXSCWjOdO-48" vertex="1">
          <mxGeometry width="60" height="45" as="geometry" />
        </mxCell>
        <mxCell id="nhhz1PPNxXzfXSCWjOdO-50" value="-" style="shape=partialRectangle;html=1;whiteSpace=wrap;connectable=0;fillColor=#f5f5f5;top=0;left=0;bottom=0;right=0;overflow=hidden;sketch=0;strokeColor=#666666;fontColor=#333333;" parent="nhhz1PPNxXzfXSCWjOdO-48" vertex="1">
          <mxGeometry x="60" width="60" height="45" as="geometry" />
        </mxCell>
        <mxCell id="nhhz1PPNxXzfXSCWjOdO-51" value="1" style="shape=partialRectangle;html=1;whiteSpace=wrap;connectable=0;fillColor=#f5f5f5;top=0;left=0;bottom=0;right=0;overflow=hidden;shadow=0;sketch=0;strokeColor=#666666;fontColor=#333333;" parent="nhhz1PPNxXzfXSCWjOdO-48" vertex="1">
          <mxGeometry x="120" width="60" height="45" as="geometry" />
        </mxCell>
        <mxCell id="nhhz1PPNxXzfXSCWjOdO-52" value="&lt;div style=&quot;text-align: left&quot;&gt;ТР1 - пропустить человека&lt;/div&gt;&lt;div style=&quot;text-align: left&quot;&gt;ТР2 - перейти в режим ожидания&lt;/div&gt;" style="text;html=1;align=center;verticalAlign=middle;resizable=0;points=[];autosize=1;strokeColor=none;" parent="1" vertex="1">
          <mxGeometry x="104" y="900" width="201" height="32" as="geometry" />
        </mxCell>
        <mxCell id="nhhz1PPNxXzfXSCWjOdO-53" value="&lt;font style=&quot;font-size: 17px&quot;&gt;&lt;b&gt;Валидатор&lt;/b&gt;&lt;/font&gt;" style="text;html=1;strokeColor=none;fillColor=none;align=center;verticalAlign=middle;whiteSpace=wrap;rounded=0;" parent="1" vertex="1">
          <mxGeometry x="-346" y="1145" width="320" height="20" as="geometry" />
        </mxCell>
        <mxCell id="nhhz1PPNxXzfXSCWjOdO-54" style="edgeStyle=orthogonalEdgeStyle;rounded=0;sketch=0;jumpStyle=none;orthogonalLoop=1;jettySize=auto;html=1;exitX=1;exitY=0.5;exitDx=0;exitDy=0;entryX=0;entryY=0.5;entryDx=0;entryDy=0;shadow=0;startArrow=none;startFill=0;" parent="1" source="nhhz1PPNxXzfXSCWjOdO-55" target="nhhz1PPNxXzfXSCWjOdO-57" edge="1">
          <mxGeometry relative="1" as="geometry" />
        </mxCell>
        <mxCell id="nhhz1PPNxXzfXSCWjOdO-55" value="Ожидание" style="rounded=0;whiteSpace=wrap;html=1;" parent="1" vertex="1">
          <mxGeometry x="-370" y="1260" width="120" height="60" as="geometry" />
        </mxCell>
        <mxCell id="nhhz1PPNxXzfXSCWjOdO-56" style="edgeStyle=orthogonalEdgeStyle;rounded=0;sketch=0;jumpStyle=none;orthogonalLoop=1;jettySize=auto;html=1;exitX=1;exitY=0.5;exitDx=0;exitDy=0;entryX=0;entryY=0.5;entryDx=0;entryDy=0;shadow=0;startArrow=none;startFill=0;" parent="1" source="nhhz1PPNxXzfXSCWjOdO-57" target="nhhz1PPNxXzfXSCWjOdO-60" edge="1">
          <mxGeometry relative="1" as="geometry" />
        </mxCell>
        <mxCell id="nhhz1PPNxXzfXSCWjOdO-57" value="Считывание" style="rounded=0;whiteSpace=wrap;html=1;" parent="1" vertex="1">
          <mxGeometry x="-179" y="1260" width="120" height="60" as="geometry" />
        </mxCell>
        <mxCell id="nhhz1PPNxXzfXSCWjOdO-58" style="edgeStyle=orthogonalEdgeStyle;rounded=0;sketch=0;jumpStyle=none;orthogonalLoop=1;jettySize=auto;html=1;exitX=1;exitY=0.5;exitDx=0;exitDy=0;entryX=0;entryY=0.5;entryDx=0;entryDy=0;shadow=0;startArrow=none;startFill=0;" parent="1" source="nhhz1PPNxXzfXSCWjOdO-60" target="nhhz1PPNxXzfXSCWjOdO-62" edge="1">
          <mxGeometry relative="1" as="geometry" />
        </mxCell>
        <mxCell id="nhhz1PPNxXzfXSCWjOdO-59" style="edgeStyle=orthogonalEdgeStyle;sketch=0;jumpStyle=arc;orthogonalLoop=1;jettySize=auto;html=1;exitX=0.5;exitY=1;exitDx=0;exitDy=0;entryX=0.5;entryY=1;entryDx=0;entryDy=0;shadow=0;startArrow=none;startFill=0;rounded=0;" parent="1" source="nhhz1PPNxXzfXSCWjOdO-60" target="nhhz1PPNxXzfXSCWjOdO-55" edge="1">
          <mxGeometry relative="1" as="geometry">
            <Array as="points">
              <mxPoint x="102" y="1381" />
              <mxPoint x="-310" y="1381" />
            </Array>
          </mxGeometry>
        </mxCell>
        <mxCell id="nhhz1PPNxXzfXSCWjOdO-60" value="Обработка" style="rounded=0;whiteSpace=wrap;html=1;" parent="1" vertex="1">
          <mxGeometry x="42" y="1260" width="120" height="60" as="geometry" />
        </mxCell>
        <mxCell id="nhhz1PPNxXzfXSCWjOdO-61" style="edgeStyle=orthogonalEdgeStyle;rounded=0;sketch=0;jumpStyle=none;orthogonalLoop=1;jettySize=auto;html=1;exitX=0.5;exitY=1;exitDx=0;exitDy=0;entryX=0.5;entryY=1;entryDx=0;entryDy=0;shadow=0;startArrow=none;startFill=0;" parent="1" source="nhhz1PPNxXzfXSCWjOdO-62" target="nhhz1PPNxXzfXSCWjOdO-55" edge="1">
          <mxGeometry relative="1" as="geometry">
            <Array as="points">
              <mxPoint x="323" y="1426" />
              <mxPoint x="-310" y="1426" />
            </Array>
          </mxGeometry>
        </mxCell>
        <mxCell id="nhhz1PPNxXzfXSCWjOdO-62" value="Списывание &lt;br&gt;денег" style="rounded=0;whiteSpace=wrap;html=1;" parent="1" vertex="1">
          <mxGeometry x="263" y="1260" width="120" height="60" as="geometry" />
        </mxCell>
        <mxCell id="nhhz1PPNxXzfXSCWjOdO-63" value="" style="shape=table;html=1;whiteSpace=wrap;startSize=0;container=1;collapsible=0;childLayout=tableLayout;shadow=0;sketch=0;fillColor=#ffffff;gradientColor=none;verticalAlign=middle;" parent="1" vertex="1">
          <mxGeometry x="-11" y="1631.39" width="300" height="201.214285714286" as="geometry" />
        </mxCell>
        <mxCell id="nhhz1PPNxXzfXSCWjOdO-64" value="" style="shape=partialRectangle;html=1;whiteSpace=wrap;collapsible=0;dropTarget=0;pointerEvents=0;fillColor=none;top=0;left=0;bottom=0;right=0;points=[[0,0.5],[1,0.5]];portConstraint=eastwest;" parent="nhhz1PPNxXzfXSCWjOdO-63" vertex="1">
          <mxGeometry width="300" height="41" as="geometry" />
        </mxCell>
        <mxCell id="nhhz1PPNxXzfXSCWjOdO-65" value="" style="shape=partialRectangle;html=1;whiteSpace=wrap;connectable=0;fillColor=none;top=0;left=0;bottom=0;right=0;overflow=hidden;" parent="nhhz1PPNxXzfXSCWjOdO-64" vertex="1">
          <mxGeometry width="60" height="41" as="geometry" />
        </mxCell>
        <mxCell id="nhhz1PPNxXzfXSCWjOdO-66" value="В1" style="shape=partialRectangle;html=1;whiteSpace=wrap;connectable=0;fillColor=none;top=0;left=0;bottom=0;right=0;overflow=hidden;" parent="nhhz1PPNxXzfXSCWjOdO-64" vertex="1">
          <mxGeometry x="60" width="60" height="41" as="geometry" />
        </mxCell>
        <mxCell id="nhhz1PPNxXzfXSCWjOdO-67" value="В2" style="shape=partialRectangle;html=1;whiteSpace=wrap;connectable=0;fillColor=none;top=0;left=0;bottom=0;right=0;overflow=hidden;" parent="nhhz1PPNxXzfXSCWjOdO-64" vertex="1">
          <mxGeometry x="120" width="60" height="41" as="geometry" />
        </mxCell>
        <mxCell id="nhhz1PPNxXzfXSCWjOdO-68" value="В3" style="shape=partialRectangle;html=1;whiteSpace=wrap;connectable=0;fillColor=none;top=0;left=0;bottom=0;right=0;overflow=hidden;" parent="nhhz1PPNxXzfXSCWjOdO-64" vertex="1">
          <mxGeometry x="180" width="60" height="41" as="geometry" />
        </mxCell>
        <mxCell id="nhhz1PPNxXzfXSCWjOdO-69" value="В4" style="shape=partialRectangle;html=1;whiteSpace=wrap;connectable=0;fillColor=none;top=0;left=0;bottom=0;right=0;overflow=hidden;" parent="nhhz1PPNxXzfXSCWjOdO-64" vertex="1">
          <mxGeometry x="240" width="60" height="41" as="geometry" />
        </mxCell>
        <mxCell id="nhhz1PPNxXzfXSCWjOdO-70" value="" style="shape=partialRectangle;html=1;whiteSpace=wrap;collapsible=0;dropTarget=0;pointerEvents=0;fillColor=none;top=0;left=0;bottom=0;right=0;points=[[0,0.5],[1,0.5]];portConstraint=eastwest;" parent="nhhz1PPNxXzfXSCWjOdO-63" vertex="1">
          <mxGeometry y="41" width="300" height="40" as="geometry" />
        </mxCell>
        <mxCell id="nhhz1PPNxXzfXSCWjOdO-71" value="1" style="shape=partialRectangle;html=1;whiteSpace=wrap;connectable=0;fillColor=none;top=0;left=0;bottom=0;right=0;overflow=hidden;" parent="nhhz1PPNxXzfXSCWjOdO-70" vertex="1">
          <mxGeometry width="60" height="40" as="geometry" />
        </mxCell>
        <mxCell id="nhhz1PPNxXzfXSCWjOdO-72" value="2" style="shape=partialRectangle;html=1;whiteSpace=wrap;connectable=0;fillColor=#f5f5f5;top=0;left=0;bottom=0;right=0;overflow=hidden;strokeColor=#666666;fontColor=#333333;" parent="nhhz1PPNxXzfXSCWjOdO-70" vertex="1">
          <mxGeometry x="60" width="60" height="40" as="geometry" />
        </mxCell>
        <mxCell id="nhhz1PPNxXzfXSCWjOdO-73" value="х" style="shape=partialRectangle;html=1;whiteSpace=wrap;connectable=0;fillColor=#f5f5f5;top=0;left=0;bottom=0;right=0;overflow=hidden;strokeColor=#666666;fontColor=#333333;" parent="nhhz1PPNxXzfXSCWjOdO-70" vertex="1">
          <mxGeometry x="120" width="60" height="40" as="geometry" />
        </mxCell>
        <mxCell id="nhhz1PPNxXzfXSCWjOdO-74" value="х" style="shape=partialRectangle;html=1;whiteSpace=wrap;connectable=0;fillColor=#f5f5f5;top=0;left=0;bottom=0;right=0;overflow=hidden;strokeColor=#666666;fontColor=#333333;" parent="nhhz1PPNxXzfXSCWjOdO-70" vertex="1">
          <mxGeometry x="180" width="60" height="40" as="geometry" />
        </mxCell>
        <mxCell id="nhhz1PPNxXzfXSCWjOdO-75" value="-" style="shape=partialRectangle;html=1;whiteSpace=wrap;connectable=0;fillColor=#f5f5f5;top=0;left=0;bottom=0;right=0;overflow=hidden;strokeColor=#666666;fontColor=#333333;" parent="nhhz1PPNxXzfXSCWjOdO-70" vertex="1">
          <mxGeometry x="240" width="60" height="40" as="geometry" />
        </mxCell>
        <mxCell id="nhhz1PPNxXzfXSCWjOdO-76" value="" style="shape=partialRectangle;html=1;whiteSpace=wrap;collapsible=0;dropTarget=0;pointerEvents=0;fillColor=none;top=0;left=0;bottom=0;right=0;points=[[0,0.5],[1,0.5]];portConstraint=eastwest;" parent="nhhz1PPNxXzfXSCWjOdO-63" vertex="1">
          <mxGeometry y="81" width="300" height="40" as="geometry" />
        </mxCell>
        <mxCell id="nhhz1PPNxXzfXSCWjOdO-77" value="2" style="shape=partialRectangle;html=1;whiteSpace=wrap;connectable=0;fillColor=none;top=0;left=0;bottom=0;right=0;overflow=hidden;" parent="nhhz1PPNxXzfXSCWjOdO-76" vertex="1">
          <mxGeometry width="60" height="40" as="geometry" />
        </mxCell>
        <mxCell id="nhhz1PPNxXzfXSCWjOdO-78" value="-" style="shape=partialRectangle;html=1;whiteSpace=wrap;connectable=0;fillColor=#f5f5f5;top=0;left=0;bottom=0;right=0;overflow=hidden;strokeColor=#666666;fontColor=#333333;" parent="nhhz1PPNxXzfXSCWjOdO-76" vertex="1">
          <mxGeometry x="60" width="60" height="40" as="geometry" />
        </mxCell>
        <mxCell id="nhhz1PPNxXzfXSCWjOdO-79" value="3" style="shape=partialRectangle;html=1;whiteSpace=wrap;connectable=0;fillColor=#f5f5f5;top=0;left=0;bottom=0;right=0;overflow=hidden;strokeColor=#666666;fontColor=#333333;" parent="nhhz1PPNxXzfXSCWjOdO-76" vertex="1">
          <mxGeometry x="120" width="60" height="40" as="geometry" />
        </mxCell>
        <mxCell id="nhhz1PPNxXzfXSCWjOdO-80" value="х" style="shape=partialRectangle;html=1;whiteSpace=wrap;connectable=0;fillColor=#f5f5f5;top=0;left=0;bottom=0;right=0;overflow=hidden;strokeColor=#666666;fontColor=#333333;" parent="nhhz1PPNxXzfXSCWjOdO-76" vertex="1">
          <mxGeometry x="180" width="60" height="40" as="geometry" />
        </mxCell>
        <mxCell id="nhhz1PPNxXzfXSCWjOdO-81" value="х" style="shape=partialRectangle;html=1;whiteSpace=wrap;connectable=0;fillColor=#f5f5f5;top=0;left=0;bottom=0;right=0;overflow=hidden;strokeColor=#666666;fontColor=#333333;" parent="nhhz1PPNxXzfXSCWjOdO-76" vertex="1">
          <mxGeometry x="240" width="60" height="40" as="geometry" />
        </mxCell>
        <mxCell id="nhhz1PPNxXzfXSCWjOdO-82" style="shape=partialRectangle;html=1;whiteSpace=wrap;collapsible=0;dropTarget=0;pointerEvents=0;fillColor=none;top=0;left=0;bottom=0;right=0;points=[[0,0.5],[1,0.5]];portConstraint=eastwest;" parent="nhhz1PPNxXzfXSCWjOdO-63" vertex="1">
          <mxGeometry y="121" width="300" height="40" as="geometry" />
        </mxCell>
        <mxCell id="nhhz1PPNxXzfXSCWjOdO-83" value="3" style="shape=partialRectangle;html=1;whiteSpace=wrap;connectable=0;fillColor=none;top=0;left=0;bottom=0;right=0;overflow=hidden;" parent="nhhz1PPNxXzfXSCWjOdO-82" vertex="1">
          <mxGeometry width="60" height="40" as="geometry" />
        </mxCell>
        <mxCell id="nhhz1PPNxXzfXSCWjOdO-84" value="х" style="shape=partialRectangle;html=1;whiteSpace=wrap;connectable=0;fillColor=#f5f5f5;top=0;left=0;bottom=0;right=0;overflow=hidden;strokeColor=#666666;fontColor=#333333;" parent="nhhz1PPNxXzfXSCWjOdO-82" vertex="1">
          <mxGeometry x="60" width="60" height="40" as="geometry" />
        </mxCell>
        <mxCell id="nhhz1PPNxXzfXSCWjOdO-85" value="-" style="shape=partialRectangle;html=1;whiteSpace=wrap;connectable=0;fillColor=#f5f5f5;top=0;left=0;bottom=0;right=0;overflow=hidden;strokeColor=#666666;fontColor=#333333;" parent="nhhz1PPNxXzfXSCWjOdO-82" vertex="1">
          <mxGeometry x="120" width="60" height="40" as="geometry" />
        </mxCell>
        <mxCell id="nhhz1PPNxXzfXSCWjOdO-86" value="4" style="shape=partialRectangle;html=1;whiteSpace=wrap;connectable=0;fillColor=#f5f5f5;top=0;left=0;bottom=0;right=0;overflow=hidden;strokeColor=#666666;fontColor=#333333;" parent="nhhz1PPNxXzfXSCWjOdO-82" vertex="1">
          <mxGeometry x="180" width="60" height="40" as="geometry" />
        </mxCell>
        <mxCell id="nhhz1PPNxXzfXSCWjOdO-87" value="1" style="shape=partialRectangle;html=1;whiteSpace=wrap;connectable=0;fillColor=#f5f5f5;top=0;left=0;bottom=0;right=0;overflow=hidden;strokeColor=#666666;fontColor=#333333;" parent="nhhz1PPNxXzfXSCWjOdO-82" vertex="1">
          <mxGeometry x="240" width="60" height="40" as="geometry" />
        </mxCell>
        <mxCell id="nhhz1PPNxXzfXSCWjOdO-88" style="shape=partialRectangle;html=1;whiteSpace=wrap;collapsible=0;dropTarget=0;pointerEvents=0;fillColor=none;top=0;left=0;bottom=0;right=0;points=[[0,0.5],[1,0.5]];portConstraint=eastwest;" parent="nhhz1PPNxXzfXSCWjOdO-63" vertex="1">
          <mxGeometry y="161" width="300" height="40" as="geometry" />
        </mxCell>
        <mxCell id="nhhz1PPNxXzfXSCWjOdO-89" value="4" style="shape=partialRectangle;html=1;whiteSpace=wrap;connectable=0;fillColor=none;top=0;left=0;bottom=0;right=0;overflow=hidden;" parent="nhhz1PPNxXzfXSCWjOdO-88" vertex="1">
          <mxGeometry width="60" height="40" as="geometry" />
        </mxCell>
        <mxCell id="nhhz1PPNxXzfXSCWjOdO-90" value="х" style="shape=partialRectangle;html=1;whiteSpace=wrap;connectable=0;fillColor=#f5f5f5;top=0;left=0;bottom=0;right=0;overflow=hidden;strokeColor=#666666;fontColor=#333333;" parent="nhhz1PPNxXzfXSCWjOdO-88" vertex="1">
          <mxGeometry x="60" width="60" height="40" as="geometry" />
        </mxCell>
        <mxCell id="nhhz1PPNxXzfXSCWjOdO-91" value="х" style="shape=partialRectangle;html=1;whiteSpace=wrap;connectable=0;fillColor=#f5f5f5;top=0;left=0;bottom=0;right=0;overflow=hidden;strokeColor=#666666;fontColor=#333333;" parent="nhhz1PPNxXzfXSCWjOdO-88" vertex="1">
          <mxGeometry x="120" width="60" height="40" as="geometry" />
        </mxCell>
        <mxCell id="nhhz1PPNxXzfXSCWjOdO-92" value="-" style="shape=partialRectangle;html=1;whiteSpace=wrap;connectable=0;fillColor=#f5f5f5;top=0;left=0;bottom=0;right=0;overflow=hidden;strokeColor=#666666;fontColor=#333333;" parent="nhhz1PPNxXzfXSCWjOdO-88" vertex="1">
          <mxGeometry x="180" width="60" height="40" as="geometry" />
        </mxCell>
        <mxCell id="nhhz1PPNxXzfXSCWjOdO-93" value="1" style="shape=partialRectangle;html=1;whiteSpace=wrap;connectable=0;fillColor=#f5f5f5;top=0;left=0;bottom=0;right=0;overflow=hidden;strokeColor=#666666;fontColor=#333333;" parent="nhhz1PPNxXzfXSCWjOdO-88" vertex="1">
          <mxGeometry x="240" width="60" height="40" as="geometry" />
        </mxCell>
        <mxCell id="nhhz1PPNxXzfXSCWjOdO-94" value="&lt;div style=&quot;text-align: left ; font-size: 15px&quot;&gt;&lt;font style=&quot;font-size: 15px&quot;&gt;В1 - Считать карту&lt;/font&gt;&lt;/div&gt;&lt;div style=&quot;text-align: left ; font-size: 15px&quot;&gt;&lt;font style=&quot;font-size: 15px&quot;&gt;В2 - Обработать&lt;/font&gt;&lt;/div&gt;&lt;div style=&quot;text-align: left ; font-size: 15px&quot;&gt;&lt;font style=&quot;font-size: 15px&quot;&gt;В3 - Списать деньги&lt;/font&gt;&lt;/div&gt;&lt;div style=&quot;text-align: left ; font-size: 15px&quot;&gt;&lt;font style=&quot;font-size: 15px&quot;&gt;В4 - Перейти в режим ожидания&lt;/font&gt;&lt;/div&gt;" style="text;html=1;align=center;verticalAlign=middle;resizable=0;points=[];autosize=1;strokeColor=none;" parent="1" vertex="1">
          <mxGeometry x="-366" y="1702" width="242" height="60" as="geometry" />
        </mxCell>
        <mxCell id="nhhz1PPNxXzfXSCWjOdO-95" value="&lt;font style=&quot;font-size: 17px&quot;&gt;&lt;b&gt;Двери&lt;/b&gt;&lt;/font&gt;" style="text;html=1;strokeColor=none;fillColor=none;align=center;verticalAlign=middle;whiteSpace=wrap;rounded=0;" parent="1" vertex="1">
          <mxGeometry x="-346" y="1941" width="320" height="20" as="geometry" />
        </mxCell>
        <mxCell id="nhhz1PPNxXzfXSCWjOdO-96" style="edgeStyle=orthogonalEdgeStyle;rounded=0;sketch=0;jumpStyle=arc;orthogonalLoop=1;jettySize=auto;html=1;exitX=0.5;exitY=0;exitDx=0;exitDy=0;entryX=0;entryY=0.5;entryDx=0;entryDy=0;shadow=0;startArrow=none;startFill=0;" parent="1" source="nhhz1PPNxXzfXSCWjOdO-98" target="nhhz1PPNxXzfXSCWjOdO-101" edge="1">
          <mxGeometry relative="1" as="geometry" />
        </mxCell>
        <mxCell id="nhhz1PPNxXzfXSCWjOdO-97" value="Д4" style="edgeLabel;html=1;align=center;verticalAlign=middle;resizable=0;points=[];" parent="nhhz1PPNxXzfXSCWjOdO-96" vertex="1" connectable="0">
          <mxGeometry x="-0.3561" y="1" relative="1" as="geometry">
            <mxPoint as="offset" />
          </mxGeometry>
        </mxCell>
        <mxCell id="nhhz1PPNxXzfXSCWjOdO-98" value="Закрыты" style="rounded=0;whiteSpace=wrap;html=1;" parent="1" vertex="1">
          <mxGeometry x="-376" y="2168" width="120" height="60" as="geometry" />
        </mxCell>
        <mxCell id="nhhz1PPNxXzfXSCWjOdO-99" style="edgeStyle=orthogonalEdgeStyle;rounded=0;sketch=0;jumpStyle=arc;orthogonalLoop=1;jettySize=auto;html=1;exitX=1;exitY=0.5;exitDx=0;exitDy=0;entryX=0.5;entryY=0;entryDx=0;entryDy=0;shadow=0;startArrow=none;startFill=0;" parent="1" source="nhhz1PPNxXzfXSCWjOdO-101" target="nhhz1PPNxXzfXSCWjOdO-104" edge="1">
          <mxGeometry relative="1" as="geometry" />
        </mxCell>
        <mxCell id="nhhz1PPNxXzfXSCWjOdO-100" value="Д1" style="edgeLabel;html=1;align=center;verticalAlign=middle;resizable=0;points=[];" parent="nhhz1PPNxXzfXSCWjOdO-99" vertex="1" connectable="0">
          <mxGeometry x="0.2526" y="2" relative="1" as="geometry">
            <mxPoint y="-1" as="offset" />
          </mxGeometry>
        </mxCell>
        <mxCell id="nhhz1PPNxXzfXSCWjOdO-101" value="Открываются" style="rounded=0;whiteSpace=wrap;html=1;" parent="1" vertex="1">
          <mxGeometry x="-256" y="2060" width="120" height="60" as="geometry" />
        </mxCell>
        <mxCell id="nhhz1PPNxXzfXSCWjOdO-102" style="edgeStyle=orthogonalEdgeStyle;rounded=0;sketch=0;jumpStyle=arc;orthogonalLoop=1;jettySize=auto;html=1;exitX=0.5;exitY=1;exitDx=0;exitDy=0;entryX=1;entryY=0.5;entryDx=0;entryDy=0;shadow=0;startArrow=none;startFill=0;" parent="1" source="nhhz1PPNxXzfXSCWjOdO-104" target="nhhz1PPNxXzfXSCWjOdO-107" edge="1">
          <mxGeometry relative="1" as="geometry" />
        </mxCell>
        <mxCell id="nhhz1PPNxXzfXSCWjOdO-103" value="Д2" style="edgeLabel;html=1;align=center;verticalAlign=middle;resizable=0;points=[];" parent="nhhz1PPNxXzfXSCWjOdO-102" vertex="1" connectable="0">
          <mxGeometry x="-0.3718" y="2" relative="1" as="geometry">
            <mxPoint as="offset" />
          </mxGeometry>
        </mxCell>
        <mxCell id="nhhz1PPNxXzfXSCWjOdO-104" value="Открыты" style="rounded=0;whiteSpace=wrap;html=1;" parent="1" vertex="1">
          <mxGeometry x="-136" y="2168" width="120" height="60" as="geometry" />
        </mxCell>
        <mxCell id="nhhz1PPNxXzfXSCWjOdO-105" style="edgeStyle=orthogonalEdgeStyle;rounded=0;sketch=0;jumpStyle=arc;orthogonalLoop=1;jettySize=auto;html=1;exitX=0;exitY=0.5;exitDx=0;exitDy=0;entryX=0.5;entryY=1;entryDx=0;entryDy=0;shadow=0;startArrow=none;startFill=0;" parent="1" source="nhhz1PPNxXzfXSCWjOdO-107" target="nhhz1PPNxXzfXSCWjOdO-98" edge="1">
          <mxGeometry relative="1" as="geometry" />
        </mxCell>
        <mxCell id="nhhz1PPNxXzfXSCWjOdO-106" value="Д3" style="edgeLabel;html=1;align=center;verticalAlign=middle;resizable=0;points=[];" parent="nhhz1PPNxXzfXSCWjOdO-105" vertex="1" connectable="0">
          <mxGeometry x="0.0633" y="-2" relative="1" as="geometry">
            <mxPoint as="offset" />
          </mxGeometry>
        </mxCell>
        <mxCell id="nhhz1PPNxXzfXSCWjOdO-107" value="Закрываются" style="rounded=0;whiteSpace=wrap;html=1;" parent="1" vertex="1">
          <mxGeometry x="-254" y="2276" width="120" height="60" as="geometry" />
        </mxCell>
        <mxCell id="nhhz1PPNxXzfXSCWjOdO-108" value="&lt;div style=&quot;text-align: left ; font-size: 15px&quot;&gt;Д1 - Двери открыты&lt;/div&gt;&lt;div style=&quot;text-align: left ; font-size: 15px&quot;&gt;Д2 - Закрыть двери&lt;/div&gt;&lt;div style=&quot;text-align: left ; font-size: 15px&quot;&gt;Д3 - Двери закрыты&lt;/div&gt;&lt;div style=&quot;text-align: left ; font-size: 15px&quot;&gt;Д4 - Открыть двери&lt;/div&gt;" style="text;html=1;align=center;verticalAlign=middle;resizable=0;points=[];autosize=1;strokeColor=none;" parent="1" vertex="1">
          <mxGeometry x="103" y="2000" width="152" height="60" as="geometry" />
        </mxCell>
        <mxCell id="nhhz1PPNxXzfXSCWjOdO-109" value="" style="shape=table;html=1;whiteSpace=wrap;startSize=0;container=1;collapsible=0;childLayout=tableLayout;shadow=0;sketch=0;fillColor=#ffffff;gradientColor=none;verticalAlign=middle;" parent="1" vertex="1">
          <mxGeometry x="29" y="2134.79" width="300" height="201.214285714286" as="geometry" />
        </mxCell>
        <mxCell id="nhhz1PPNxXzfXSCWjOdO-110" value="" style="shape=partialRectangle;html=1;whiteSpace=wrap;collapsible=0;dropTarget=0;pointerEvents=0;fillColor=none;top=0;left=0;bottom=0;right=0;points=[[0,0.5],[1,0.5]];portConstraint=eastwest;" parent="nhhz1PPNxXzfXSCWjOdO-109" vertex="1">
          <mxGeometry width="300" height="41" as="geometry" />
        </mxCell>
        <mxCell id="nhhz1PPNxXzfXSCWjOdO-111" value="" style="shape=partialRectangle;html=1;whiteSpace=wrap;connectable=0;fillColor=none;top=0;left=0;bottom=0;right=0;overflow=hidden;" parent="nhhz1PPNxXzfXSCWjOdO-110" vertex="1">
          <mxGeometry width="60" height="41" as="geometry" />
        </mxCell>
        <mxCell id="nhhz1PPNxXzfXSCWjOdO-112" value="Д1" style="shape=partialRectangle;html=1;whiteSpace=wrap;connectable=0;fillColor=none;top=0;left=0;bottom=0;right=0;overflow=hidden;" parent="nhhz1PPNxXzfXSCWjOdO-110" vertex="1">
          <mxGeometry x="60" width="60" height="41" as="geometry" />
        </mxCell>
        <mxCell id="nhhz1PPNxXzfXSCWjOdO-113" value="Д2" style="shape=partialRectangle;html=1;whiteSpace=wrap;connectable=0;fillColor=none;top=0;left=0;bottom=0;right=0;overflow=hidden;" parent="nhhz1PPNxXzfXSCWjOdO-110" vertex="1">
          <mxGeometry x="120" width="60" height="41" as="geometry" />
        </mxCell>
        <mxCell id="nhhz1PPNxXzfXSCWjOdO-114" value="Д3" style="shape=partialRectangle;html=1;whiteSpace=wrap;connectable=0;fillColor=none;top=0;left=0;bottom=0;right=0;overflow=hidden;" parent="nhhz1PPNxXzfXSCWjOdO-110" vertex="1">
          <mxGeometry x="180" width="60" height="41" as="geometry" />
        </mxCell>
        <mxCell id="nhhz1PPNxXzfXSCWjOdO-115" value="Д4" style="shape=partialRectangle;html=1;whiteSpace=wrap;connectable=0;fillColor=none;top=0;left=0;bottom=0;right=0;overflow=hidden;" parent="nhhz1PPNxXzfXSCWjOdO-110" vertex="1">
          <mxGeometry x="240" width="60" height="41" as="geometry" />
        </mxCell>
        <mxCell id="nhhz1PPNxXzfXSCWjOdO-116" value="" style="shape=partialRectangle;html=1;whiteSpace=wrap;collapsible=0;dropTarget=0;pointerEvents=0;fillColor=none;top=0;left=0;bottom=0;right=0;points=[[0,0.5],[1,0.5]];portConstraint=eastwest;" parent="nhhz1PPNxXzfXSCWjOdO-109" vertex="1">
          <mxGeometry y="41" width="300" height="40" as="geometry" />
        </mxCell>
        <mxCell id="nhhz1PPNxXzfXSCWjOdO-117" value="1" style="shape=partialRectangle;html=1;whiteSpace=wrap;connectable=0;fillColor=none;top=0;left=0;bottom=0;right=0;overflow=hidden;" parent="nhhz1PPNxXzfXSCWjOdO-116" vertex="1">
          <mxGeometry width="60" height="40" as="geometry" />
        </mxCell>
        <mxCell id="nhhz1PPNxXzfXSCWjOdO-118" value="2" style="shape=partialRectangle;html=1;whiteSpace=wrap;connectable=0;fillColor=#f5f5f5;top=0;left=0;bottom=0;right=0;overflow=hidden;strokeColor=#666666;fontColor=#333333;" parent="nhhz1PPNxXzfXSCWjOdO-116" vertex="1">
          <mxGeometry x="60" width="60" height="40" as="geometry" />
        </mxCell>
        <mxCell id="nhhz1PPNxXzfXSCWjOdO-119" value="х" style="shape=partialRectangle;html=1;whiteSpace=wrap;connectable=0;fillColor=#f5f5f5;top=0;left=0;bottom=0;right=0;overflow=hidden;strokeColor=#666666;fontColor=#333333;" parent="nhhz1PPNxXzfXSCWjOdO-116" vertex="1">
          <mxGeometry x="120" width="60" height="40" as="geometry" />
        </mxCell>
        <mxCell id="nhhz1PPNxXzfXSCWjOdO-120" value="х" style="shape=partialRectangle;html=1;whiteSpace=wrap;connectable=0;fillColor=#f5f5f5;top=0;left=0;bottom=0;right=0;overflow=hidden;strokeColor=#666666;fontColor=#333333;" parent="nhhz1PPNxXzfXSCWjOdO-116" vertex="1">
          <mxGeometry x="180" width="60" height="40" as="geometry" />
        </mxCell>
        <mxCell id="nhhz1PPNxXzfXSCWjOdO-121" value="-" style="shape=partialRectangle;html=1;whiteSpace=wrap;connectable=0;fillColor=#f5f5f5;top=0;left=0;bottom=0;right=0;overflow=hidden;strokeColor=#666666;fontColor=#333333;" parent="nhhz1PPNxXzfXSCWjOdO-116" vertex="1">
          <mxGeometry x="240" width="60" height="40" as="geometry" />
        </mxCell>
        <mxCell id="nhhz1PPNxXzfXSCWjOdO-122" value="" style="shape=partialRectangle;html=1;whiteSpace=wrap;collapsible=0;dropTarget=0;pointerEvents=0;fillColor=none;top=0;left=0;bottom=0;right=0;points=[[0,0.5],[1,0.5]];portConstraint=eastwest;" parent="nhhz1PPNxXzfXSCWjOdO-109" vertex="1">
          <mxGeometry y="81" width="300" height="40" as="geometry" />
        </mxCell>
        <mxCell id="nhhz1PPNxXzfXSCWjOdO-123" value="2" style="shape=partialRectangle;html=1;whiteSpace=wrap;connectable=0;fillColor=none;top=0;left=0;bottom=0;right=0;overflow=hidden;" parent="nhhz1PPNxXzfXSCWjOdO-122" vertex="1">
          <mxGeometry width="60" height="40" as="geometry" />
        </mxCell>
        <mxCell id="nhhz1PPNxXzfXSCWjOdO-124" value="-" style="shape=partialRectangle;html=1;whiteSpace=wrap;connectable=0;fillColor=#f5f5f5;top=0;left=0;bottom=0;right=0;overflow=hidden;strokeColor=#666666;fontColor=#333333;" parent="nhhz1PPNxXzfXSCWjOdO-122" vertex="1">
          <mxGeometry x="60" width="60" height="40" as="geometry" />
        </mxCell>
        <mxCell id="nhhz1PPNxXzfXSCWjOdO-125" value="3" style="shape=partialRectangle;html=1;whiteSpace=wrap;connectable=0;fillColor=#f5f5f5;top=0;left=0;bottom=0;right=0;overflow=hidden;strokeColor=#666666;fontColor=#333333;" parent="nhhz1PPNxXzfXSCWjOdO-122" vertex="1">
          <mxGeometry x="120" width="60" height="40" as="geometry" />
        </mxCell>
        <mxCell id="nhhz1PPNxXzfXSCWjOdO-126" value="х" style="shape=partialRectangle;html=1;whiteSpace=wrap;connectable=0;fillColor=#f5f5f5;top=0;left=0;bottom=0;right=0;overflow=hidden;strokeColor=#666666;fontColor=#333333;" parent="nhhz1PPNxXzfXSCWjOdO-122" vertex="1">
          <mxGeometry x="180" width="60" height="40" as="geometry" />
        </mxCell>
        <mxCell id="nhhz1PPNxXzfXSCWjOdO-127" value="х" style="shape=partialRectangle;html=1;whiteSpace=wrap;connectable=0;fillColor=#f5f5f5;top=0;left=0;bottom=0;right=0;overflow=hidden;strokeColor=#666666;fontColor=#333333;" parent="nhhz1PPNxXzfXSCWjOdO-122" vertex="1">
          <mxGeometry x="240" width="60" height="40" as="geometry" />
        </mxCell>
        <mxCell id="nhhz1PPNxXzfXSCWjOdO-128" style="shape=partialRectangle;html=1;whiteSpace=wrap;collapsible=0;dropTarget=0;pointerEvents=0;fillColor=none;top=0;left=0;bottom=0;right=0;points=[[0,0.5],[1,0.5]];portConstraint=eastwest;" parent="nhhz1PPNxXzfXSCWjOdO-109" vertex="1">
          <mxGeometry y="121" width="300" height="40" as="geometry" />
        </mxCell>
        <mxCell id="nhhz1PPNxXzfXSCWjOdO-129" value="3" style="shape=partialRectangle;html=1;whiteSpace=wrap;connectable=0;fillColor=none;top=0;left=0;bottom=0;right=0;overflow=hidden;" parent="nhhz1PPNxXzfXSCWjOdO-128" vertex="1">
          <mxGeometry width="60" height="40" as="geometry" />
        </mxCell>
        <mxCell id="nhhz1PPNxXzfXSCWjOdO-130" value="х" style="shape=partialRectangle;html=1;whiteSpace=wrap;connectable=0;fillColor=#f5f5f5;top=0;left=0;bottom=0;right=0;overflow=hidden;strokeColor=#666666;fontColor=#333333;" parent="nhhz1PPNxXzfXSCWjOdO-128" vertex="1">
          <mxGeometry x="60" width="60" height="40" as="geometry" />
        </mxCell>
        <mxCell id="nhhz1PPNxXzfXSCWjOdO-131" value="-" style="shape=partialRectangle;html=1;whiteSpace=wrap;connectable=0;fillColor=#f5f5f5;top=0;left=0;bottom=0;right=0;overflow=hidden;strokeColor=#666666;fontColor=#333333;" parent="nhhz1PPNxXzfXSCWjOdO-128" vertex="1">
          <mxGeometry x="120" width="60" height="40" as="geometry" />
        </mxCell>
        <mxCell id="nhhz1PPNxXzfXSCWjOdO-132" value="4" style="shape=partialRectangle;html=1;whiteSpace=wrap;connectable=0;fillColor=#f5f5f5;top=0;left=0;bottom=0;right=0;overflow=hidden;strokeColor=#666666;fontColor=#333333;" parent="nhhz1PPNxXzfXSCWjOdO-128" vertex="1">
          <mxGeometry x="180" width="60" height="40" as="geometry" />
        </mxCell>
        <mxCell id="nhhz1PPNxXzfXSCWjOdO-133" value="-" style="shape=partialRectangle;html=1;whiteSpace=wrap;connectable=0;fillColor=#f5f5f5;top=0;left=0;bottom=0;right=0;overflow=hidden;strokeColor=#666666;fontColor=#333333;" parent="nhhz1PPNxXzfXSCWjOdO-128" vertex="1">
          <mxGeometry x="240" width="60" height="40" as="geometry" />
        </mxCell>
        <mxCell id="nhhz1PPNxXzfXSCWjOdO-134" style="shape=partialRectangle;html=1;whiteSpace=wrap;collapsible=0;dropTarget=0;pointerEvents=0;fillColor=none;top=0;left=0;bottom=0;right=0;points=[[0,0.5],[1,0.5]];portConstraint=eastwest;" parent="nhhz1PPNxXzfXSCWjOdO-109" vertex="1">
          <mxGeometry y="161" width="300" height="40" as="geometry" />
        </mxCell>
        <mxCell id="nhhz1PPNxXzfXSCWjOdO-135" value="4" style="shape=partialRectangle;html=1;whiteSpace=wrap;connectable=0;fillColor=none;top=0;left=0;bottom=0;right=0;overflow=hidden;" parent="nhhz1PPNxXzfXSCWjOdO-134" vertex="1">
          <mxGeometry width="60" height="40" as="geometry" />
        </mxCell>
        <mxCell id="nhhz1PPNxXzfXSCWjOdO-136" value="х" style="shape=partialRectangle;html=1;whiteSpace=wrap;connectable=0;fillColor=#f5f5f5;top=0;left=0;bottom=0;right=0;overflow=hidden;strokeColor=#666666;fontColor=#333333;" parent="nhhz1PPNxXzfXSCWjOdO-134" vertex="1">
          <mxGeometry x="60" width="60" height="40" as="geometry" />
        </mxCell>
        <mxCell id="nhhz1PPNxXzfXSCWjOdO-137" value="х" style="shape=partialRectangle;html=1;whiteSpace=wrap;connectable=0;fillColor=#f5f5f5;top=0;left=0;bottom=0;right=0;overflow=hidden;strokeColor=#666666;fontColor=#333333;" parent="nhhz1PPNxXzfXSCWjOdO-134" vertex="1">
          <mxGeometry x="120" width="60" height="40" as="geometry" />
        </mxCell>
        <mxCell id="nhhz1PPNxXzfXSCWjOdO-138" value="-" style="shape=partialRectangle;html=1;whiteSpace=wrap;connectable=0;fillColor=#f5f5f5;top=0;left=0;bottom=0;right=0;overflow=hidden;strokeColor=#666666;fontColor=#333333;" parent="nhhz1PPNxXzfXSCWjOdO-134" vertex="1">
          <mxGeometry x="180" width="60" height="40" as="geometry" />
        </mxCell>
        <mxCell id="nhhz1PPNxXzfXSCWjOdO-139" value="1" style="shape=partialRectangle;html=1;whiteSpace=wrap;connectable=0;fillColor=#f5f5f5;top=0;left=0;bottom=0;right=0;overflow=hidden;strokeColor=#666666;fontColor=#333333;" parent="nhhz1PPNxXzfXSCWjOdO-134" vertex="1">
          <mxGeometry x="240" width="60" height="40" as="geometry" />
        </mxCell>
        <mxCell id="nhhz1PPNxXzfXSCWjOdO-140" value="&lt;font style=&quot;font-size: 17px&quot;&gt;&lt;b&gt;Табло&lt;/b&gt;&lt;/font&gt;" style="text;html=1;strokeColor=none;fillColor=none;align=center;verticalAlign=middle;whiteSpace=wrap;rounded=0;" parent="1" vertex="1">
          <mxGeometry x="-354" y="2440" width="320" height="20" as="geometry" />
        </mxCell>
        <mxCell id="nhhz1PPNxXzfXSCWjOdO-141" style="edgeStyle=orthogonalEdgeStyle;rounded=0;sketch=0;jumpStyle=arc;orthogonalLoop=1;jettySize=auto;html=1;exitX=0.5;exitY=0;exitDx=0;exitDy=0;entryX=0.5;entryY=0;entryDx=0;entryDy=0;shadow=0;startArrow=none;startFill=0;" parent="1" source="nhhz1PPNxXzfXSCWjOdO-143" target="nhhz1PPNxXzfXSCWjOdO-146" edge="1">
          <mxGeometry relative="1" as="geometry" />
        </mxCell>
        <mxCell id="nhhz1PPNxXzfXSCWjOdO-142" value="Т1" style="edgeLabel;html=1;align=center;verticalAlign=middle;resizable=0;points=[];" parent="nhhz1PPNxXzfXSCWjOdO-141" vertex="1" connectable="0">
          <mxGeometry x="-0.0446" y="1" relative="1" as="geometry">
            <mxPoint x="6" y="-1" as="offset" />
          </mxGeometry>
        </mxCell>
        <mxCell id="nhhz1PPNxXzfXSCWjOdO-143" value="Ожидание" style="rounded=0;whiteSpace=wrap;html=1;" parent="1" vertex="1">
          <mxGeometry x="-376" y="2529" width="120" height="60" as="geometry" />
        </mxCell>
        <mxCell id="nhhz1PPNxXzfXSCWjOdO-144" style="edgeStyle=orthogonalEdgeStyle;rounded=0;sketch=0;jumpStyle=arc;orthogonalLoop=1;jettySize=auto;html=1;exitX=0.5;exitY=1;exitDx=0;exitDy=0;entryX=0.5;entryY=1;entryDx=0;entryDy=0;shadow=0;startArrow=none;startFill=0;" parent="1" source="nhhz1PPNxXzfXSCWjOdO-146" target="nhhz1PPNxXzfXSCWjOdO-143" edge="1">
          <mxGeometry relative="1" as="geometry" />
        </mxCell>
        <mxCell id="nhhz1PPNxXzfXSCWjOdO-145" value="Т2" style="edgeLabel;html=1;align=center;verticalAlign=middle;resizable=0;points=[];" parent="nhhz1PPNxXzfXSCWjOdO-144" vertex="1" connectable="0">
          <mxGeometry x="-0.024" y="-1" relative="1" as="geometry">
            <mxPoint x="-1" as="offset" />
          </mxGeometry>
        </mxCell>
        <mxCell id="nhhz1PPNxXzfXSCWjOdO-146" value="Отображение" style="rounded=0;whiteSpace=wrap;html=1;" parent="1" vertex="1">
          <mxGeometry x="-166" y="2529" width="120" height="60" as="geometry" />
        </mxCell>
        <mxCell id="nhhz1PPNxXzfXSCWjOdO-147" value="&lt;font style=&quot;font-size: 15px&quot;&gt;Т1 - Загрузить текст&lt;br&gt;Т2 - Очистить табло&lt;/font&gt;" style="text;html=1;align=left;verticalAlign=middle;resizable=0;points=[];autosize=1;strokeColor=none;" parent="1" vertex="1">
          <mxGeometry x="-3" y="2413" width="156" height="34" as="geometry" />
        </mxCell>
        <mxCell id="nhhz1PPNxXzfXSCWjOdO-148" value="" style="shape=table;html=1;whiteSpace=wrap;startSize=0;container=1;collapsible=0;childLayout=tableLayout;shadow=0;sketch=0;fillColor=#ffffff;gradientColor=none;verticalAlign=middle;" parent="1" vertex="1">
          <mxGeometry x="29" y="2499" width="180" height="120" as="geometry" />
        </mxCell>
        <mxCell id="nhhz1PPNxXzfXSCWjOdO-149" value="" style="shape=partialRectangle;html=1;whiteSpace=wrap;collapsible=0;dropTarget=0;pointerEvents=0;fillColor=none;top=0;left=0;bottom=0;right=0;points=[[0,0.5],[1,0.5]];portConstraint=eastwest;" parent="nhhz1PPNxXzfXSCWjOdO-148" vertex="1">
          <mxGeometry width="180" height="40" as="geometry" />
        </mxCell>
        <mxCell id="nhhz1PPNxXzfXSCWjOdO-150" value="" style="shape=partialRectangle;html=1;whiteSpace=wrap;connectable=0;fillColor=none;top=0;left=0;bottom=0;right=0;overflow=hidden;" parent="nhhz1PPNxXzfXSCWjOdO-149" vertex="1">
          <mxGeometry width="60" height="40" as="geometry" />
        </mxCell>
        <mxCell id="nhhz1PPNxXzfXSCWjOdO-151" value="T1" style="shape=partialRectangle;html=1;whiteSpace=wrap;connectable=0;fillColor=none;top=0;left=0;bottom=0;right=0;overflow=hidden;" parent="nhhz1PPNxXzfXSCWjOdO-149" vertex="1">
          <mxGeometry x="60" width="60" height="40" as="geometry" />
        </mxCell>
        <mxCell id="nhhz1PPNxXzfXSCWjOdO-152" value="T2" style="shape=partialRectangle;html=1;whiteSpace=wrap;connectable=0;fillColor=none;top=0;left=0;bottom=0;right=0;overflow=hidden;" parent="nhhz1PPNxXzfXSCWjOdO-149" vertex="1">
          <mxGeometry x="120" width="60" height="40" as="geometry" />
        </mxCell>
        <mxCell id="nhhz1PPNxXzfXSCWjOdO-153" value="" style="shape=partialRectangle;html=1;whiteSpace=wrap;collapsible=0;dropTarget=0;pointerEvents=0;fillColor=none;top=0;left=0;bottom=0;right=0;points=[[0,0.5],[1,0.5]];portConstraint=eastwest;" parent="nhhz1PPNxXzfXSCWjOdO-148" vertex="1">
          <mxGeometry y="40" width="180" height="40" as="geometry" />
        </mxCell>
        <mxCell id="nhhz1PPNxXzfXSCWjOdO-154" value="1" style="shape=partialRectangle;html=1;whiteSpace=wrap;connectable=0;fillColor=none;top=0;left=0;bottom=0;right=0;overflow=hidden;" parent="nhhz1PPNxXzfXSCWjOdO-153" vertex="1">
          <mxGeometry width="60" height="40" as="geometry" />
        </mxCell>
        <mxCell id="nhhz1PPNxXzfXSCWjOdO-155" value="2" style="shape=partialRectangle;html=1;whiteSpace=wrap;connectable=0;fillColor=#f5f5f5;top=0;left=0;bottom=0;right=0;overflow=hidden;strokeColor=#666666;fontColor=#333333;" parent="nhhz1PPNxXzfXSCWjOdO-153" vertex="1">
          <mxGeometry x="60" width="60" height="40" as="geometry" />
        </mxCell>
        <mxCell id="nhhz1PPNxXzfXSCWjOdO-156" value="-" style="shape=partialRectangle;html=1;whiteSpace=wrap;connectable=0;fillColor=#f5f5f5;top=0;left=0;bottom=0;right=0;overflow=hidden;strokeColor=#666666;fontColor=#333333;" parent="nhhz1PPNxXzfXSCWjOdO-153" vertex="1">
          <mxGeometry x="120" width="60" height="40" as="geometry" />
        </mxCell>
        <mxCell id="nhhz1PPNxXzfXSCWjOdO-157" value="" style="shape=partialRectangle;html=1;whiteSpace=wrap;collapsible=0;dropTarget=0;pointerEvents=0;fillColor=none;top=0;left=0;bottom=0;right=0;points=[[0,0.5],[1,0.5]];portConstraint=eastwest;" parent="nhhz1PPNxXzfXSCWjOdO-148" vertex="1">
          <mxGeometry y="80" width="180" height="40" as="geometry" />
        </mxCell>
        <mxCell id="nhhz1PPNxXzfXSCWjOdO-158" value="2" style="shape=partialRectangle;html=1;whiteSpace=wrap;connectable=0;fillColor=none;top=0;left=0;bottom=0;right=0;overflow=hidden;" parent="nhhz1PPNxXzfXSCWjOdO-157" vertex="1">
          <mxGeometry width="60" height="40" as="geometry" />
        </mxCell>
        <mxCell id="nhhz1PPNxXzfXSCWjOdO-159" value="-" style="shape=partialRectangle;html=1;whiteSpace=wrap;connectable=0;fillColor=#f5f5f5;top=0;left=0;bottom=0;right=0;overflow=hidden;strokeColor=#666666;fontColor=#333333;" parent="nhhz1PPNxXzfXSCWjOdO-157" vertex="1">
          <mxGeometry x="60" width="60" height="40" as="geometry" />
        </mxCell>
        <mxCell id="nhhz1PPNxXzfXSCWjOdO-160" value="1" style="shape=partialRectangle;html=1;whiteSpace=wrap;connectable=0;fillColor=#f5f5f5;top=0;left=0;bottom=0;right=0;overflow=hidden;strokeColor=#666666;fontColor=#333333;" parent="nhhz1PPNxXzfXSCWjOdO-157" vertex="1">
          <mxGeometry x="120" width="60" height="40" as="geometry" />
        </mxCell>
        <mxCell id="nhhz1PPNxXzfXSCWjOdO-161" value="&lt;span style=&quot;font-size: 17px&quot;&gt;&lt;b&gt;Светодиод&lt;/b&gt;&lt;/span&gt;" style="text;html=1;strokeColor=none;fillColor=none;align=center;verticalAlign=middle;whiteSpace=wrap;rounded=0;" parent="1" vertex="1">
          <mxGeometry x="-343" y="2827" width="320" height="20" as="geometry" />
        </mxCell>
        <mxCell id="nhhz1PPNxXzfXSCWjOdO-162" style="edgeStyle=orthogonalEdgeStyle;rounded=0;sketch=0;jumpStyle=arc;orthogonalLoop=1;jettySize=auto;html=1;exitX=0.5;exitY=0;exitDx=0;exitDy=0;entryX=0.5;entryY=0;entryDx=0;entryDy=0;shadow=0;startArrow=none;startFill=0;" parent="1" source="nhhz1PPNxXzfXSCWjOdO-164" target="nhhz1PPNxXzfXSCWjOdO-167" edge="1">
          <mxGeometry relative="1" as="geometry" />
        </mxCell>
        <mxCell id="nhhz1PPNxXzfXSCWjOdO-163" value="С1" style="edgeLabel;html=1;align=center;verticalAlign=middle;resizable=0;points=[];" parent="nhhz1PPNxXzfXSCWjOdO-162" vertex="1" connectable="0">
          <mxGeometry x="-0.0446" y="1" relative="1" as="geometry">
            <mxPoint x="6" y="-1" as="offset" />
          </mxGeometry>
        </mxCell>
        <mxCell id="nhhz1PPNxXzfXSCWjOdO-164" value="Зеленый свет" style="rounded=0;whiteSpace=wrap;html=1;" parent="1" vertex="1">
          <mxGeometry x="-365" y="2916" width="120" height="60" as="geometry" />
        </mxCell>
        <mxCell id="nhhz1PPNxXzfXSCWjOdO-165" style="edgeStyle=orthogonalEdgeStyle;rounded=0;sketch=0;jumpStyle=arc;orthogonalLoop=1;jettySize=auto;html=1;exitX=0.5;exitY=1;exitDx=0;exitDy=0;entryX=0.5;entryY=1;entryDx=0;entryDy=0;shadow=0;startArrow=none;startFill=0;" parent="1" source="nhhz1PPNxXzfXSCWjOdO-167" target="nhhz1PPNxXzfXSCWjOdO-164" edge="1">
          <mxGeometry relative="1" as="geometry" />
        </mxCell>
        <mxCell id="nhhz1PPNxXzfXSCWjOdO-166" value="С2" style="edgeLabel;html=1;align=center;verticalAlign=middle;resizable=0;points=[];" parent="nhhz1PPNxXzfXSCWjOdO-165" vertex="1" connectable="0">
          <mxGeometry x="-0.024" y="-1" relative="1" as="geometry">
            <mxPoint x="-1" as="offset" />
          </mxGeometry>
        </mxCell>
        <mxCell id="nhhz1PPNxXzfXSCWjOdO-167" value="Красный свет" style="rounded=0;whiteSpace=wrap;html=1;" parent="1" vertex="1">
          <mxGeometry x="-155" y="2916" width="120" height="60" as="geometry" />
        </mxCell>
        <mxCell id="nhhz1PPNxXzfXSCWjOdO-168" value="&lt;span style=&quot;font-size: 15px&quot;&gt;С1 - Включить красный свет&lt;br&gt;С2 - Включить зеленый свет&lt;br&gt;&lt;/span&gt;" style="text;html=1;align=left;verticalAlign=middle;resizable=0;points=[];autosize=1;strokeColor=none;" parent="1" vertex="1">
          <mxGeometry x="-3" y="2831" width="213" height="34" as="geometry" />
        </mxCell>
        <mxCell id="nhhz1PPNxXzfXSCWjOdO-169" value="" style="shape=table;html=1;whiteSpace=wrap;startSize=0;container=1;collapsible=0;childLayout=tableLayout;shadow=0;sketch=0;fillColor=#ffffff;gradientColor=none;verticalAlign=middle;" parent="1" vertex="1">
          <mxGeometry x="29" y="2922" width="180" height="120" as="geometry" />
        </mxCell>
        <mxCell id="nhhz1PPNxXzfXSCWjOdO-170" value="" style="shape=partialRectangle;html=1;whiteSpace=wrap;collapsible=0;dropTarget=0;pointerEvents=0;fillColor=none;top=0;left=0;bottom=0;right=0;points=[[0,0.5],[1,0.5]];portConstraint=eastwest;" parent="nhhz1PPNxXzfXSCWjOdO-169" vertex="1">
          <mxGeometry width="180" height="40" as="geometry" />
        </mxCell>
        <mxCell id="nhhz1PPNxXzfXSCWjOdO-171" value="" style="shape=partialRectangle;html=1;whiteSpace=wrap;connectable=0;fillColor=none;top=0;left=0;bottom=0;right=0;overflow=hidden;" parent="nhhz1PPNxXzfXSCWjOdO-170" vertex="1">
          <mxGeometry width="60" height="40" as="geometry" />
        </mxCell>
        <mxCell id="nhhz1PPNxXzfXSCWjOdO-172" value="С1" style="shape=partialRectangle;html=1;whiteSpace=wrap;connectable=0;fillColor=none;top=0;left=0;bottom=0;right=0;overflow=hidden;" parent="nhhz1PPNxXzfXSCWjOdO-170" vertex="1">
          <mxGeometry x="60" width="60" height="40" as="geometry" />
        </mxCell>
        <mxCell id="nhhz1PPNxXzfXSCWjOdO-173" value="С2" style="shape=partialRectangle;html=1;whiteSpace=wrap;connectable=0;fillColor=none;top=0;left=0;bottom=0;right=0;overflow=hidden;" parent="nhhz1PPNxXzfXSCWjOdO-170" vertex="1">
          <mxGeometry x="120" width="60" height="40" as="geometry" />
        </mxCell>
        <mxCell id="nhhz1PPNxXzfXSCWjOdO-174" value="" style="shape=partialRectangle;html=1;whiteSpace=wrap;collapsible=0;dropTarget=0;pointerEvents=0;fillColor=none;top=0;left=0;bottom=0;right=0;points=[[0,0.5],[1,0.5]];portConstraint=eastwest;" parent="nhhz1PPNxXzfXSCWjOdO-169" vertex="1">
          <mxGeometry y="40" width="180" height="40" as="geometry" />
        </mxCell>
        <mxCell id="nhhz1PPNxXzfXSCWjOdO-175" value="1" style="shape=partialRectangle;html=1;whiteSpace=wrap;connectable=0;fillColor=none;top=0;left=0;bottom=0;right=0;overflow=hidden;" parent="nhhz1PPNxXzfXSCWjOdO-174" vertex="1">
          <mxGeometry width="60" height="40" as="geometry" />
        </mxCell>
        <mxCell id="nhhz1PPNxXzfXSCWjOdO-176" value="-" style="shape=partialRectangle;html=1;whiteSpace=wrap;connectable=0;fillColor=#f5f5f5;top=0;left=0;bottom=0;right=0;overflow=hidden;strokeColor=#666666;fontColor=#333333;" parent="nhhz1PPNxXzfXSCWjOdO-174" vertex="1">
          <mxGeometry x="60" width="60" height="40" as="geometry" />
        </mxCell>
        <mxCell id="nhhz1PPNxXzfXSCWjOdO-177" value="1" style="shape=partialRectangle;html=1;whiteSpace=wrap;connectable=0;fillColor=#f5f5f5;top=0;left=0;bottom=0;right=0;overflow=hidden;strokeColor=#666666;fontColor=#333333;" parent="nhhz1PPNxXzfXSCWjOdO-174" vertex="1">
          <mxGeometry x="120" width="60" height="40" as="geometry" />
        </mxCell>
        <mxCell id="nhhz1PPNxXzfXSCWjOdO-178" value="" style="shape=partialRectangle;html=1;whiteSpace=wrap;collapsible=0;dropTarget=0;pointerEvents=0;fillColor=none;top=0;left=0;bottom=0;right=0;points=[[0,0.5],[1,0.5]];portConstraint=eastwest;" parent="nhhz1PPNxXzfXSCWjOdO-169" vertex="1">
          <mxGeometry y="80" width="180" height="40" as="geometry" />
        </mxCell>
        <mxCell id="nhhz1PPNxXzfXSCWjOdO-179" value="2" style="shape=partialRectangle;html=1;whiteSpace=wrap;connectable=0;fillColor=none;top=0;left=0;bottom=0;right=0;overflow=hidden;" parent="nhhz1PPNxXzfXSCWjOdO-178" vertex="1">
          <mxGeometry width="60" height="40" as="geometry" />
        </mxCell>
        <mxCell id="nhhz1PPNxXzfXSCWjOdO-180" value="2" style="shape=partialRectangle;html=1;whiteSpace=wrap;connectable=0;fillColor=#f5f5f5;top=0;left=0;bottom=0;right=0;overflow=hidden;strokeColor=#666666;fontColor=#333333;" parent="nhhz1PPNxXzfXSCWjOdO-178" vertex="1">
          <mxGeometry x="60" width="60" height="40" as="geometry" />
        </mxCell>
        <mxCell id="nhhz1PPNxXzfXSCWjOdO-181" value="-" style="shape=partialRectangle;html=1;whiteSpace=wrap;connectable=0;fillColor=#f5f5f5;top=0;left=0;bottom=0;right=0;overflow=hidden;strokeColor=#666666;fontColor=#333333;" parent="nhhz1PPNxXzfXSCWjOdO-178" vertex="1">
          <mxGeometry x="120" width="60" height="40" as="geometry" />
        </mxCell>
        <mxCell id="nhhz1PPNxXzfXSCWjOdO-182" value="&lt;span style=&quot;font-size: 17px&quot;&gt;&lt;b&gt;МВО&lt;/b&gt;&lt;/span&gt;" style="text;html=1;strokeColor=none;fillColor=none;align=center;verticalAlign=middle;whiteSpace=wrap;rounded=0;" parent="1" vertex="1">
          <mxGeometry x="-203.53" y="3119" width="320" height="20" as="geometry" />
        </mxCell>
        <mxCell id="nhhz1PPNxXzfXSCWjOdO-183" style="edgeStyle=orthogonalEdgeStyle;rounded=0;sketch=0;jumpStyle=arc;orthogonalLoop=1;jettySize=auto;html=1;exitX=0;exitY=0.5;exitDx=0;exitDy=0;entryX=0.5;entryY=0;entryDx=0;entryDy=0;shadow=0;startArrow=none;startFill=0;" parent="1" source="nhhz1PPNxXzfXSCWjOdO-186" target="nhhz1PPNxXzfXSCWjOdO-198" edge="1">
          <mxGeometry relative="1" as="geometry" />
        </mxCell>
        <mxCell id="nhhz1PPNxXzfXSCWjOdO-184" value="Д4" style="edgeLabel;html=1;align=center;verticalAlign=middle;resizable=0;points=[];" parent="nhhz1PPNxXzfXSCWjOdO-183" vertex="1" connectable="0">
          <mxGeometry x="-0.1043" y="-2" relative="1" as="geometry">
            <mxPoint as="offset" />
          </mxGeometry>
        </mxCell>
        <mxCell id="nhhz1PPNxXzfXSCWjOdO-185" style="edgeStyle=orthogonalEdgeStyle;rounded=0;sketch=0;jumpStyle=arc;orthogonalLoop=1;jettySize=auto;html=1;exitX=0.5;exitY=0;exitDx=0;exitDy=0;shadow=0;startArrow=classic;startFill=1;endArrow=none;endFill=0;" parent="1" source="nhhz1PPNxXzfXSCWjOdO-186" edge="1">
          <mxGeometry relative="1" as="geometry">
            <mxPoint x="-43.47117647058826" y="3154.823529411765" as="targetPoint" />
          </mxGeometry>
        </mxCell>
        <mxCell id="nhhz1PPNxXzfXSCWjOdO-186" value="Турникет" style="ellipse;whiteSpace=wrap;html=1;shadow=0;sketch=0;fillColor=#ffffff;gradientColor=none;verticalAlign=middle;" parent="1" vertex="1">
          <mxGeometry x="-103.52999999999997" y="3186" width="120" height="80" as="geometry" />
        </mxCell>
        <mxCell id="nhhz1PPNxXzfXSCWjOdO-187" value="Табло" style="ellipse;whiteSpace=wrap;html=1;shadow=0;sketch=0;fillColor=#ffffff;gradientColor=none;verticalAlign=middle;" parent="1" vertex="1">
          <mxGeometry x="15.470000000000027" y="3385" width="120" height="80" as="geometry" />
        </mxCell>
        <mxCell id="nhhz1PPNxXzfXSCWjOdO-188" style="edgeStyle=orthogonalEdgeStyle;rounded=0;sketch=0;jumpStyle=arc;orthogonalLoop=1;jettySize=auto;html=1;exitX=0.5;exitY=0;exitDx=0;exitDy=0;entryX=1;entryY=0.5;entryDx=0;entryDy=0;shadow=0;startArrow=none;startFill=0;" parent="1" source="nhhz1PPNxXzfXSCWjOdO-192" target="nhhz1PPNxXzfXSCWjOdO-186" edge="1">
          <mxGeometry relative="1" as="geometry" />
        </mxCell>
        <mxCell id="nhhz1PPNxXzfXSCWjOdO-189" value="Тр1" style="edgeLabel;html=1;align=center;verticalAlign=middle;resizable=0;points=[];" parent="nhhz1PPNxXzfXSCWjOdO-188" vertex="1" connectable="0">
          <mxGeometry x="-0.0232" y="1" relative="1" as="geometry">
            <mxPoint as="offset" />
          </mxGeometry>
        </mxCell>
        <mxCell id="nhhz1PPNxXzfXSCWjOdO-190" style="edgeStyle=orthogonalEdgeStyle;rounded=0;sketch=0;jumpStyle=arc;orthogonalLoop=1;jettySize=auto;html=1;exitX=0.5;exitY=1;exitDx=0;exitDy=0;entryX=0.5;entryY=0;entryDx=0;entryDy=0;shadow=0;startArrow=none;startFill=0;" parent="1" source="nhhz1PPNxXzfXSCWjOdO-192" target="nhhz1PPNxXzfXSCWjOdO-187" edge="1">
          <mxGeometry relative="1" as="geometry" />
        </mxCell>
        <mxCell id="nhhz1PPNxXzfXSCWjOdO-191" value="Т1" style="edgeLabel;html=1;align=center;verticalAlign=middle;resizable=0;points=[];" parent="nhhz1PPNxXzfXSCWjOdO-190" vertex="1" connectable="0">
          <mxGeometry x="-0.1252" y="1" relative="1" as="geometry">
            <mxPoint y="1" as="offset" />
          </mxGeometry>
        </mxCell>
        <mxCell id="nhhz1PPNxXzfXSCWjOdO-192" value="Валидатор" style="ellipse;whiteSpace=wrap;html=1;shadow=0;sketch=0;fillColor=#ffffff;gradientColor=none;verticalAlign=middle;" parent="1" vertex="1">
          <mxGeometry x="15.470000000000027" y="3266" width="120" height="80" as="geometry" />
        </mxCell>
        <mxCell id="nhhz1PPNxXzfXSCWjOdO-193" style="edgeStyle=orthogonalEdgeStyle;rounded=0;sketch=0;jumpStyle=arc;orthogonalLoop=1;jettySize=auto;html=1;exitX=0.5;exitY=1;exitDx=0;exitDy=0;entryX=1;entryY=0.5;entryDx=0;entryDy=0;shadow=0;startArrow=none;startFill=0;" parent="1" source="nhhz1PPNxXzfXSCWjOdO-198" target="nhhz1PPNxXzfXSCWjOdO-199" edge="1">
          <mxGeometry relative="1" as="geometry" />
        </mxCell>
        <mxCell id="nhhz1PPNxXzfXSCWjOdO-194" value="С1" style="edgeLabel;html=1;align=center;verticalAlign=middle;resizable=0;points=[];" parent="nhhz1PPNxXzfXSCWjOdO-193" vertex="1" connectable="0">
          <mxGeometry x="-0.0264" y="1" relative="1" as="geometry">
            <mxPoint as="offset" />
          </mxGeometry>
        </mxCell>
        <mxCell id="nhhz1PPNxXzfXSCWjOdO-195" style="edgeStyle=orthogonalEdgeStyle;rounded=0;sketch=0;jumpStyle=arc;orthogonalLoop=1;jettySize=auto;html=1;exitX=0.5;exitY=1;exitDx=0;exitDy=0;entryX=0;entryY=0.5;entryDx=0;entryDy=0;shadow=0;startArrow=none;startFill=0;" parent="1" source="nhhz1PPNxXzfXSCWjOdO-198" target="nhhz1PPNxXzfXSCWjOdO-199" edge="1">
          <mxGeometry relative="1" as="geometry" />
        </mxCell>
        <mxCell id="nhhz1PPNxXzfXSCWjOdO-196" value="С2" style="edgeLabel;html=1;align=center;verticalAlign=middle;resizable=0;points=[];" parent="nhhz1PPNxXzfXSCWjOdO-195" vertex="1" connectable="0">
          <mxGeometry x="-0.215" y="-3" relative="1" as="geometry">
            <mxPoint as="offset" />
          </mxGeometry>
        </mxCell>
        <mxCell id="nhhz1PPNxXzfXSCWjOdO-197" value="Тр2" style="edgeStyle=orthogonalEdgeStyle;rounded=0;sketch=0;jumpStyle=arc;orthogonalLoop=1;jettySize=auto;html=1;exitX=1;exitY=0.5;exitDx=0;exitDy=0;entryX=0.5;entryY=1;entryDx=0;entryDy=0;shadow=0;startArrow=none;startFill=0;" parent="1" source="nhhz1PPNxXzfXSCWjOdO-198" target="nhhz1PPNxXzfXSCWjOdO-186" edge="1">
          <mxGeometry relative="1" as="geometry" />
        </mxCell>
        <mxCell id="nhhz1PPNxXzfXSCWjOdO-198" value="Двери" style="ellipse;whiteSpace=wrap;html=1;shadow=0;sketch=0;fillColor=#ffffff;gradientColor=none;verticalAlign=middle;" parent="1" vertex="1">
          <mxGeometry x="-223.53" y="3271" width="120" height="80" as="geometry" />
        </mxCell>
        <mxCell id="nhhz1PPNxXzfXSCWjOdO-199" value="Светодиод" style="ellipse;whiteSpace=wrap;html=1;shadow=0;sketch=0;fillColor=#ffffff;gradientColor=none;verticalAlign=middle;" parent="1" vertex="1">
          <mxGeometry x="-223.53" y="3385" width="120" height="80" as="geometry" />
        </mxCell>
        <mxCell id="nhhz1PPNxXzfXSCWjOdO-200" value="&lt;span style=&quot;font-size: 17px&quot;&gt;&lt;b&gt;Канал управления&lt;/b&gt;&lt;/span&gt;" style="text;html=1;strokeColor=none;fillColor=none;align=center;verticalAlign=middle;whiteSpace=wrap;rounded=0;" parent="1" vertex="1">
          <mxGeometry x="-203.53" y="3974" width="320" height="20" as="geometry" />
        </mxCell>
        <mxCell id="nhhz1PPNxXzfXSCWjOdO-201" style="edgeStyle=orthogonalEdgeStyle;rounded=0;sketch=0;jumpStyle=arc;orthogonalLoop=1;jettySize=auto;html=1;exitX=0.5;exitY=1;exitDx=0;exitDy=0;entryX=0.5;entryY=0;entryDx=0;entryDy=0;shadow=0;startArrow=none;startFill=0;endArrow=classic;endFill=1;" parent="1" source="nhhz1PPNxXzfXSCWjOdO-202" target="nhhz1PPNxXzfXSCWjOdO-219" edge="1">
          <mxGeometry relative="1" as="geometry" />
        </mxCell>
        <mxCell id="nhhz1PPNxXzfXSCWjOdO-202" value="Ожидание" style="rounded=0;whiteSpace=wrap;html=1;shadow=0;sketch=0;fillColor=#ffffff;gradientColor=none;verticalAlign=middle;" parent="1" vertex="1">
          <mxGeometry x="-405" y="4085" width="120" height="60" as="geometry" />
        </mxCell>
        <mxCell id="nhhz1PPNxXzfXSCWjOdO-203" style="edgeStyle=orthogonalEdgeStyle;rounded=0;sketch=0;jumpStyle=arc;orthogonalLoop=1;jettySize=auto;html=1;exitX=0.5;exitY=1;exitDx=0;exitDy=0;entryX=0.5;entryY=0;entryDx=0;entryDy=0;shadow=0;startArrow=none;startFill=0;endArrow=classic;endFill=1;" parent="1" source="nhhz1PPNxXzfXSCWjOdO-204" target="nhhz1PPNxXzfXSCWjOdO-206" edge="1">
          <mxGeometry relative="1" as="geometry" />
        </mxCell>
        <mxCell id="nhhz1PPNxXzfXSCWjOdO-204" value="Ожидание" style="rounded=0;whiteSpace=wrap;html=1;shadow=0;sketch=0;fillColor=#ffffff;gradientColor=none;verticalAlign=middle;" parent="1" vertex="1">
          <mxGeometry x="-250" y="4085" width="120" height="60" as="geometry" />
        </mxCell>
        <mxCell id="nhhz1PPNxXzfXSCWjOdO-205" style="edgeStyle=orthogonalEdgeStyle;rounded=0;sketch=0;jumpStyle=arc;orthogonalLoop=1;jettySize=auto;html=1;exitX=0.5;exitY=1;exitDx=0;exitDy=0;entryX=0.5;entryY=0;entryDx=0;entryDy=0;shadow=0;startArrow=none;startFill=0;endArrow=classic;endFill=1;" parent="1" source="nhhz1PPNxXzfXSCWjOdO-206" target="nhhz1PPNxXzfXSCWjOdO-208" edge="1">
          <mxGeometry relative="1" as="geometry" />
        </mxCell>
        <mxCell id="nhhz1PPNxXzfXSCWjOdO-206" value="Считывание" style="rounded=0;whiteSpace=wrap;html=1;shadow=0;sketch=0;fillColor=#ffffff;gradientColor=none;verticalAlign=middle;" parent="1" vertex="1">
          <mxGeometry x="-250" y="4167" width="120" height="60" as="geometry" />
        </mxCell>
        <mxCell id="nhhz1PPNxXzfXSCWjOdO-207" style="edgeStyle=orthogonalEdgeStyle;rounded=0;sketch=0;jumpStyle=arc;orthogonalLoop=1;jettySize=auto;html=1;exitX=0.5;exitY=1;exitDx=0;exitDy=0;entryX=0.5;entryY=0;entryDx=0;entryDy=0;shadow=0;startArrow=none;startFill=0;endArrow=classic;endFill=1;" parent="1" source="nhhz1PPNxXzfXSCWjOdO-208" target="nhhz1PPNxXzfXSCWjOdO-210" edge="1">
          <mxGeometry relative="1" as="geometry" />
        </mxCell>
        <mxCell id="nhhz1PPNxXzfXSCWjOdO-208" value="Обработка" style="rounded=0;whiteSpace=wrap;html=1;shadow=0;sketch=0;fillColor=#ffffff;gradientColor=none;verticalAlign=middle;" parent="1" vertex="1">
          <mxGeometry x="-250" y="4249" width="120" height="60" as="geometry" />
        </mxCell>
        <mxCell id="nhhz1PPNxXzfXSCWjOdO-209" style="edgeStyle=orthogonalEdgeStyle;rounded=0;sketch=0;jumpStyle=arc;orthogonalLoop=1;jettySize=auto;html=1;exitX=0.5;exitY=1;exitDx=0;exitDy=0;entryX=0.5;entryY=0;entryDx=0;entryDy=0;shadow=0;startArrow=none;startFill=0;endArrow=classic;endFill=1;" parent="1" source="nhhz1PPNxXzfXSCWjOdO-210" target="nhhz1PPNxXzfXSCWjOdO-211" edge="1">
          <mxGeometry relative="1" as="geometry" />
        </mxCell>
        <mxCell id="nhhz1PPNxXzfXSCWjOdO-210" value="Списывание &lt;br&gt;денег" style="rounded=0;whiteSpace=wrap;html=1;shadow=0;sketch=0;fillColor=#ffffff;gradientColor=none;verticalAlign=middle;" parent="1" vertex="1">
          <mxGeometry x="-250" y="4331" width="120" height="60" as="geometry" />
        </mxCell>
        <mxCell id="nhhz1PPNxXzfXSCWjOdO-211" value="Ожидание" style="rounded=0;whiteSpace=wrap;html=1;shadow=0;sketch=0;fillColor=#ffffff;gradientColor=none;verticalAlign=middle;" parent="1" vertex="1">
          <mxGeometry x="-250" y="4413" width="120" height="60" as="geometry" />
        </mxCell>
        <mxCell id="nhhz1PPNxXzfXSCWjOdO-212" style="edgeStyle=orthogonalEdgeStyle;rounded=0;sketch=0;jumpStyle=arc;orthogonalLoop=1;jettySize=auto;html=1;exitX=0.5;exitY=1;exitDx=0;exitDy=0;entryX=0.5;entryY=0;entryDx=0;entryDy=0;shadow=0;startArrow=none;startFill=0;endArrow=classic;endFill=1;" parent="1" source="nhhz1PPNxXzfXSCWjOdO-213" target="nhhz1PPNxXzfXSCWjOdO-222" edge="1">
          <mxGeometry relative="1" as="geometry" />
        </mxCell>
        <mxCell id="nhhz1PPNxXzfXSCWjOdO-213" value="Ожидание" style="rounded=0;whiteSpace=wrap;html=1;shadow=0;sketch=0;fillColor=#ffffff;gradientColor=none;verticalAlign=middle;" parent="1" vertex="1">
          <mxGeometry x="-91" y="4085" width="120" height="60" as="geometry" />
        </mxCell>
        <mxCell id="nhhz1PPNxXzfXSCWjOdO-214" style="edgeStyle=orthogonalEdgeStyle;rounded=0;sketch=0;jumpStyle=arc;orthogonalLoop=1;jettySize=auto;html=1;exitX=0.5;exitY=1;exitDx=0;exitDy=0;entryX=0.5;entryY=0;entryDx=0;entryDy=0;shadow=0;startArrow=none;startFill=0;endArrow=classic;endFill=1;" parent="1" source="nhhz1PPNxXzfXSCWjOdO-215" target="nhhz1PPNxXzfXSCWjOdO-225" edge="1">
          <mxGeometry relative="1" as="geometry" />
        </mxCell>
        <mxCell id="nhhz1PPNxXzfXSCWjOdO-215" value="Закрыты" style="rounded=0;whiteSpace=wrap;html=1;shadow=0;sketch=0;fillColor=#ffffff;gradientColor=none;verticalAlign=middle;" parent="1" vertex="1">
          <mxGeometry x="76" y="4085" width="120" height="60" as="geometry" />
        </mxCell>
        <mxCell id="nhhz1PPNxXzfXSCWjOdO-216" style="edgeStyle=orthogonalEdgeStyle;rounded=0;sketch=0;jumpStyle=arc;orthogonalLoop=1;jettySize=auto;html=1;exitX=0.5;exitY=1;exitDx=0;exitDy=0;entryX=0.5;entryY=0;entryDx=0;entryDy=0;shadow=0;startArrow=none;startFill=0;endArrow=classic;endFill=1;" parent="1" source="nhhz1PPNxXzfXSCWjOdO-217" target="nhhz1PPNxXzfXSCWjOdO-232" edge="1">
          <mxGeometry relative="1" as="geometry" />
        </mxCell>
        <mxCell id="nhhz1PPNxXzfXSCWjOdO-217" value="Красный свет" style="rounded=0;whiteSpace=wrap;html=1;shadow=0;sketch=0;fillColor=#ffffff;gradientColor=none;verticalAlign=middle;" parent="1" vertex="1">
          <mxGeometry x="243" y="4085" width="120" height="60" as="geometry" />
        </mxCell>
        <mxCell id="nhhz1PPNxXzfXSCWjOdO-218" style="edgeStyle=orthogonalEdgeStyle;rounded=0;sketch=0;jumpStyle=arc;orthogonalLoop=1;jettySize=auto;html=1;exitX=0.5;exitY=1;exitDx=0;exitDy=0;entryX=0.5;entryY=0;entryDx=0;entryDy=0;shadow=0;startArrow=none;startFill=0;endArrow=classic;endFill=1;" parent="1" source="nhhz1PPNxXzfXSCWjOdO-219" target="nhhz1PPNxXzfXSCWjOdO-220" edge="1">
          <mxGeometry relative="1" as="geometry" />
        </mxCell>
        <mxCell id="nhhz1PPNxXzfXSCWjOdO-219" value="Пропуск &lt;br&gt;человека" style="rounded=0;whiteSpace=wrap;html=1;shadow=0;sketch=0;fillColor=#ffffff;gradientColor=none;verticalAlign=middle;" parent="1" vertex="1">
          <mxGeometry x="-405" y="4413" width="120" height="60" as="geometry" />
        </mxCell>
        <mxCell id="nhhz1PPNxXzfXSCWjOdO-220" value="Ожидание" style="rounded=0;whiteSpace=wrap;html=1;shadow=0;sketch=0;fillColor=#ffffff;gradientColor=none;verticalAlign=middle;" parent="1" vertex="1">
          <mxGeometry x="-405" y="4795" width="120" height="60" as="geometry" />
        </mxCell>
        <mxCell id="nhhz1PPNxXzfXSCWjOdO-221" style="edgeStyle=orthogonalEdgeStyle;rounded=0;sketch=0;jumpStyle=arc;orthogonalLoop=1;jettySize=auto;html=1;exitX=0.5;exitY=1;exitDx=0;exitDy=0;entryX=0.5;entryY=0;entryDx=0;entryDy=0;shadow=0;startArrow=none;startFill=0;endArrow=classic;endFill=1;" parent="1" source="nhhz1PPNxXzfXSCWjOdO-222" target="nhhz1PPNxXzfXSCWjOdO-223" edge="1">
          <mxGeometry relative="1" as="geometry" />
        </mxCell>
        <mxCell id="nhhz1PPNxXzfXSCWjOdO-222" value="Отображение" style="rounded=0;whiteSpace=wrap;html=1;shadow=0;sketch=0;fillColor=#ffffff;gradientColor=none;verticalAlign=middle;" parent="1" vertex="1">
          <mxGeometry x="-91" y="4561" width="120" height="60" as="geometry" />
        </mxCell>
        <mxCell id="nhhz1PPNxXzfXSCWjOdO-223" value="Ожидание" style="rounded=0;whiteSpace=wrap;html=1;shadow=0;sketch=0;fillColor=#ffffff;gradientColor=none;verticalAlign=middle;" parent="1" vertex="1">
          <mxGeometry x="-91" y="4643" width="120" height="60" as="geometry" />
        </mxCell>
        <mxCell id="nhhz1PPNxXzfXSCWjOdO-224" style="edgeStyle=orthogonalEdgeStyle;rounded=0;sketch=0;jumpStyle=arc;orthogonalLoop=1;jettySize=auto;html=1;exitX=0.5;exitY=1;exitDx=0;exitDy=0;entryX=0.5;entryY=0;entryDx=0;entryDy=0;shadow=0;startArrow=none;startFill=0;endArrow=classic;endFill=1;" parent="1" source="nhhz1PPNxXzfXSCWjOdO-225" target="nhhz1PPNxXzfXSCWjOdO-227" edge="1">
          <mxGeometry relative="1" as="geometry" />
        </mxCell>
        <mxCell id="nhhz1PPNxXzfXSCWjOdO-225" value="Открываются" style="rounded=0;whiteSpace=wrap;html=1;shadow=0;sketch=0;fillColor=#ffffff;gradientColor=none;verticalAlign=middle;" parent="1" vertex="1">
          <mxGeometry x="76" y="4561" width="120" height="60" as="geometry" />
        </mxCell>
        <mxCell id="nhhz1PPNxXzfXSCWjOdO-226" style="edgeStyle=orthogonalEdgeStyle;rounded=0;sketch=0;jumpStyle=arc;orthogonalLoop=1;jettySize=auto;html=1;exitX=0.5;exitY=1;exitDx=0;exitDy=0;entryX=0.5;entryY=0;entryDx=0;entryDy=0;shadow=0;startArrow=none;startFill=0;endArrow=classic;endFill=1;" parent="1" source="nhhz1PPNxXzfXSCWjOdO-227" target="nhhz1PPNxXzfXSCWjOdO-229" edge="1">
          <mxGeometry relative="1" as="geometry" />
        </mxCell>
        <mxCell id="nhhz1PPNxXzfXSCWjOdO-227" value="Открыты" style="rounded=0;whiteSpace=wrap;html=1;shadow=0;sketch=0;fillColor=#ffffff;gradientColor=none;verticalAlign=middle;" parent="1" vertex="1">
          <mxGeometry x="76" y="4643" width="120" height="60" as="geometry" />
        </mxCell>
        <mxCell id="nhhz1PPNxXzfXSCWjOdO-228" style="edgeStyle=orthogonalEdgeStyle;rounded=0;sketch=0;jumpStyle=arc;orthogonalLoop=1;jettySize=auto;html=1;exitX=0.5;exitY=1;exitDx=0;exitDy=0;entryX=0.5;entryY=0;entryDx=0;entryDy=0;shadow=0;startArrow=none;startFill=0;endArrow=classic;endFill=1;" parent="1" source="nhhz1PPNxXzfXSCWjOdO-229" target="nhhz1PPNxXzfXSCWjOdO-230" edge="1">
          <mxGeometry relative="1" as="geometry" />
        </mxCell>
        <mxCell id="nhhz1PPNxXzfXSCWjOdO-229" value="Закрываются" style="rounded=0;whiteSpace=wrap;html=1;shadow=0;sketch=0;fillColor=#ffffff;gradientColor=none;verticalAlign=middle;" parent="1" vertex="1">
          <mxGeometry x="76" y="4725" width="120" height="60" as="geometry" />
        </mxCell>
        <mxCell id="nhhz1PPNxXzfXSCWjOdO-230" value="Закрыты" style="rounded=0;whiteSpace=wrap;html=1;shadow=0;sketch=0;fillColor=#ffffff;gradientColor=none;verticalAlign=middle;" parent="1" vertex="1">
          <mxGeometry x="76" y="4807" width="120" height="60" as="geometry" />
        </mxCell>
        <mxCell id="nhhz1PPNxXzfXSCWjOdO-231" style="edgeStyle=orthogonalEdgeStyle;rounded=0;sketch=0;jumpStyle=arc;orthogonalLoop=1;jettySize=auto;html=1;exitX=0.5;exitY=1;exitDx=0;exitDy=0;entryX=0.5;entryY=0;entryDx=0;entryDy=0;shadow=0;startArrow=none;startFill=0;endArrow=classic;endFill=1;" parent="1" source="nhhz1PPNxXzfXSCWjOdO-232" target="nhhz1PPNxXzfXSCWjOdO-233" edge="1">
          <mxGeometry relative="1" as="geometry" />
        </mxCell>
        <mxCell id="nhhz1PPNxXzfXSCWjOdO-232" value="Зеленый свет" style="rounded=0;whiteSpace=wrap;html=1;shadow=0;sketch=0;fillColor=#ffffff;gradientColor=none;verticalAlign=middle;" parent="1" vertex="1">
          <mxGeometry x="243" y="4643" width="120" height="60" as="geometry" />
        </mxCell>
        <mxCell id="nhhz1PPNxXzfXSCWjOdO-233" value="Красный свет" style="rounded=0;whiteSpace=wrap;html=1;shadow=0;sketch=0;fillColor=#ffffff;gradientColor=none;verticalAlign=middle;" parent="1" vertex="1">
          <mxGeometry x="243" y="4725" width="120" height="60" as="geometry" />
        </mxCell>
        <mxCell id="nhhz1PPNxXzfXSCWjOdO-234" value="&lt;font style=&quot;font-size: 14px&quot;&gt;Турникет&lt;/font&gt;" style="text;html=1;align=center;verticalAlign=middle;resizable=0;points=[];autosize=1;strokeColor=none;" parent="1" vertex="1">
          <mxGeometry x="-381" y="4052" width="72" height="19" as="geometry" />
        </mxCell>
        <mxCell id="nhhz1PPNxXzfXSCWjOdO-235" value="&lt;font style=&quot;font-size: 14px&quot;&gt;Валидатор&lt;/font&gt;" style="text;html=1;align=center;verticalAlign=middle;resizable=0;points=[];autosize=1;strokeColor=none;" parent="1" vertex="1">
          <mxGeometry x="-235" y="4052" width="82" height="19" as="geometry" />
        </mxCell>
        <mxCell id="nhhz1PPNxXzfXSCWjOdO-236" value="&lt;font style=&quot;font-size: 14px&quot;&gt;Табло&lt;/font&gt;" style="text;html=1;align=center;verticalAlign=middle;resizable=0;points=[];autosize=1;strokeColor=none;" parent="1" vertex="1">
          <mxGeometry x="-56" y="4052" width="50" height="19" as="geometry" />
        </mxCell>
        <mxCell id="nhhz1PPNxXzfXSCWjOdO-237" value="&lt;font style=&quot;font-size: 14px&quot;&gt;Двери&lt;/font&gt;" style="text;html=1;align=center;verticalAlign=middle;resizable=0;points=[];autosize=1;strokeColor=none;" parent="1" vertex="1">
          <mxGeometry x="111" y="4052" width="51" height="19" as="geometry" />
        </mxCell>
        <mxCell id="nhhz1PPNxXzfXSCWjOdO-238" value="&lt;font style=&quot;font-size: 14px&quot;&gt;Светодиод&lt;/font&gt;" style="text;html=1;align=center;verticalAlign=middle;resizable=0;points=[];autosize=1;strokeColor=none;" parent="1" vertex="1">
          <mxGeometry x="262" y="4052" width="83" height="19" as="geometry" />
        </mxCell>
        <mxCell id="nhhz1PPNxXzfXSCWjOdO-239" value="" style="endArrow=none;html=1;shadow=0;jumpStyle=arc;" parent="1" edge="1">
          <mxGeometry width="50" height="50" relative="1" as="geometry">
            <mxPoint x="-344" y="4529" as="sourcePoint" />
            <mxPoint x="136" y="4529" as="targetPoint" />
          </mxGeometry>
        </mxCell>
        <mxCell id="nhhz1PPNxXzfXSCWjOdO-240" value="" style="endArrow=none;html=1;shadow=0;" parent="1" edge="1">
          <mxGeometry width="50" height="50" relative="1" as="geometry">
            <mxPoint x="135.47000000000003" y="4627" as="sourcePoint" />
            <mxPoint x="303.47" y="4627" as="targetPoint" />
          </mxGeometry>
        </mxCell>
        <mxCell id="nhhz1PPNxXzfXSCWjOdO-241" value="" style="endArrow=none;html=1;shadow=0;" parent="1" edge="1">
          <mxGeometry width="50" height="50" relative="1" as="geometry">
            <mxPoint x="-344" y="4398" as="sourcePoint" />
            <mxPoint x="-33" y="4398" as="targetPoint" />
          </mxGeometry>
        </mxCell>
        <mxCell id="nhhz1PPNxXzfXSCWjOdO-242" value="Карта поднесена к валидатору&lt;br&gt;&lt;span style=&quot;font-size: 16px ; color: rgb(32 , 33 , 36) ; font-family: &amp;#34;arial&amp;#34; , sans-serif ; text-align: left ; background-color: rgb(255 , 255 , 255)&quot;&gt;↓&lt;br&gt;&lt;/span&gt;Считывание карты&lt;br&gt;&lt;span style=&quot;font-size: 16px ; color: rgb(32 , 33 , 36) ; font-family: &amp;#34;arial&amp;#34; , sans-serif ; text-align: left ; background-color: rgb(255 , 255 , 255)&quot;&gt;↓&lt;br&gt;&lt;/span&gt;Обработка карты&lt;br&gt;&lt;span style=&quot;font-size: 16px ; color: rgb(32 , 33 , 36) ; font-family: &amp;#34;arial&amp;#34; , sans-serif ; text-align: left ; background-color: rgb(255 , 255 , 255)&quot;&gt;↓&lt;br&gt;&lt;/span&gt;Списывание денег&lt;br&gt;&lt;span style=&quot;font-size: 16px ; color: rgb(32 , 33 , 36) ; font-family: &amp;#34;arial&amp;#34; , sans-serif ; text-align: left ; background-color: rgb(255 , 255 , 255)&quot;&gt;↓&lt;br&gt;&lt;/span&gt;Включение зеленого света&lt;br&gt;&lt;span style=&quot;font-size: 16px ; color: rgb(32 , 33 , 36) ; font-family: &amp;#34;arial&amp;#34; , sans-serif ; text-align: left ; background-color: rgb(255 , 255 , 255)&quot;&gt;↓&lt;br&gt;&lt;/span&gt;Открытие дверей&lt;br&gt;&lt;span style=&quot;font-size: 16px ; color: rgb(32 , 33 , 36) ; font-family: &amp;#34;arial&amp;#34; , sans-serif ; text-align: left ; background-color: rgb(255 , 255 , 255)&quot;&gt;↓&lt;br&gt;&lt;/span&gt;Дверь открыта&lt;br&gt;&lt;span style=&quot;font-size: 16px ; color: rgb(32 , 33 , 36) ; font-family: &amp;#34;arial&amp;#34; , sans-serif ; text-align: left ; background-color: rgb(255 , 255 , 255)&quot;&gt;↓&lt;br&gt;&lt;/span&gt;Двери закрываются&lt;br&gt;&lt;span style=&quot;font-size: 16px ; color: rgb(32 , 33 , 36) ; font-family: &amp;#34;arial&amp;#34; , sans-serif ; text-align: left ; background-color: rgb(255 , 255 , 255)&quot;&gt;↓&lt;br&gt;&lt;/span&gt;Включение красного света&lt;br&gt;&lt;span style=&quot;font-size: 16px ; color: rgb(32 , 33 , 36) ; font-family: &amp;#34;arial&amp;#34; , sans-serif ; text-align: left ; background-color: rgb(255 , 255 , 255)&quot;&gt;↓&lt;br&gt;&lt;/span&gt;Дверь закрыта&lt;br&gt;&lt;span style=&quot;font-size: 16px ; color: rgb(32 , 33 , 36) ; font-family: &amp;#34;arial&amp;#34; , sans-serif ; text-align: left ; background-color: rgb(255 , 255 , 255)&quot;&gt;↓&lt;br&gt;&lt;/span&gt;Переход в режим ожидание" style="text;html=1;align=center;verticalAlign=middle;resizable=0;points=[];autosize=1;strokeColor=none;" parent="1" vertex="1">
          <mxGeometry x="-381.5" y="5164" width="187" height="308" as="geometry" />
        </mxCell>
        <mxCell id="nhhz1PPNxXzfXSCWjOdO-243" value="&lt;span style=&quot;font-size: 17px&quot;&gt;&lt;b&gt;ДПДД&lt;/b&gt;&lt;/span&gt;" style="text;html=1;strokeColor=none;fillColor=none;align=center;verticalAlign=middle;whiteSpace=wrap;rounded=0;" parent="1" vertex="1">
          <mxGeometry x="-203.53" y="5605" width="320" height="20" as="geometry" />
        </mxCell>
      </root>
    </mxGraphModel>
  </diagram>
  <diagram name="Тостер ДПС" id="aIsHR7ZYAJ5ElXEtF9t3">
    <mxGraphModel dx="946" dy="527" grid="1" gridSize="10" guides="1" tooltips="1" connect="1" arrows="1" fold="1" page="1" pageScale="1" pageWidth="827" pageHeight="1169" math="0" shadow="0">
      <root>
        <mxCell id="WTVdDayBTQ0MTywDv6Mj-0" />
        <mxCell id="WTVdDayBTQ0MTywDv6Mj-1" parent="WTVdDayBTQ0MTywDv6Mj-0" />
        <mxCell id="Lncw49TM1H4KjZ_BzUi1-0" value="&lt;b&gt;Тостер&lt;/b&gt;" style="text;html=1;align=center;verticalAlign=middle;resizable=0;points=[];autosize=1;" parent="WTVdDayBTQ0MTywDv6Mj-1" vertex="1">
          <mxGeometry x="384" y="10" width="60" height="20" as="geometry" />
        </mxCell>
        <mxCell id="Lncw49TM1H4KjZ_BzUi1-2" style="edgeStyle=orthogonalEdgeStyle;rounded=0;orthogonalLoop=1;jettySize=auto;html=1;exitX=0.5;exitY=0;exitDx=0;exitDy=0;startArrow=classic;startFill=1;endArrow=none;endFill=0;" parent="WTVdDayBTQ0MTywDv6Mj-1" source="Lncw49TM1H4KjZ_BzUi1-1" edge="1">
          <mxGeometry relative="1" as="geometry">
            <mxPoint x="414" y="40" as="targetPoint" />
          </mxGeometry>
        </mxCell>
        <mxCell id="Lncw49TM1H4KjZ_BzUi1-1" value="1. Выключен" style="html=1;" parent="WTVdDayBTQ0MTywDv6Mj-1" vertex="1">
          <mxGeometry x="359" y="110" width="110" height="50" as="geometry" />
        </mxCell>
        <mxCell id="Lncw49TM1H4KjZ_BzUi1-4" style="edgeStyle=orthogonalEdgeStyle;rounded=0;orthogonalLoop=1;jettySize=auto;html=1;exitX=0.25;exitY=0;exitDx=0;exitDy=0;entryX=0.25;entryY=1;entryDx=0;entryDy=0;startArrow=classic;startFill=1;endArrow=none;endFill=0;" parent="WTVdDayBTQ0MTywDv6Mj-1" source="Lncw49TM1H4KjZ_BzUi1-3" target="Lncw49TM1H4KjZ_BzUi1-1" edge="1">
          <mxGeometry relative="1" as="geometry">
            <Array as="points">
              <mxPoint x="387" y="170" />
              <mxPoint x="387" y="170" />
            </Array>
          </mxGeometry>
        </mxCell>
        <mxCell id="Lncw49TM1H4KjZ_BzUi1-11" value="Т1" style="edgeLabel;html=1;align=center;verticalAlign=middle;resizable=0;points=[];" parent="Lncw49TM1H4KjZ_BzUi1-4" vertex="1" connectable="0">
          <mxGeometry x="-0.4854" y="-10" relative="1" as="geometry">
            <mxPoint x="-12.5" y="-17" as="offset" />
          </mxGeometry>
        </mxCell>
        <mxCell id="Lncw49TM1H4KjZ_BzUi1-5" style="edgeStyle=orthogonalEdgeStyle;rounded=0;orthogonalLoop=1;jettySize=auto;html=1;exitX=0.75;exitY=0;exitDx=0;exitDy=0;entryX=0.75;entryY=1;entryDx=0;entryDy=0;startArrow=none;startFill=0;endArrow=classic;endFill=1;" parent="WTVdDayBTQ0MTywDv6Mj-1" source="Lncw49TM1H4KjZ_BzUi1-3" target="Lncw49TM1H4KjZ_BzUi1-1" edge="1">
          <mxGeometry relative="1" as="geometry">
            <Array as="points">
              <mxPoint x="442" y="200" />
              <mxPoint x="442" y="200" />
            </Array>
          </mxGeometry>
        </mxCell>
        <mxCell id="Lncw49TM1H4KjZ_BzUi1-12" value="Т2" style="edgeLabel;html=1;align=center;verticalAlign=middle;resizable=0;points=[];" parent="Lncw49TM1H4KjZ_BzUi1-5" vertex="1" connectable="0">
          <mxGeometry x="0.5442" y="-1" relative="1" as="geometry">
            <mxPoint x="1.5" y="9" as="offset" />
          </mxGeometry>
        </mxCell>
        <mxCell id="Lncw49TM1H4KjZ_BzUi1-16" style="edgeStyle=orthogonalEdgeStyle;rounded=0;orthogonalLoop=1;jettySize=auto;html=1;exitX=0.5;exitY=1;exitDx=0;exitDy=0;entryX=0.5;entryY=0;entryDx=0;entryDy=0;startArrow=none;startFill=0;endArrow=classic;endFill=1;" parent="WTVdDayBTQ0MTywDv6Mj-1" source="Lncw49TM1H4KjZ_BzUi1-3" target="Lncw49TM1H4KjZ_BzUi1-15" edge="1">
          <mxGeometry relative="1" as="geometry">
            <Array as="points">
              <mxPoint x="414" y="280" />
              <mxPoint x="414" y="280" />
            </Array>
          </mxGeometry>
        </mxCell>
        <mxCell id="Lncw49TM1H4KjZ_BzUi1-17" value="Т3" style="edgeLabel;html=1;align=center;verticalAlign=middle;resizable=0;points=[];" parent="Lncw49TM1H4KjZ_BzUi1-16" vertex="1" connectable="0">
          <mxGeometry x="0.3115" y="2" relative="1" as="geometry">
            <mxPoint x="-2" y="-13" as="offset" />
          </mxGeometry>
        </mxCell>
        <mxCell id="Lncw49TM1H4KjZ_BzUi1-3" value="2. Режим &lt;br&gt;ожидания" style="html=1;" parent="WTVdDayBTQ0MTywDv6Mj-1" vertex="1">
          <mxGeometry x="359" y="210" width="110" height="50" as="geometry" />
        </mxCell>
        <mxCell id="Lncw49TM1H4KjZ_BzUi1-13" value="Т1: Тостер включен" style="text;html=1;align=left;verticalAlign=middle;resizable=0;points=[];autosize=1;" parent="WTVdDayBTQ0MTywDv6Mj-1" vertex="1">
          <mxGeometry x="537" y="110" width="120" height="20" as="geometry" />
        </mxCell>
        <mxCell id="Lncw49TM1H4KjZ_BzUi1-14" value="Т2: Тостер выключен" style="text;html=1;align=left;verticalAlign=middle;resizable=0;points=[];autosize=1;" parent="WTVdDayBTQ0MTywDv6Mj-1" vertex="1">
          <mxGeometry x="537" y="130" width="130" height="20" as="geometry" />
        </mxCell>
        <mxCell id="b4PxU3jFzDO1NrmyhvWv-3" style="edgeStyle=orthogonalEdgeStyle;rounded=0;orthogonalLoop=1;jettySize=auto;html=1;exitX=0.5;exitY=1;exitDx=0;exitDy=0;startArrow=none;startFill=0;endArrow=classic;endFill=1;" parent="WTVdDayBTQ0MTywDv6Mj-1" source="Lncw49TM1H4KjZ_BzUi1-15" target="b4PxU3jFzDO1NrmyhvWv-0" edge="1">
          <mxGeometry relative="1" as="geometry">
            <Array as="points">
              <mxPoint x="410" y="360" />
            </Array>
          </mxGeometry>
        </mxCell>
        <mxCell id="b4PxU3jFzDO1NrmyhvWv-4" value="Т4" style="edgeLabel;html=1;align=center;verticalAlign=middle;resizable=0;points=[];" parent="b4PxU3jFzDO1NrmyhvWv-3" vertex="1" connectable="0">
          <mxGeometry x="-0.1515" y="-15" relative="1" as="geometry">
            <mxPoint x="19" y="1" as="offset" />
          </mxGeometry>
        </mxCell>
        <mxCell id="QeoCk_PHtBotxafvcpgL-0" style="edgeStyle=orthogonalEdgeStyle;rounded=0;orthogonalLoop=1;jettySize=auto;html=1;exitX=0;exitY=0.5;exitDx=0;exitDy=0;entryX=0;entryY=0.75;entryDx=0;entryDy=0;startArrow=none;startFill=0;endArrow=classic;endFill=1;" parent="WTVdDayBTQ0MTywDv6Mj-1" source="Lncw49TM1H4KjZ_BzUi1-15" target="Lncw49TM1H4KjZ_BzUi1-1" edge="1">
          <mxGeometry relative="1" as="geometry">
            <Array as="points">
              <mxPoint x="320" y="335" />
              <mxPoint x="320" y="148" />
            </Array>
          </mxGeometry>
        </mxCell>
        <mxCell id="QeoCk_PHtBotxafvcpgL-1" value="Т2" style="edgeLabel;html=1;align=center;verticalAlign=middle;resizable=0;points=[];" parent="QeoCk_PHtBotxafvcpgL-0" vertex="1" connectable="0">
          <mxGeometry x="0.0847" relative="1" as="geometry">
            <mxPoint y="5" as="offset" />
          </mxGeometry>
        </mxCell>
        <mxCell id="Lncw49TM1H4KjZ_BzUi1-15" value="3. Таймер обжарки &lt;br&gt;установлен" style="html=1;" parent="WTVdDayBTQ0MTywDv6Mj-1" vertex="1">
          <mxGeometry x="359" y="310" width="110" height="50" as="geometry" />
        </mxCell>
        <mxCell id="Lncw49TM1H4KjZ_BzUi1-18" value="Т3: Установлено положение регулятора обжарки" style="text;html=1;align=left;verticalAlign=middle;resizable=0;points=[];autosize=1;" parent="WTVdDayBTQ0MTywDv6Mj-1" vertex="1">
          <mxGeometry x="537" y="150" width="290" height="20" as="geometry" />
        </mxCell>
        <mxCell id="b4PxU3jFzDO1NrmyhvWv-7" style="edgeStyle=orthogonalEdgeStyle;rounded=0;orthogonalLoop=1;jettySize=auto;html=1;exitX=0;exitY=0.5;exitDx=0;exitDy=0;entryX=0;entryY=0.5;entryDx=0;entryDy=0;startArrow=none;startFill=0;endArrow=classic;endFill=1;" parent="WTVdDayBTQ0MTywDv6Mj-1" source="b4PxU3jFzDO1NrmyhvWv-0" target="Lncw49TM1H4KjZ_BzUi1-3" edge="1">
          <mxGeometry relative="1" as="geometry">
            <mxPoint x="386.5" y="510" as="targetPoint" />
            <Array as="points">
              <mxPoint x="340" y="435" />
              <mxPoint x="340" y="235" />
            </Array>
          </mxGeometry>
        </mxCell>
        <mxCell id="b4PxU3jFzDO1NrmyhvWv-10" value="Т5" style="edgeLabel;html=1;align=center;verticalAlign=middle;resizable=0;points=[];" parent="b4PxU3jFzDO1NrmyhvWv-7" vertex="1" connectable="0">
          <mxGeometry x="-0.2242" y="13" relative="1" as="geometry">
            <mxPoint x="13" y="18" as="offset" />
          </mxGeometry>
        </mxCell>
        <mxCell id="b4PxU3jFzDO1NrmyhvWv-9" style="edgeStyle=orthogonalEdgeStyle;rounded=0;orthogonalLoop=1;jettySize=auto;html=1;exitX=1;exitY=0.5;exitDx=0;exitDy=0;entryX=1;entryY=0.5;entryDx=0;entryDy=0;startArrow=none;startFill=0;endArrow=classic;endFill=1;" parent="WTVdDayBTQ0MTywDv6Mj-1" source="b4PxU3jFzDO1NrmyhvWv-0" target="Lncw49TM1H4KjZ_BzUi1-3" edge="1">
          <mxGeometry relative="1" as="geometry">
            <mxPoint x="441.5" y="510" as="targetPoint" />
            <Array as="points">
              <mxPoint x="490" y="435" />
              <mxPoint x="490" y="235" />
            </Array>
          </mxGeometry>
        </mxCell>
        <mxCell id="b4PxU3jFzDO1NrmyhvWv-11" value="Т6" style="edgeLabel;html=1;align=center;verticalAlign=middle;resizable=0;points=[];" parent="b4PxU3jFzDO1NrmyhvWv-9" vertex="1" connectable="0">
          <mxGeometry x="-0.1529" y="-14" relative="1" as="geometry">
            <mxPoint x="-14" y="26" as="offset" />
          </mxGeometry>
        </mxCell>
        <mxCell id="QeoCk_PHtBotxafvcpgL-2" style="edgeStyle=orthogonalEdgeStyle;rounded=0;orthogonalLoop=1;jettySize=auto;html=1;exitX=0;exitY=0.75;exitDx=0;exitDy=0;entryX=0;entryY=0.5;entryDx=0;entryDy=0;startArrow=none;startFill=0;endArrow=classic;endFill=1;" parent="WTVdDayBTQ0MTywDv6Mj-1" source="b4PxU3jFzDO1NrmyhvWv-0" target="Lncw49TM1H4KjZ_BzUi1-1" edge="1">
          <mxGeometry relative="1" as="geometry">
            <Array as="points">
              <mxPoint x="300" y="448" />
              <mxPoint x="300" y="135" />
            </Array>
          </mxGeometry>
        </mxCell>
        <mxCell id="QeoCk_PHtBotxafvcpgL-3" value="Т2" style="edgeLabel;html=1;align=center;verticalAlign=middle;resizable=0;points=[];" parent="QeoCk_PHtBotxafvcpgL-2" vertex="1" connectable="0">
          <mxGeometry x="0.252" y="3" relative="1" as="geometry">
            <mxPoint y="-2.5" as="offset" />
          </mxGeometry>
        </mxCell>
        <mxCell id="b4PxU3jFzDO1NrmyhvWv-0" value="4. Обжарка" style="html=1;" parent="WTVdDayBTQ0MTywDv6Mj-1" vertex="1">
          <mxGeometry x="359" y="410" width="110" height="50" as="geometry" />
        </mxCell>
        <mxCell id="b4PxU3jFzDO1NrmyhvWv-5" value="Т4: Опущен рычаг" style="text;html=1;align=left;verticalAlign=middle;resizable=0;points=[];autosize=1;" parent="WTVdDayBTQ0MTywDv6Mj-1" vertex="1">
          <mxGeometry x="537" y="170" width="120" height="20" as="geometry" />
        </mxCell>
        <mxCell id="b4PxU3jFzDO1NrmyhvWv-12" value="Т5: Время на обжарку истекло" style="text;html=1;align=left;verticalAlign=middle;resizable=0;points=[];autosize=1;" parent="WTVdDayBTQ0MTywDv6Mj-1" vertex="1">
          <mxGeometry x="537" y="190" width="190" height="20" as="geometry" />
        </mxCell>
        <mxCell id="b4PxU3jFzDO1NrmyhvWv-13" value="Т6: Поднят рычаг" style="text;html=1;align=left;verticalAlign=middle;resizable=0;points=[];autosize=1;" parent="WTVdDayBTQ0MTywDv6Mj-1" vertex="1">
          <mxGeometry x="537" y="210" width="110" height="20" as="geometry" />
        </mxCell>
        <mxCell id="FIxSSlmuzdaev1VPEtYf-8" value="&lt;table border=&quot;1&quot; width=&quot;100%&quot; style=&quot;width: 100% ; height: 100% ; border-collapse: collapse&quot;&gt;&lt;tbody&gt;&lt;tr&gt;&lt;td&gt;&lt;b&gt;№&lt;/b&gt;&lt;/td&gt;&lt;td&gt;&lt;b&gt;Т1&lt;/b&gt;&lt;/td&gt;&lt;td&gt;&lt;b&gt;Т2&lt;/b&gt;&lt;/td&gt;&lt;td&gt;&lt;b&gt;Т3&lt;/b&gt;&lt;/td&gt;&lt;td&gt;&lt;b&gt;Т4&lt;/b&gt;&lt;/td&gt;&lt;td&gt;&lt;b&gt;Т5&lt;/b&gt;&lt;/td&gt;&lt;td&gt;&lt;b&gt;Т6&lt;/b&gt;&lt;/td&gt;&lt;/tr&gt;&lt;tr&gt;&lt;td&gt;&lt;b&gt;1&lt;/b&gt;&lt;/td&gt;&lt;td&gt;2&lt;/td&gt;&lt;td&gt;-&lt;/td&gt;&lt;td&gt;-&lt;/td&gt;&lt;td&gt;-&lt;/td&gt;&lt;td&gt;-&lt;/td&gt;&lt;td&gt;-&lt;/td&gt;&lt;/tr&gt;&lt;tr&gt;&lt;td&gt;&lt;b&gt;2&lt;/b&gt;&lt;/td&gt;&lt;td&gt;-&lt;/td&gt;&lt;td&gt;1&lt;/td&gt;&lt;td&gt;3&lt;/td&gt;&lt;td&gt;-&lt;/td&gt;&lt;td&gt;-&lt;/td&gt;&lt;td&gt;-&lt;/td&gt;&lt;/tr&gt;&lt;tr&gt;&lt;td&gt;&lt;b&gt;3&lt;/b&gt;&lt;/td&gt;&lt;td&gt;-&lt;/td&gt;&lt;td&gt;1&lt;/td&gt;&lt;td&gt;-&lt;/td&gt;&lt;td&gt;4&lt;/td&gt;&lt;td&gt;-&lt;/td&gt;&lt;td&gt;-&lt;/td&gt;&lt;/tr&gt;&lt;tr&gt;&lt;td&gt;&lt;b&gt;4&lt;/b&gt;&lt;/td&gt;&lt;td&gt;-&lt;/td&gt;&lt;td&gt;1&lt;/td&gt;&lt;td&gt;-&lt;/td&gt;&lt;td&gt;-&lt;/td&gt;&lt;td&gt;2&lt;/td&gt;&lt;td&gt;2&lt;/td&gt;&lt;/tr&gt;&lt;/tbody&gt;&lt;/table&gt;" style="text;html=1;strokeColor=none;fillColor=none;overflow=fill;align=center;" parent="WTVdDayBTQ0MTywDv6Mj-1" vertex="1">
          <mxGeometry x="537" y="250" width="180" height="140" as="geometry" />
        </mxCell>
        <mxCell id="M693_9Bd0WQ16jZkxc2S-0" value="&lt;b&gt;Вилка&lt;/b&gt;" style="text;html=1;align=center;verticalAlign=middle;resizable=0;points=[];autosize=1;" parent="WTVdDayBTQ0MTywDv6Mj-1" vertex="1">
          <mxGeometry x="389" y="490" width="50" height="20" as="geometry" />
        </mxCell>
        <mxCell id="M693_9Bd0WQ16jZkxc2S-1" style="edgeStyle=orthogonalEdgeStyle;rounded=0;orthogonalLoop=1;jettySize=auto;html=1;exitX=0.5;exitY=0;exitDx=0;exitDy=0;startArrow=classic;startFill=1;endArrow=none;endFill=0;" parent="WTVdDayBTQ0MTywDv6Mj-1" source="M693_9Bd0WQ16jZkxc2S-2" edge="1">
          <mxGeometry relative="1" as="geometry">
            <mxPoint x="414" y="520" as="targetPoint" />
          </mxGeometry>
        </mxCell>
        <mxCell id="M693_9Bd0WQ16jZkxc2S-4" style="edgeStyle=orthogonalEdgeStyle;rounded=0;orthogonalLoop=1;jettySize=auto;html=1;exitX=0.25;exitY=1;exitDx=0;exitDy=0;entryX=0.25;entryY=0;entryDx=0;entryDy=0;startArrow=none;startFill=0;endArrow=classic;endFill=1;" parent="WTVdDayBTQ0MTywDv6Mj-1" source="M693_9Bd0WQ16jZkxc2S-2" target="M693_9Bd0WQ16jZkxc2S-3" edge="1">
          <mxGeometry relative="1" as="geometry">
            <Array as="points">
              <mxPoint x="387" y="680" />
              <mxPoint x="387" y="680" />
            </Array>
          </mxGeometry>
        </mxCell>
        <mxCell id="M693_9Bd0WQ16jZkxc2S-7" value="В1" style="edgeLabel;html=1;align=center;verticalAlign=middle;resizable=0;points=[];" parent="M693_9Bd0WQ16jZkxc2S-4" vertex="1" connectable="0">
          <mxGeometry x="-0.214" y="9" relative="1" as="geometry">
            <mxPoint x="-11.5" as="offset" />
          </mxGeometry>
        </mxCell>
        <mxCell id="M693_9Bd0WQ16jZkxc2S-2" value="1. Выключена&lt;br&gt;из сети" style="html=1;" parent="WTVdDayBTQ0MTywDv6Mj-1" vertex="1">
          <mxGeometry x="359" y="590" width="110" height="50" as="geometry" />
        </mxCell>
        <mxCell id="M693_9Bd0WQ16jZkxc2S-5" style="edgeStyle=orthogonalEdgeStyle;rounded=0;orthogonalLoop=1;jettySize=auto;html=1;exitX=0.75;exitY=0;exitDx=0;exitDy=0;entryX=0.75;entryY=1;entryDx=0;entryDy=0;startArrow=none;startFill=0;endArrow=classic;endFill=1;" parent="WTVdDayBTQ0MTywDv6Mj-1" source="M693_9Bd0WQ16jZkxc2S-3" target="M693_9Bd0WQ16jZkxc2S-2" edge="1">
          <mxGeometry relative="1" as="geometry">
            <Array as="points">
              <mxPoint x="442" y="670" />
              <mxPoint x="442" y="670" />
            </Array>
          </mxGeometry>
        </mxCell>
        <mxCell id="M693_9Bd0WQ16jZkxc2S-8" value="В2" style="edgeLabel;html=1;align=center;verticalAlign=middle;resizable=0;points=[];" parent="M693_9Bd0WQ16jZkxc2S-5" vertex="1" connectable="0">
          <mxGeometry x="0.0922" y="1" relative="1" as="geometry">
            <mxPoint x="-1.5" y="-3" as="offset" />
          </mxGeometry>
        </mxCell>
        <mxCell id="M693_9Bd0WQ16jZkxc2S-3" value="2. Включена&lt;br&gt;в сеть" style="html=1;" parent="WTVdDayBTQ0MTywDv6Mj-1" vertex="1">
          <mxGeometry x="359" y="690" width="110" height="50" as="geometry" />
        </mxCell>
        <mxCell id="M693_9Bd0WQ16jZkxc2S-9" value="В1: Вилку включили в сеть" style="text;html=1;align=left;verticalAlign=middle;resizable=0;points=[];autosize=1;" parent="WTVdDayBTQ0MTywDv6Mj-1" vertex="1">
          <mxGeometry x="537" y="590" width="160" height="20" as="geometry" />
        </mxCell>
        <mxCell id="M693_9Bd0WQ16jZkxc2S-10" value="В2: Вилку выключили из сети" style="text;html=1;align=left;verticalAlign=middle;resizable=0;points=[];autosize=1;" parent="WTVdDayBTQ0MTywDv6Mj-1" vertex="1">
          <mxGeometry x="537" y="610" width="180" height="20" as="geometry" />
        </mxCell>
        <mxCell id="M693_9Bd0WQ16jZkxc2S-11" value="&lt;table border=&quot;1&quot; width=&quot;100%&quot; style=&quot;width: 100% ; height: 100% ; border-collapse: collapse&quot;&gt;&lt;tbody&gt;&lt;tr&gt;&lt;td&gt;&lt;b&gt;№&lt;/b&gt;&lt;/td&gt;&lt;td&gt;&lt;b&gt;В1&lt;/b&gt;&lt;/td&gt;&lt;td&gt;&lt;b&gt;В2&lt;/b&gt;&lt;/td&gt;&lt;/tr&gt;&lt;tr&gt;&lt;td&gt;&lt;b&gt;1&lt;/b&gt;&lt;/td&gt;&lt;td&gt;2&lt;/td&gt;&lt;td&gt;-&lt;/td&gt;&lt;/tr&gt;&lt;tr&gt;&lt;td&gt;&lt;b&gt;2&lt;/b&gt;&lt;/td&gt;&lt;td&gt;-&lt;/td&gt;&lt;td&gt;1&lt;/td&gt;&lt;/tr&gt;&lt;/tbody&gt;&lt;/table&gt;" style="text;html=1;strokeColor=none;fillColor=none;overflow=fill;align=center;" parent="WTVdDayBTQ0MTywDv6Mj-1" vertex="1">
          <mxGeometry x="537" y="645" width="183" height="95" as="geometry" />
        </mxCell>
        <mxCell id="0vffr-KFjJddq6IPub8_-0" value="&lt;b&gt;Нагревательный элемент&lt;/b&gt;" style="text;html=1;align=center;verticalAlign=middle;resizable=0;points=[];autosize=1;" parent="WTVdDayBTQ0MTywDv6Mj-1" vertex="1">
          <mxGeometry x="329" y="760" width="170" height="20" as="geometry" />
        </mxCell>
        <mxCell id="0vffr-KFjJddq6IPub8_-1" style="edgeStyle=orthogonalEdgeStyle;rounded=0;orthogonalLoop=1;jettySize=auto;html=1;exitX=0.5;exitY=0;exitDx=0;exitDy=0;startArrow=classic;startFill=1;endArrow=none;endFill=0;" parent="WTVdDayBTQ0MTywDv6Mj-1" source="0vffr-KFjJddq6IPub8_-4" edge="1">
          <mxGeometry relative="1" as="geometry">
            <mxPoint x="414" y="790" as="targetPoint" />
          </mxGeometry>
        </mxCell>
        <mxCell id="0vffr-KFjJddq6IPub8_-2" style="edgeStyle=orthogonalEdgeStyle;rounded=0;orthogonalLoop=1;jettySize=auto;html=1;exitX=0.25;exitY=1;exitDx=0;exitDy=0;entryX=0.25;entryY=0;entryDx=0;entryDy=0;startArrow=none;startFill=0;endArrow=classic;endFill=1;" parent="WTVdDayBTQ0MTywDv6Mj-1" source="0vffr-KFjJddq6IPub8_-4" target="0vffr-KFjJddq6IPub8_-7" edge="1">
          <mxGeometry relative="1" as="geometry">
            <Array as="points">
              <mxPoint x="387" y="940" />
              <mxPoint x="387" y="940" />
            </Array>
          </mxGeometry>
        </mxCell>
        <mxCell id="0vffr-KFjJddq6IPub8_-3" value="НЭ1" style="edgeLabel;html=1;align=center;verticalAlign=middle;resizable=0;points=[];" parent="0vffr-KFjJddq6IPub8_-2" vertex="1" connectable="0">
          <mxGeometry x="-0.214" y="9" relative="1" as="geometry">
            <mxPoint x="-11.5" as="offset" />
          </mxGeometry>
        </mxCell>
        <mxCell id="0vffr-KFjJddq6IPub8_-4" value="1. Выключен" style="html=1;" parent="WTVdDayBTQ0MTywDv6Mj-1" vertex="1">
          <mxGeometry x="359" y="860" width="110" height="50" as="geometry" />
        </mxCell>
        <mxCell id="0vffr-KFjJddq6IPub8_-5" style="edgeStyle=orthogonalEdgeStyle;rounded=0;orthogonalLoop=1;jettySize=auto;html=1;exitX=0.75;exitY=0;exitDx=0;exitDy=0;entryX=0.75;entryY=1;entryDx=0;entryDy=0;startArrow=none;startFill=0;endArrow=classic;endFill=1;" parent="WTVdDayBTQ0MTywDv6Mj-1" source="0vffr-KFjJddq6IPub8_-7" target="0vffr-KFjJddq6IPub8_-4" edge="1">
          <mxGeometry relative="1" as="geometry">
            <Array as="points">
              <mxPoint x="442" y="940" />
              <mxPoint x="442" y="940" />
            </Array>
          </mxGeometry>
        </mxCell>
        <mxCell id="0vffr-KFjJddq6IPub8_-6" value="НЭ2" style="edgeLabel;html=1;align=center;verticalAlign=middle;resizable=0;points=[];" parent="0vffr-KFjJddq6IPub8_-5" vertex="1" connectable="0">
          <mxGeometry x="0.0922" y="1" relative="1" as="geometry">
            <mxPoint x="-1.5" y="-3" as="offset" />
          </mxGeometry>
        </mxCell>
        <mxCell id="0vffr-KFjJddq6IPub8_-7" value="2. Включен" style="html=1;" parent="WTVdDayBTQ0MTywDv6Mj-1" vertex="1">
          <mxGeometry x="359" y="960" width="110" height="50" as="geometry" />
        </mxCell>
        <mxCell id="0vffr-KFjJddq6IPub8_-8" value="НЭ1: Начать нагрев" style="text;html=1;align=left;verticalAlign=middle;resizable=0;points=[];autosize=1;" parent="WTVdDayBTQ0MTywDv6Mj-1" vertex="1">
          <mxGeometry x="537" y="860" width="130" height="20" as="geometry" />
        </mxCell>
        <mxCell id="0vffr-KFjJddq6IPub8_-9" value="НЭ2: Остановить нагрев" style="text;html=1;align=left;verticalAlign=middle;resizable=0;points=[];autosize=1;" parent="WTVdDayBTQ0MTywDv6Mj-1" vertex="1">
          <mxGeometry x="537" y="880" width="150" height="20" as="geometry" />
        </mxCell>
        <mxCell id="0vffr-KFjJddq6IPub8_-10" value="&lt;table border=&quot;1&quot; width=&quot;100%&quot; style=&quot;width: 100% ; height: 100% ; border-collapse: collapse&quot;&gt;&lt;tbody&gt;&lt;tr&gt;&lt;td&gt;&lt;b&gt;№&lt;/b&gt;&lt;/td&gt;&lt;td&gt;&lt;b&gt;НЭ1&lt;/b&gt;&lt;/td&gt;&lt;td&gt;&lt;b&gt;НЭ2&lt;/b&gt;&lt;/td&gt;&lt;/tr&gt;&lt;tr&gt;&lt;td&gt;&lt;b&gt;1&lt;/b&gt;&lt;/td&gt;&lt;td&gt;2&lt;/td&gt;&lt;td&gt;-&lt;/td&gt;&lt;/tr&gt;&lt;tr&gt;&lt;td&gt;&lt;b&gt;2&lt;/b&gt;&lt;/td&gt;&lt;td&gt;-&lt;/td&gt;&lt;td&gt;1&lt;/td&gt;&lt;/tr&gt;&lt;/tbody&gt;&lt;/table&gt;" style="text;html=1;strokeColor=none;fillColor=none;overflow=fill;align=center;" parent="WTVdDayBTQ0MTywDv6Mj-1" vertex="1">
          <mxGeometry x="537" y="915" width="183" height="95" as="geometry" />
        </mxCell>
        <mxCell id="cLGsa8kHE7V3eEpcV2YQ-0" value="&lt;b&gt;Регулятор обжарки&lt;/b&gt;" style="text;html=1;align=center;verticalAlign=middle;resizable=0;points=[];autosize=1;" parent="WTVdDayBTQ0MTywDv6Mj-1" vertex="1">
          <mxGeometry x="349" y="1040" width="130" height="20" as="geometry" />
        </mxCell>
        <mxCell id="cLGsa8kHE7V3eEpcV2YQ-1" style="edgeStyle=orthogonalEdgeStyle;rounded=0;orthogonalLoop=1;jettySize=auto;html=1;exitX=0.5;exitY=0;exitDx=0;exitDy=0;startArrow=classic;startFill=1;endArrow=none;endFill=0;" parent="WTVdDayBTQ0MTywDv6Mj-1" source="cLGsa8kHE7V3eEpcV2YQ-4" edge="1">
          <mxGeometry relative="1" as="geometry">
            <mxPoint x="414" y="1070" as="targetPoint" />
          </mxGeometry>
        </mxCell>
        <mxCell id="cLGsa8kHE7V3eEpcV2YQ-2" style="edgeStyle=orthogonalEdgeStyle;rounded=0;orthogonalLoop=1;jettySize=auto;html=1;exitX=0.25;exitY=1;exitDx=0;exitDy=0;entryX=0.25;entryY=0;entryDx=0;entryDy=0;startArrow=none;startFill=0;endArrow=classic;endFill=1;" parent="WTVdDayBTQ0MTywDv6Mj-1" source="cLGsa8kHE7V3eEpcV2YQ-4" target="cLGsa8kHE7V3eEpcV2YQ-7" edge="1">
          <mxGeometry relative="1" as="geometry">
            <Array as="points">
              <mxPoint x="387" y="1220" />
              <mxPoint x="387" y="1220" />
            </Array>
          </mxGeometry>
        </mxCell>
        <mxCell id="cLGsa8kHE7V3eEpcV2YQ-3" value="РО1" style="edgeLabel;html=1;align=center;verticalAlign=middle;resizable=0;points=[];" parent="cLGsa8kHE7V3eEpcV2YQ-2" vertex="1" connectable="0">
          <mxGeometry x="-0.214" y="9" relative="1" as="geometry">
            <mxPoint x="-11.5" as="offset" />
          </mxGeometry>
        </mxCell>
        <mxCell id="cLGsa8kHE7V3eEpcV2YQ-4" value="1. Не установлен" style="html=1;" parent="WTVdDayBTQ0MTywDv6Mj-1" vertex="1">
          <mxGeometry x="359" y="1140" width="110" height="50" as="geometry" />
        </mxCell>
        <mxCell id="cLGsa8kHE7V3eEpcV2YQ-5" style="edgeStyle=orthogonalEdgeStyle;rounded=0;orthogonalLoop=1;jettySize=auto;html=1;exitX=0.75;exitY=0;exitDx=0;exitDy=0;entryX=0.75;entryY=1;entryDx=0;entryDy=0;startArrow=none;startFill=0;endArrow=classic;endFill=1;" parent="WTVdDayBTQ0MTywDv6Mj-1" source="cLGsa8kHE7V3eEpcV2YQ-7" target="cLGsa8kHE7V3eEpcV2YQ-4" edge="1">
          <mxGeometry relative="1" as="geometry">
            <Array as="points">
              <mxPoint x="442" y="1220" />
              <mxPoint x="442" y="1220" />
            </Array>
          </mxGeometry>
        </mxCell>
        <mxCell id="cLGsa8kHE7V3eEpcV2YQ-6" value="РО2" style="edgeLabel;html=1;align=center;verticalAlign=middle;resizable=0;points=[];" parent="cLGsa8kHE7V3eEpcV2YQ-5" vertex="1" connectable="0">
          <mxGeometry x="0.0922" y="1" relative="1" as="geometry">
            <mxPoint x="-1.5" y="-3" as="offset" />
          </mxGeometry>
        </mxCell>
        <mxCell id="cLGsa8kHE7V3eEpcV2YQ-7" value="2. Установлен" style="html=1;" parent="WTVdDayBTQ0MTywDv6Mj-1" vertex="1">
          <mxGeometry x="359" y="1240" width="110" height="50" as="geometry" />
        </mxCell>
        <mxCell id="cLGsa8kHE7V3eEpcV2YQ-8" value="РО1: Выбрать режим обжарки" style="text;html=1;align=left;verticalAlign=middle;resizable=0;points=[];autosize=1;" parent="WTVdDayBTQ0MTywDv6Mj-1" vertex="1">
          <mxGeometry x="537" y="1140" width="180" height="20" as="geometry" />
        </mxCell>
        <mxCell id="cLGsa8kHE7V3eEpcV2YQ-9" value="РО2: Сбросить режим обжарки" style="text;html=1;align=left;verticalAlign=middle;resizable=0;points=[];autosize=1;" parent="WTVdDayBTQ0MTywDv6Mj-1" vertex="1">
          <mxGeometry x="537" y="1160" width="190" height="20" as="geometry" />
        </mxCell>
        <mxCell id="cLGsa8kHE7V3eEpcV2YQ-10" value="&lt;table border=&quot;1&quot; width=&quot;100%&quot; style=&quot;width: 100% ; height: 100% ; border-collapse: collapse&quot;&gt;&lt;tbody&gt;&lt;tr&gt;&lt;td&gt;&lt;b&gt;№&lt;/b&gt;&lt;/td&gt;&lt;td&gt;&lt;b&gt;РО1&lt;/b&gt;&lt;/td&gt;&lt;td&gt;&lt;b&gt;РО2&lt;/b&gt;&lt;/td&gt;&lt;/tr&gt;&lt;tr&gt;&lt;td&gt;&lt;b&gt;1&lt;/b&gt;&lt;/td&gt;&lt;td&gt;2&lt;/td&gt;&lt;td&gt;-&lt;/td&gt;&lt;/tr&gt;&lt;tr&gt;&lt;td&gt;&lt;b&gt;2&lt;/b&gt;&lt;/td&gt;&lt;td&gt;-&lt;/td&gt;&lt;td&gt;1&lt;/td&gt;&lt;/tr&gt;&lt;/tbody&gt;&lt;/table&gt;" style="text;html=1;strokeColor=none;fillColor=none;overflow=fill;align=center;" parent="WTVdDayBTQ0MTywDv6Mj-1" vertex="1">
          <mxGeometry x="537" y="1195" width="183" height="95" as="geometry" />
        </mxCell>
        <mxCell id="vqjkbu3F0SVihYhNq-8o-0" value="&lt;b&gt;Рычаг&lt;/b&gt;" style="text;html=1;align=center;verticalAlign=middle;resizable=0;points=[];autosize=1;" parent="WTVdDayBTQ0MTywDv6Mj-1" vertex="1">
          <mxGeometry x="399" y="1330" width="50" height="20" as="geometry" />
        </mxCell>
        <mxCell id="vqjkbu3F0SVihYhNq-8o-1" style="edgeStyle=orthogonalEdgeStyle;rounded=0;orthogonalLoop=1;jettySize=auto;html=1;exitX=0.5;exitY=0;exitDx=0;exitDy=0;startArrow=classic;startFill=1;endArrow=none;endFill=0;" parent="WTVdDayBTQ0MTywDv6Mj-1" source="vqjkbu3F0SVihYhNq-8o-4" edge="1">
          <mxGeometry relative="1" as="geometry">
            <mxPoint x="424" y="1360" as="targetPoint" />
          </mxGeometry>
        </mxCell>
        <mxCell id="vqjkbu3F0SVihYhNq-8o-2" style="edgeStyle=orthogonalEdgeStyle;rounded=0;orthogonalLoop=1;jettySize=auto;html=1;exitX=0.25;exitY=1;exitDx=0;exitDy=0;entryX=0.25;entryY=0;entryDx=0;entryDy=0;startArrow=none;startFill=0;endArrow=classic;endFill=1;" parent="WTVdDayBTQ0MTywDv6Mj-1" source="vqjkbu3F0SVihYhNq-8o-4" target="vqjkbu3F0SVihYhNq-8o-7" edge="1">
          <mxGeometry relative="1" as="geometry">
            <Array as="points">
              <mxPoint x="397" y="1510" />
              <mxPoint x="397" y="1510" />
            </Array>
          </mxGeometry>
        </mxCell>
        <mxCell id="vqjkbu3F0SVihYhNq-8o-3" value="Р1" style="edgeLabel;html=1;align=center;verticalAlign=middle;resizable=0;points=[];" parent="vqjkbu3F0SVihYhNq-8o-2" vertex="1" connectable="0">
          <mxGeometry x="-0.214" y="9" relative="1" as="geometry">
            <mxPoint x="-11.5" as="offset" />
          </mxGeometry>
        </mxCell>
        <mxCell id="vqjkbu3F0SVihYhNq-8o-4" value="1. Не установлен" style="html=1;" parent="WTVdDayBTQ0MTywDv6Mj-1" vertex="1">
          <mxGeometry x="369" y="1430" width="110" height="50" as="geometry" />
        </mxCell>
        <mxCell id="vqjkbu3F0SVihYhNq-8o-5" style="edgeStyle=orthogonalEdgeStyle;rounded=0;orthogonalLoop=1;jettySize=auto;html=1;exitX=0.75;exitY=0;exitDx=0;exitDy=0;entryX=0.75;entryY=1;entryDx=0;entryDy=0;startArrow=none;startFill=0;endArrow=classic;endFill=1;" parent="WTVdDayBTQ0MTywDv6Mj-1" source="vqjkbu3F0SVihYhNq-8o-7" target="vqjkbu3F0SVihYhNq-8o-4" edge="1">
          <mxGeometry relative="1" as="geometry">
            <Array as="points">
              <mxPoint x="452" y="1510" />
              <mxPoint x="452" y="1510" />
            </Array>
          </mxGeometry>
        </mxCell>
        <mxCell id="vqjkbu3F0SVihYhNq-8o-6" value="Р2" style="edgeLabel;html=1;align=center;verticalAlign=middle;resizable=0;points=[];" parent="vqjkbu3F0SVihYhNq-8o-5" vertex="1" connectable="0">
          <mxGeometry x="0.0922" y="1" relative="1" as="geometry">
            <mxPoint x="-1.5" y="-3" as="offset" />
          </mxGeometry>
        </mxCell>
        <mxCell id="vqjkbu3F0SVihYhNq-8o-7" value="2. Установлен" style="html=1;" parent="WTVdDayBTQ0MTywDv6Mj-1" vertex="1">
          <mxGeometry x="369" y="1530" width="110" height="50" as="geometry" />
        </mxCell>
        <mxCell id="vqjkbu3F0SVihYhNq-8o-8" value="Р1: Опустить рычаг" style="text;html=1;align=left;verticalAlign=middle;resizable=0;points=[];autosize=1;" parent="WTVdDayBTQ0MTywDv6Mj-1" vertex="1">
          <mxGeometry x="547" y="1430" width="120" height="20" as="geometry" />
        </mxCell>
        <mxCell id="vqjkbu3F0SVihYhNq-8o-9" value="Р2: Поднять рычаг" style="text;html=1;align=left;verticalAlign=middle;resizable=0;points=[];autosize=1;" parent="WTVdDayBTQ0MTywDv6Mj-1" vertex="1">
          <mxGeometry x="547" y="1450" width="120" height="20" as="geometry" />
        </mxCell>
        <mxCell id="vqjkbu3F0SVihYhNq-8o-10" value="&lt;table border=&quot;1&quot; width=&quot;100%&quot; style=&quot;width: 100% ; height: 100% ; border-collapse: collapse&quot;&gt;&lt;tbody&gt;&lt;tr&gt;&lt;td&gt;&lt;b&gt;№&lt;/b&gt;&lt;/td&gt;&lt;td&gt;&lt;b&gt;Р1&lt;/b&gt;&lt;/td&gt;&lt;td&gt;&lt;b&gt;Р2&lt;/b&gt;&lt;/td&gt;&lt;/tr&gt;&lt;tr&gt;&lt;td&gt;&lt;b&gt;1&lt;/b&gt;&lt;/td&gt;&lt;td&gt;2&lt;/td&gt;&lt;td&gt;-&lt;/td&gt;&lt;/tr&gt;&lt;tr&gt;&lt;td&gt;&lt;b&gt;2&lt;/b&gt;&lt;/td&gt;&lt;td&gt;-&lt;/td&gt;&lt;td&gt;1&lt;/td&gt;&lt;/tr&gt;&lt;/tbody&gt;&lt;/table&gt;" style="text;html=1;strokeColor=none;fillColor=none;overflow=fill;align=center;" parent="WTVdDayBTQ0MTywDv6Mj-1" vertex="1">
          <mxGeometry x="547" y="1485" width="183" height="95" as="geometry" />
        </mxCell>
        <mxCell id="ed72BDYkx698F_OWr5iG-0" value="&lt;b&gt;Таймер&lt;/b&gt;" style="text;html=1;align=center;verticalAlign=middle;resizable=0;points=[];autosize=1;" parent="WTVdDayBTQ0MTywDv6Mj-1" vertex="1">
          <mxGeometry x="394" y="1620" width="60" height="20" as="geometry" />
        </mxCell>
        <mxCell id="ed72BDYkx698F_OWr5iG-1" style="edgeStyle=orthogonalEdgeStyle;rounded=0;orthogonalLoop=1;jettySize=auto;html=1;exitX=0.5;exitY=0;exitDx=0;exitDy=0;startArrow=classic;startFill=1;endArrow=none;endFill=0;" parent="WTVdDayBTQ0MTywDv6Mj-1" source="ed72BDYkx698F_OWr5iG-4" edge="1">
          <mxGeometry relative="1" as="geometry">
            <mxPoint x="424" y="1650" as="targetPoint" />
          </mxGeometry>
        </mxCell>
        <mxCell id="ed72BDYkx698F_OWr5iG-2" style="edgeStyle=orthogonalEdgeStyle;rounded=0;orthogonalLoop=1;jettySize=auto;html=1;exitX=0.25;exitY=1;exitDx=0;exitDy=0;entryX=0.25;entryY=0;entryDx=0;entryDy=0;startArrow=none;startFill=0;endArrow=classic;endFill=1;" parent="WTVdDayBTQ0MTywDv6Mj-1" source="ed72BDYkx698F_OWr5iG-4" target="ed72BDYkx698F_OWr5iG-7" edge="1">
          <mxGeometry relative="1" as="geometry">
            <Array as="points">
              <mxPoint x="397" y="1800" />
              <mxPoint x="397" y="1800" />
            </Array>
          </mxGeometry>
        </mxCell>
        <mxCell id="ed72BDYkx698F_OWr5iG-3" value="ТМ1" style="edgeLabel;html=1;align=center;verticalAlign=middle;resizable=0;points=[];" parent="ed72BDYkx698F_OWr5iG-2" vertex="1" connectable="0">
          <mxGeometry x="-0.214" y="9" relative="1" as="geometry">
            <mxPoint x="-11.5" as="offset" />
          </mxGeometry>
        </mxCell>
        <mxCell id="ed72BDYkx698F_OWr5iG-4" value="1. Не установлен" style="html=1;" parent="WTVdDayBTQ0MTywDv6Mj-1" vertex="1">
          <mxGeometry x="369" y="1720" width="110" height="50" as="geometry" />
        </mxCell>
        <mxCell id="ed72BDYkx698F_OWr5iG-5" style="edgeStyle=orthogonalEdgeStyle;rounded=0;orthogonalLoop=1;jettySize=auto;html=1;exitX=0.75;exitY=0;exitDx=0;exitDy=0;entryX=0.75;entryY=1;entryDx=0;entryDy=0;startArrow=none;startFill=0;endArrow=classic;endFill=1;" parent="WTVdDayBTQ0MTywDv6Mj-1" source="ed72BDYkx698F_OWr5iG-7" target="ed72BDYkx698F_OWr5iG-4" edge="1">
          <mxGeometry relative="1" as="geometry">
            <Array as="points">
              <mxPoint x="452" y="1800" />
              <mxPoint x="452" y="1800" />
            </Array>
          </mxGeometry>
        </mxCell>
        <mxCell id="ed72BDYkx698F_OWr5iG-6" value="ТМ2" style="edgeLabel;html=1;align=center;verticalAlign=middle;resizable=0;points=[];" parent="ed72BDYkx698F_OWr5iG-5" vertex="1" connectable="0">
          <mxGeometry x="0.0922" y="1" relative="1" as="geometry">
            <mxPoint x="-1.5" y="-3" as="offset" />
          </mxGeometry>
        </mxCell>
        <mxCell id="MZdWhIfB51AL_46SsiLZ-0" value="ТМ3" style="edgeStyle=orthogonalEdgeStyle;rounded=0;orthogonalLoop=1;jettySize=auto;html=1;exitX=0.5;exitY=1;exitDx=0;exitDy=0;entryX=0.5;entryY=0;entryDx=0;entryDy=0;startArrow=none;startFill=0;endArrow=classic;endFill=1;" parent="WTVdDayBTQ0MTywDv6Mj-1" source="ed72BDYkx698F_OWr5iG-7" target="ed72BDYkx698F_OWr5iG-11" edge="1">
          <mxGeometry relative="1" as="geometry" />
        </mxCell>
        <mxCell id="ed72BDYkx698F_OWr5iG-7" value="2. Установлен" style="html=1;" parent="WTVdDayBTQ0MTywDv6Mj-1" vertex="1">
          <mxGeometry x="369" y="1820" width="110" height="50" as="geometry" />
        </mxCell>
        <mxCell id="ed72BDYkx698F_OWr5iG-8" value="ТМ1: Установить таймер" style="text;html=1;align=left;verticalAlign=middle;resizable=0;points=[];autosize=1;" parent="WTVdDayBTQ0MTywDv6Mj-1" vertex="1">
          <mxGeometry x="547" y="1720" width="150" height="20" as="geometry" />
        </mxCell>
        <mxCell id="ed72BDYkx698F_OWr5iG-9" value="ТМ2: Сбросить таймер" style="text;html=1;align=left;verticalAlign=middle;resizable=0;points=[];autosize=1;" parent="WTVdDayBTQ0MTywDv6Mj-1" vertex="1">
          <mxGeometry x="547" y="1740" width="140" height="20" as="geometry" />
        </mxCell>
        <mxCell id="MZdWhIfB51AL_46SsiLZ-1" value="ТМ4" style="edgeStyle=orthogonalEdgeStyle;rounded=0;orthogonalLoop=1;jettySize=auto;html=1;exitX=0.5;exitY=1;exitDx=0;exitDy=0;entryX=0.5;entryY=0;entryDx=0;entryDy=0;startArrow=none;startFill=0;endArrow=classic;endFill=1;" parent="WTVdDayBTQ0MTywDv6Mj-1" source="ed72BDYkx698F_OWr5iG-11" target="ed72BDYkx698F_OWr5iG-12" edge="1">
          <mxGeometry relative="1" as="geometry" />
        </mxCell>
        <mxCell id="MZdWhIfB51AL_46SsiLZ-3" value="ТМ5" style="edgeStyle=orthogonalEdgeStyle;rounded=0;orthogonalLoop=1;jettySize=auto;html=1;exitX=1;exitY=0.5;exitDx=0;exitDy=0;entryX=1;entryY=0.5;entryDx=0;entryDy=0;startArrow=none;startFill=0;endArrow=classic;endFill=1;" parent="WTVdDayBTQ0MTywDv6Mj-1" source="ed72BDYkx698F_OWr5iG-11" target="ed72BDYkx698F_OWr5iG-4" edge="1">
          <mxGeometry relative="1" as="geometry" />
        </mxCell>
        <mxCell id="ed72BDYkx698F_OWr5iG-11" value="3. Отсчет &lt;br&gt;времени" style="html=1;" parent="WTVdDayBTQ0MTywDv6Mj-1" vertex="1">
          <mxGeometry x="369" y="1920" width="110" height="50" as="geometry" />
        </mxCell>
        <mxCell id="MZdWhIfB51AL_46SsiLZ-2" value="ТМ5" style="edgeStyle=orthogonalEdgeStyle;rounded=0;orthogonalLoop=1;jettySize=auto;html=1;exitX=0;exitY=0.5;exitDx=0;exitDy=0;entryX=0;entryY=0.5;entryDx=0;entryDy=0;startArrow=none;startFill=0;endArrow=classic;endFill=1;" parent="WTVdDayBTQ0MTywDv6Mj-1" source="ed72BDYkx698F_OWr5iG-12" target="ed72BDYkx698F_OWr5iG-4" edge="1">
          <mxGeometry relative="1" as="geometry" />
        </mxCell>
        <mxCell id="ed72BDYkx698F_OWr5iG-12" value="4. Подача &lt;br&gt;сигнала" style="html=1;" parent="WTVdDayBTQ0MTywDv6Mj-1" vertex="1">
          <mxGeometry x="369" y="2020" width="110" height="50" as="geometry" />
        </mxCell>
        <mxCell id="MZdWhIfB51AL_46SsiLZ-4" value="ТМ3: Запустить таймер" style="text;html=1;align=left;verticalAlign=middle;resizable=0;points=[];autosize=1;" parent="WTVdDayBTQ0MTywDv6Mj-1" vertex="1">
          <mxGeometry x="547" y="1760" width="150" height="20" as="geometry" />
        </mxCell>
        <mxCell id="MZdWhIfB51AL_46SsiLZ-6" value="ТМ4: Время истекло" style="text;html=1;align=left;verticalAlign=middle;resizable=0;points=[];autosize=1;" parent="WTVdDayBTQ0MTywDv6Mj-1" vertex="1">
          <mxGeometry x="547" y="1780" width="130" height="20" as="geometry" />
        </mxCell>
        <mxCell id="MZdWhIfB51AL_46SsiLZ-7" value="ТМ5: Остановить таймер" style="text;html=1;align=left;verticalAlign=middle;resizable=0;points=[];autosize=1;" parent="WTVdDayBTQ0MTywDv6Mj-1" vertex="1">
          <mxGeometry x="547" y="1800" width="160" height="20" as="geometry" />
        </mxCell>
        <mxCell id="MZdWhIfB51AL_46SsiLZ-8" value="&lt;table border=&quot;1&quot; width=&quot;100%&quot; style=&quot;width: 100% ; height: 100% ; border-collapse: collapse&quot;&gt;&lt;tbody&gt;&lt;tr&gt;&lt;td&gt;&lt;b&gt;№&lt;/b&gt;&lt;/td&gt;&lt;td&gt;&lt;b&gt;ТМ1&lt;/b&gt;&lt;/td&gt;&lt;td&gt;&lt;b&gt;ТМ2&lt;/b&gt;&lt;/td&gt;&lt;td&gt;&lt;b&gt;ТМ3&lt;/b&gt;&lt;/td&gt;&lt;td&gt;&lt;b&gt;ТМ4&lt;/b&gt;&lt;/td&gt;&lt;td&gt;&lt;b&gt;ТМ5&lt;/b&gt;&lt;/td&gt;&lt;/tr&gt;&lt;tr&gt;&lt;td&gt;&lt;b&gt;1&lt;/b&gt;&lt;/td&gt;&lt;td&gt;2&lt;/td&gt;&lt;td&gt;-&lt;/td&gt;&lt;td&gt;-&lt;/td&gt;&lt;td&gt;-&lt;/td&gt;&lt;td&gt;-&lt;/td&gt;&lt;/tr&gt;&lt;tr&gt;&lt;td&gt;&lt;b&gt;2&lt;/b&gt;&lt;/td&gt;&lt;td&gt;-&lt;/td&gt;&lt;td&gt;1&lt;/td&gt;&lt;td&gt;3&lt;/td&gt;&lt;td&gt;-&lt;/td&gt;&lt;td&gt;-&lt;/td&gt;&lt;/tr&gt;&lt;tr&gt;&lt;td&gt;&lt;b&gt;3&lt;/b&gt;&lt;/td&gt;&lt;td&gt;-&lt;/td&gt;&lt;td&gt;-&lt;/td&gt;&lt;td&gt;-&lt;/td&gt;&lt;td&gt;4&lt;/td&gt;&lt;td&gt;1&lt;/td&gt;&lt;/tr&gt;&lt;tr&gt;&lt;td&gt;&lt;b&gt;4&lt;/b&gt;&lt;/td&gt;&lt;td&gt;-&lt;/td&gt;&lt;td&gt;-&lt;/td&gt;&lt;td&gt;-&lt;/td&gt;&lt;td&gt;-&lt;/td&gt;&lt;td&gt;1&lt;/td&gt;&lt;/tr&gt;&lt;/tbody&gt;&lt;/table&gt;" style="text;html=1;strokeColor=none;fillColor=none;overflow=fill;align=center;" parent="WTVdDayBTQ0MTywDv6Mj-1" vertex="1">
          <mxGeometry x="538.5" y="1840" width="180" height="140" as="geometry" />
        </mxCell>
      </root>
    </mxGraphModel>
  </diagram>
  <diagram name="Тостер МВО" id="9NrZWoF1QOghf_69GuvQ">
    <mxGraphModel dx="946" dy="527" grid="1" gridSize="10" guides="1" tooltips="1" connect="1" arrows="1" fold="1" page="1" pageScale="1" pageWidth="827" pageHeight="1169" math="0" shadow="0">
      <root>
        <mxCell id="ZtCL0BUTYMkzUZmzJPe1-0" />
        <mxCell id="ZtCL0BUTYMkzUZmzJPe1-1" parent="ZtCL0BUTYMkzUZmzJPe1-0" />
        <mxCell id="x40mXdg_AZs8AtjRagpt-0" value="Т1, Т2, Т3, Т4, Т6" style="edgeStyle=orthogonalEdgeStyle;rounded=0;orthogonalLoop=1;jettySize=auto;html=1;exitX=0.5;exitY=0.5;exitDx=0;exitDy=0;exitPerimeter=0;entryX=0.5;entryY=0;entryDx=0;entryDy=0;startArrow=none;startFill=0;endArrow=classic;endFill=1;" parent="ZtCL0BUTYMkzUZmzJPe1-1" source="ZtCL0BUTYMkzUZmzJPe1-2" target="-h9-dSLYkl4u2HNvDM2l-0" edge="1">
          <mxGeometry x="0.4545" relative="1" as="geometry">
            <mxPoint as="offset" />
          </mxGeometry>
        </mxCell>
        <mxCell id="ZtCL0BUTYMkzUZmzJPe1-2" value="Пользователь" style="shape=umlActor;verticalLabelPosition=bottom;labelBackgroundColor=#ffffff;verticalAlign=top;html=1;" parent="ZtCL0BUTYMkzUZmzJPe1-1" vertex="1">
          <mxGeometry x="399" y="10" width="30" height="60" as="geometry" />
        </mxCell>
        <mxCell id="SvMRrDuTBZ_MM79UdATc-0" value="В1, В2" style="edgeStyle=orthogonalEdgeStyle;rounded=0;orthogonalLoop=1;jettySize=auto;html=1;exitX=0;exitY=0.25;exitDx=0;exitDy=0;entryX=0.5;entryY=0;entryDx=0;entryDy=0;startArrow=none;startFill=0;endArrow=classic;endFill=1;" parent="ZtCL0BUTYMkzUZmzJPe1-1" source="-h9-dSLYkl4u2HNvDM2l-0" target="-h9-dSLYkl4u2HNvDM2l-1" edge="1">
          <mxGeometry relative="1" as="geometry" />
        </mxCell>
        <mxCell id="SvMRrDuTBZ_MM79UdATc-1" value="НЭ1, НЭ2" style="edgeStyle=orthogonalEdgeStyle;rounded=0;orthogonalLoop=1;jettySize=auto;html=1;exitX=0;exitY=0.5;exitDx=0;exitDy=0;entryX=0.5;entryY=0;entryDx=0;entryDy=0;startArrow=none;startFill=0;endArrow=classic;endFill=1;" parent="ZtCL0BUTYMkzUZmzJPe1-1" source="-h9-dSLYkl4u2HNvDM2l-0" target="-h9-dSLYkl4u2HNvDM2l-2" edge="1">
          <mxGeometry relative="1" as="geometry" />
        </mxCell>
        <mxCell id="SvMRrDuTBZ_MM79UdATc-2" value="РО1, РО2" style="edgeStyle=orthogonalEdgeStyle;rounded=0;orthogonalLoop=1;jettySize=auto;html=1;exitX=0.5;exitY=1;exitDx=0;exitDy=0;entryX=0.5;entryY=0;entryDx=0;entryDy=0;startArrow=none;startFill=0;endArrow=classic;endFill=1;" parent="ZtCL0BUTYMkzUZmzJPe1-1" source="-h9-dSLYkl4u2HNvDM2l-0" target="-h9-dSLYkl4u2HNvDM2l-3" edge="1">
          <mxGeometry relative="1" as="geometry" />
        </mxCell>
        <mxCell id="SvMRrDuTBZ_MM79UdATc-3" value="Р1, Р2" style="edgeStyle=orthogonalEdgeStyle;rounded=0;orthogonalLoop=1;jettySize=auto;html=1;exitX=1;exitY=0.5;exitDx=0;exitDy=0;entryX=0.5;entryY=0;entryDx=0;entryDy=0;startArrow=none;startFill=0;endArrow=classic;endFill=1;" parent="ZtCL0BUTYMkzUZmzJPe1-1" source="-h9-dSLYkl4u2HNvDM2l-0" target="-h9-dSLYkl4u2HNvDM2l-4" edge="1">
          <mxGeometry relative="1" as="geometry" />
        </mxCell>
        <mxCell id="SvMRrDuTBZ_MM79UdATc-4" value="ТМ1, ТМ2, ТМ3, ТМ4, ТМ5" style="edgeStyle=orthogonalEdgeStyle;rounded=0;orthogonalLoop=1;jettySize=auto;html=1;exitX=1;exitY=0.25;exitDx=0;exitDy=0;entryX=0.5;entryY=0;entryDx=0;entryDy=0;startArrow=none;startFill=0;endArrow=classic;endFill=1;" parent="ZtCL0BUTYMkzUZmzJPe1-1" source="-h9-dSLYkl4u2HNvDM2l-0" target="-h9-dSLYkl4u2HNvDM2l-5" edge="1">
          <mxGeometry relative="1" as="geometry" />
        </mxCell>
        <mxCell id="-h9-dSLYkl4u2HNvDM2l-0" value="1. Тостер" style="html=1;align=center;" parent="ZtCL0BUTYMkzUZmzJPe1-1" vertex="1">
          <mxGeometry x="359" y="150" width="110" height="50" as="geometry" />
        </mxCell>
        <mxCell id="-h9-dSLYkl4u2HNvDM2l-1" value="2. Вилка" style="html=1;align=center;" parent="ZtCL0BUTYMkzUZmzJPe1-1" vertex="1">
          <mxGeometry x="60" y="290" width="110" height="50" as="geometry" />
        </mxCell>
        <mxCell id="-h9-dSLYkl4u2HNvDM2l-2" value="3. Нагревательный&lt;br&gt;элемент" style="html=1;align=center;" parent="ZtCL0BUTYMkzUZmzJPe1-1" vertex="1">
          <mxGeometry x="210" y="290" width="110" height="50" as="geometry" />
        </mxCell>
        <mxCell id="-h9-dSLYkl4u2HNvDM2l-3" value="4. Регулятор&lt;br&gt;обжарки" style="html=1;align=center;" parent="ZtCL0BUTYMkzUZmzJPe1-1" vertex="1">
          <mxGeometry x="359" y="290" width="110" height="50" as="geometry" />
        </mxCell>
        <mxCell id="-h9-dSLYkl4u2HNvDM2l-4" value="5. Рычаг" style="html=1;align=center;" parent="ZtCL0BUTYMkzUZmzJPe1-1" vertex="1">
          <mxGeometry x="510" y="290" width="110" height="50" as="geometry" />
        </mxCell>
        <mxCell id="-h9-dSLYkl4u2HNvDM2l-5" value="6. Таймер" style="html=1;align=center;" parent="ZtCL0BUTYMkzUZmzJPe1-1" vertex="1">
          <mxGeometry x="660" y="290" width="110" height="50" as="geometry" />
        </mxCell>
      </root>
    </mxGraphModel>
  </diagram>
  <diagram name="Тостер ДПДД" id="ryG1HiD792C-J_BGquxx">
    <mxGraphModel dx="1351" dy="753" grid="1" gridSize="10" guides="1" tooltips="1" connect="1" arrows="1" fold="1" page="0" pageScale="1" pageWidth="827" pageHeight="1169" background="none" math="0" shadow="0">
      <root>
        <mxCell id="GJAqLuctV7d4QnNTkr7x-0" />
        <mxCell id="GJAqLuctV7d4QnNTkr7x-1" parent="GJAqLuctV7d4QnNTkr7x-0" />
        <mxCell id="BpFDrMuh5vd0_wAD87SY-0" value="&lt;b&gt;Тостер&lt;/b&gt;" style="text;html=1;align=center;verticalAlign=middle;resizable=0;points=[];autosize=1;" parent="GJAqLuctV7d4QnNTkr7x-1" vertex="1">
          <mxGeometry x="384" y="10" width="60" height="20" as="geometry" />
        </mxCell>
        <mxCell id="BpFDrMuh5vd0_wAD87SY-1" value="&lt;b&gt;1. Выключен&lt;/b&gt;" style="text;html=1;align=center;verticalAlign=middle;resizable=0;points=[];autosize=1;" parent="GJAqLuctV7d4QnNTkr7x-1" vertex="1">
          <mxGeometry x="369" y="30" width="90" height="20" as="geometry" />
        </mxCell>
        <mxCell id="faamsp-mh8aDob4YJxJi-3" value="Состояние" style="edgeStyle=orthogonalEdgeStyle;rounded=0;orthogonalLoop=1;jettySize=auto;html=1;exitX=0.5;exitY=1;exitDx=0;exitDy=0;entryX=0.5;entryY=0;entryDx=0;entryDy=0;startArrow=none;startFill=0;endArrow=classic;endFill=1;" parent="GJAqLuctV7d4QnNTkr7x-1" source="faamsp-mh8aDob4YJxJi-0" target="faamsp-mh8aDob4YJxJi-2" edge="1">
          <mxGeometry relative="1" as="geometry" />
        </mxCell>
        <mxCell id="faamsp-mh8aDob4YJxJi-0" value="Т1.1. Считать состояние" style="ellipse;whiteSpace=wrap;html=1;" parent="GJAqLuctV7d4QnNTkr7x-1" vertex="1">
          <mxGeometry x="354" y="240" width="120" height="80" as="geometry" />
        </mxCell>
        <mxCell id="faamsp-mh8aDob4YJxJi-5" value="Состояние == 2" style="edgeStyle=orthogonalEdgeStyle;rounded=0;orthogonalLoop=1;jettySize=auto;html=1;exitX=0.5;exitY=1;exitDx=0;exitDy=0;entryX=0.5;entryY=0;entryDx=0;entryDy=0;startArrow=none;startFill=0;endArrow=classic;endFill=1;dashed=1;" parent="GJAqLuctV7d4QnNTkr7x-1" source="faamsp-mh8aDob4YJxJi-2" target="faamsp-mh8aDob4YJxJi-4" edge="1">
          <mxGeometry relative="1" as="geometry" />
        </mxCell>
        <mxCell id="faamsp-mh8aDob4YJxJi-2" value="Т1.2. Проверить состояние" style="ellipse;whiteSpace=wrap;html=1;" parent="GJAqLuctV7d4QnNTkr7x-1" vertex="1">
          <mxGeometry x="354" y="370" width="120" height="80" as="geometry" />
        </mxCell>
        <mxCell id="faamsp-mh8aDob4YJxJi-7" style="edgeStyle=orthogonalEdgeStyle;rounded=0;orthogonalLoop=1;jettySize=auto;html=1;exitX=0.5;exitY=1;exitDx=0;exitDy=0;entryX=0.5;entryY=0;entryDx=0;entryDy=0;startArrow=none;startFill=0;endArrow=classic;endFill=1;dashed=1;" parent="GJAqLuctV7d4QnNTkr7x-1" source="faamsp-mh8aDob4YJxJi-4" target="faamsp-mh8aDob4YJxJi-6" edge="1">
          <mxGeometry relative="1" as="geometry" />
        </mxCell>
        <mxCell id="faamsp-mh8aDob4YJxJi-10" value="Состояние" style="edgeStyle=orthogonalEdgeStyle;rounded=0;orthogonalLoop=1;jettySize=auto;html=1;exitX=0;exitY=0.5;exitDx=0;exitDy=0;entryX=1;entryY=0.5;entryDx=0;entryDy=0;startArrow=none;startFill=0;endArrow=classic;endFill=1;" parent="GJAqLuctV7d4QnNTkr7x-1" source="faamsp-mh8aDob4YJxJi-4" target="faamsp-mh8aDob4YJxJi-9" edge="1">
          <mxGeometry relative="1" as="geometry" />
        </mxCell>
        <mxCell id="faamsp-mh8aDob4YJxJi-4" value="Т1.3. Изменить Состояние&lt;br&gt;Состояние = 1" style="ellipse;whiteSpace=wrap;html=1;" parent="GJAqLuctV7d4QnNTkr7x-1" vertex="1">
          <mxGeometry x="354" y="500" width="120" height="80" as="geometry" />
        </mxCell>
        <mxCell id="faamsp-mh8aDob4YJxJi-8" style="edgeStyle=orthogonalEdgeStyle;rounded=0;orthogonalLoop=1;jettySize=auto;html=1;exitX=1;exitY=0.5;exitDx=0;exitDy=0;startArrow=none;startFill=0;endArrow=classic;endFill=1;" parent="GJAqLuctV7d4QnNTkr7x-1" source="faamsp-mh8aDob4YJxJi-6" edge="1">
          <mxGeometry relative="1" as="geometry">
            <mxPoint x="560" y="670" as="targetPoint" />
          </mxGeometry>
        </mxCell>
        <mxCell id="faamsp-mh8aDob4YJxJi-6" value="Т1.4. Породить событие В2" style="ellipse;whiteSpace=wrap;html=1;" parent="GJAqLuctV7d4QnNTkr7x-1" vertex="1">
          <mxGeometry x="354" y="630" width="120" height="80" as="geometry" />
        </mxCell>
        <mxCell id="faamsp-mh8aDob4YJxJi-12" value="Состояние" style="edgeStyle=orthogonalEdgeStyle;rounded=0;orthogonalLoop=1;jettySize=auto;html=1;exitX=0.5;exitY=0;exitDx=0;exitDy=0;entryX=0.5;entryY=1;entryDx=0;entryDy=0;startArrow=none;startFill=0;endArrow=classic;endFill=1;" parent="GJAqLuctV7d4QnNTkr7x-1" source="faamsp-mh8aDob4YJxJi-9" target="faamsp-mh8aDob4YJxJi-11" edge="1">
          <mxGeometry relative="1" as="geometry" />
        </mxCell>
        <mxCell id="faamsp-mh8aDob4YJxJi-9" value="Т1.5. Записать Состояние" style="ellipse;whiteSpace=wrap;html=1;" parent="GJAqLuctV7d4QnNTkr7x-1" vertex="1">
          <mxGeometry x="130" y="500" width="120" height="80" as="geometry" />
        </mxCell>
        <mxCell id="faamsp-mh8aDob4YJxJi-13" value="Состояние" style="edgeStyle=orthogonalEdgeStyle;rounded=0;orthogonalLoop=1;jettySize=auto;html=1;exitX=1;exitY=0.5;exitDx=0;exitDy=0;entryX=0;entryY=0.5;entryDx=0;entryDy=0;startArrow=none;startFill=0;endArrow=classic;endFill=1;" parent="GJAqLuctV7d4QnNTkr7x-1" source="faamsp-mh8aDob4YJxJi-11" target="faamsp-mh8aDob4YJxJi-0" edge="1">
          <mxGeometry relative="1" as="geometry" />
        </mxCell>
        <mxCell id="faamsp-mh8aDob4YJxJi-11" value="Тостер" style="html=1;" parent="GJAqLuctV7d4QnNTkr7x-1" vertex="1">
          <mxGeometry x="135" y="255" width="110" height="50" as="geometry" />
        </mxCell>
        <mxCell id="9dmOBC8IWpIxxdxAt0pt-2" style="edgeStyle=orthogonalEdgeStyle;rounded=0;orthogonalLoop=1;jettySize=auto;html=1;exitX=0.5;exitY=0;exitDx=0;exitDy=0;startArrow=classic;startFill=1;endArrow=none;endFill=0;" parent="GJAqLuctV7d4QnNTkr7x-1" source="9dmOBC8IWpIxxdxAt0pt-0" edge="1">
          <mxGeometry relative="1" as="geometry">
            <mxPoint x="414" y="60" as="targetPoint" />
          </mxGeometry>
        </mxCell>
        <mxCell id="M3xswwOsh6h9f35eQnij-0" style="edgeStyle=orthogonalEdgeStyle;rounded=0;orthogonalLoop=1;jettySize=auto;html=1;exitX=1;exitY=0.5;exitDx=0;exitDy=0;entryX=0.994;entryY=0.564;entryDx=0;entryDy=0;entryPerimeter=0;dashed=1;startArrow=none;startFill=0;endArrow=classic;endFill=1;" parent="GJAqLuctV7d4QnNTkr7x-1" source="9dmOBC8IWpIxxdxAt0pt-0" target="faamsp-mh8aDob4YJxJi-2" edge="1">
          <mxGeometry relative="1" as="geometry" />
        </mxCell>
        <mxCell id="9dmOBC8IWpIxxdxAt0pt-0" value="Т1.0. Принять событие" style="ellipse;whiteSpace=wrap;html=1;" parent="GJAqLuctV7d4QnNTkr7x-1" vertex="1">
          <mxGeometry x="354" y="110" width="120" height="80" as="geometry" />
        </mxCell>
        <mxCell id="9dmOBC8IWpIxxdxAt0pt-3" value="&lt;b&gt;Тостер&lt;/b&gt;" style="text;html=1;align=center;verticalAlign=middle;resizable=0;points=[];autosize=1;" parent="GJAqLuctV7d4QnNTkr7x-1" vertex="1">
          <mxGeometry x="389" y="760" width="60" height="20" as="geometry" />
        </mxCell>
        <mxCell id="9dmOBC8IWpIxxdxAt0pt-4" value="&lt;b&gt;2. Режим ожидания&lt;/b&gt;" style="text;html=1;align=center;verticalAlign=middle;resizable=0;points=[];autosize=1;" parent="GJAqLuctV7d4QnNTkr7x-1" vertex="1">
          <mxGeometry x="354" y="780" width="130" height="20" as="geometry" />
        </mxCell>
        <mxCell id="9dmOBC8IWpIxxdxAt0pt-5" value="СостояниеТ" style="edgeStyle=orthogonalEdgeStyle;rounded=0;orthogonalLoop=1;jettySize=auto;html=1;exitX=0.5;exitY=1;exitDx=0;exitDy=0;entryX=0.5;entryY=0;entryDx=0;entryDy=0;startArrow=none;startFill=0;endArrow=classic;endFill=1;" parent="GJAqLuctV7d4QnNTkr7x-1" source="9dmOBC8IWpIxxdxAt0pt-6" target="9dmOBC8IWpIxxdxAt0pt-8" edge="1">
          <mxGeometry relative="1" as="geometry" />
        </mxCell>
        <mxCell id="9dmOBC8IWpIxxdxAt0pt-6" value="Т2.1. Считать состояние тостера" style="ellipse;whiteSpace=wrap;html=1;" parent="GJAqLuctV7d4QnNTkr7x-1" vertex="1">
          <mxGeometry x="359" y="990" width="120" height="80" as="geometry" />
        </mxCell>
        <mxCell id="9dmOBC8IWpIxxdxAt0pt-7" value="СостояниеТ == 1 || СостояниеТ == 4" style="edgeStyle=orthogonalEdgeStyle;rounded=0;orthogonalLoop=1;jettySize=auto;html=1;exitX=0.5;exitY=1;exitDx=0;exitDy=0;entryX=0.5;entryY=0;entryDx=0;entryDy=0;startArrow=none;startFill=0;endArrow=classic;endFill=1;dashed=1;" parent="GJAqLuctV7d4QnNTkr7x-1" source="9dmOBC8IWpIxxdxAt0pt-8" target="9dmOBC8IWpIxxdxAt0pt-11" edge="1">
          <mxGeometry relative="1" as="geometry" />
        </mxCell>
        <mxCell id="9dmOBC8IWpIxxdxAt0pt-8" value="Т2.2. Проверить состояние тостера" style="ellipse;whiteSpace=wrap;html=1;" parent="GJAqLuctV7d4QnNTkr7x-1" vertex="1">
          <mxGeometry x="359" y="1120" width="120" height="80" as="geometry" />
        </mxCell>
        <mxCell id="9dmOBC8IWpIxxdxAt0pt-10" value="СостояниеТ" style="edgeStyle=orthogonalEdgeStyle;rounded=0;orthogonalLoop=1;jettySize=auto;html=1;exitX=0.5;exitY=1;exitDx=0;exitDy=0;entryX=0.5;entryY=0;entryDx=0;entryDy=0;startArrow=none;startFill=0;endArrow=classic;endFill=1;" parent="GJAqLuctV7d4QnNTkr7x-1" source="9dmOBC8IWpIxxdxAt0pt-11" target="9dmOBC8IWpIxxdxAt0pt-15" edge="1">
          <mxGeometry relative="1" as="geometry" />
        </mxCell>
        <mxCell id="9dmOBC8IWpIxxdxAt0pt-11" value="Т2.3. Изменить СостояниеТ&lt;br&gt;СостояниеТ = 2" style="ellipse;whiteSpace=wrap;html=1;" parent="GJAqLuctV7d4QnNTkr7x-1" vertex="1">
          <mxGeometry x="359" y="1250" width="120" height="80" as="geometry" />
        </mxCell>
        <mxCell id="9dmOBC8IWpIxxdxAt0pt-14" value="СостояниеТ" style="edgeStyle=orthogonalEdgeStyle;rounded=0;orthogonalLoop=1;jettySize=auto;html=1;exitX=0;exitY=0.5;exitDx=0;exitDy=0;entryX=0.5;entryY=1;entryDx=0;entryDy=0;startArrow=none;startFill=0;endArrow=classic;endFill=1;" parent="GJAqLuctV7d4QnNTkr7x-1" source="9dmOBC8IWpIxxdxAt0pt-15" target="9dmOBC8IWpIxxdxAt0pt-17" edge="1">
          <mxGeometry relative="1" as="geometry" />
        </mxCell>
        <mxCell id="8Wl-aSVm6psGy_k47LFs-2" style="edgeStyle=orthogonalEdgeStyle;rounded=0;orthogonalLoop=1;jettySize=auto;html=1;exitX=1;exitY=0.5;exitDx=0;exitDy=0;entryX=0;entryY=0.5;entryDx=0;entryDy=0;startArrow=none;startFill=0;endArrow=classic;endFill=1;dashed=1;" parent="GJAqLuctV7d4QnNTkr7x-1" source="9dmOBC8IWpIxxdxAt0pt-15" target="8Wl-aSVm6psGy_k47LFs-1" edge="1">
          <mxGeometry relative="1" as="geometry" />
        </mxCell>
        <mxCell id="9dmOBC8IWpIxxdxAt0pt-15" value="Т2.4. Записать СостояниеТ" style="ellipse;whiteSpace=wrap;html=1;" parent="GJAqLuctV7d4QnNTkr7x-1" vertex="1">
          <mxGeometry x="359" y="1380" width="120" height="80" as="geometry" />
        </mxCell>
        <mxCell id="9dmOBC8IWpIxxdxAt0pt-16" value="СостояниеТ" style="edgeStyle=orthogonalEdgeStyle;rounded=0;orthogonalLoop=1;jettySize=auto;html=1;exitX=1;exitY=0.5;exitDx=0;exitDy=0;entryX=0;entryY=0.5;entryDx=0;entryDy=0;startArrow=none;startFill=0;endArrow=classic;endFill=1;" parent="GJAqLuctV7d4QnNTkr7x-1" source="9dmOBC8IWpIxxdxAt0pt-17" target="9dmOBC8IWpIxxdxAt0pt-6" edge="1">
          <mxGeometry relative="1" as="geometry" />
        </mxCell>
        <mxCell id="9dmOBC8IWpIxxdxAt0pt-17" value="Тостер" style="html=1;" parent="GJAqLuctV7d4QnNTkr7x-1" vertex="1">
          <mxGeometry x="140" y="1005" width="110" height="50" as="geometry" />
        </mxCell>
        <mxCell id="9dmOBC8IWpIxxdxAt0pt-19" style="edgeStyle=orthogonalEdgeStyle;rounded=0;orthogonalLoop=1;jettySize=auto;html=1;exitX=0.5;exitY=0;exitDx=0;exitDy=0;startArrow=classic;startFill=1;endArrow=none;endFill=0;" parent="GJAqLuctV7d4QnNTkr7x-1" source="9dmOBC8IWpIxxdxAt0pt-20" edge="1">
          <mxGeometry relative="1" as="geometry">
            <mxPoint x="419" y="810" as="targetPoint" />
          </mxGeometry>
        </mxCell>
        <mxCell id="M3xswwOsh6h9f35eQnij-1" style="edgeStyle=orthogonalEdgeStyle;rounded=0;orthogonalLoop=1;jettySize=auto;html=1;exitX=1;exitY=0.5;exitDx=0;exitDy=0;entryX=1;entryY=0.5;entryDx=0;entryDy=0;dashed=1;startArrow=none;startFill=0;endArrow=classic;endFill=1;" parent="GJAqLuctV7d4QnNTkr7x-1" source="9dmOBC8IWpIxxdxAt0pt-20" target="9dmOBC8IWpIxxdxAt0pt-8" edge="1">
          <mxGeometry relative="1" as="geometry" />
        </mxCell>
        <mxCell id="9dmOBC8IWpIxxdxAt0pt-20" value="Т2.0. Принять событие" style="ellipse;whiteSpace=wrap;html=1;" parent="GJAqLuctV7d4QnNTkr7x-1" vertex="1">
          <mxGeometry x="359" y="860" width="120" height="80" as="geometry" />
        </mxCell>
        <mxCell id="eo1vOUJSKPXQdKr5qjcm-3" value="СостояниеРО" style="edgeStyle=orthogonalEdgeStyle;rounded=0;orthogonalLoop=1;jettySize=auto;html=1;exitX=0.5;exitY=1;exitDx=0;exitDy=0;entryX=0.5;entryY=0;entryDx=0;entryDy=0;startArrow=none;startFill=0;endArrow=classic;endFill=1;" parent="GJAqLuctV7d4QnNTkr7x-1" source="8Wl-aSVm6psGy_k47LFs-1" target="eo1vOUJSKPXQdKr5qjcm-2" edge="1">
          <mxGeometry relative="1" as="geometry" />
        </mxCell>
        <mxCell id="8Wl-aSVm6psGy_k47LFs-1" value="Т2.5. Считать состояние регулятора" style="ellipse;whiteSpace=wrap;html=1;" parent="GJAqLuctV7d4QnNTkr7x-1" vertex="1">
          <mxGeometry x="540" y="1380" width="120" height="80" as="geometry" />
        </mxCell>
        <mxCell id="eo1vOUJSKPXQdKr5qjcm-1" value="СостояниеРО" style="edgeStyle=orthogonalEdgeStyle;rounded=0;orthogonalLoop=1;jettySize=auto;html=1;exitX=0.5;exitY=1;exitDx=0;exitDy=0;entryX=0.5;entryY=0;entryDx=0;entryDy=0;startArrow=none;startFill=0;endArrow=classic;endFill=1;" parent="GJAqLuctV7d4QnNTkr7x-1" source="eo1vOUJSKPXQdKr5qjcm-0" target="8Wl-aSVm6psGy_k47LFs-1" edge="1">
          <mxGeometry relative="1" as="geometry" />
        </mxCell>
        <mxCell id="eo1vOUJSKPXQdKr5qjcm-0" value="Регулятор &lt;br&gt;обжарки" style="html=1;" parent="GJAqLuctV7d4QnNTkr7x-1" vertex="1">
          <mxGeometry x="545" y="1265" width="110" height="50" as="geometry" />
        </mxCell>
        <mxCell id="N3c5fbNlLKNSTU4hxYUX-0" value="СостояниеРО == 2" style="edgeStyle=orthogonalEdgeStyle;rounded=0;orthogonalLoop=1;jettySize=auto;html=1;exitX=0;exitY=0.5;exitDx=0;exitDy=0;entryX=1;entryY=0.5;entryDx=0;entryDy=0;startArrow=none;startFill=0;endArrow=classic;endFill=1;dashed=1;" parent="GJAqLuctV7d4QnNTkr7x-1" source="eo1vOUJSKPXQdKr5qjcm-2" target="-P9XjbMxX2e68eat4lF5-0" edge="1">
          <mxGeometry relative="1" as="geometry" />
        </mxCell>
        <mxCell id="eo1vOUJSKPXQdKr5qjcm-2" value="Т2.6. Проверить состояние регулятора" style="ellipse;whiteSpace=wrap;html=1;" parent="GJAqLuctV7d4QnNTkr7x-1" vertex="1">
          <mxGeometry x="540" y="1530" width="120" height="80" as="geometry" />
        </mxCell>
        <mxCell id="8Pui4u7qCIeKWxzLVBMN-0" style="edgeStyle=orthogonalEdgeStyle;rounded=0;orthogonalLoop=1;jettySize=auto;html=1;exitX=0;exitY=0.5;exitDx=0;exitDy=0;startArrow=none;startFill=0;endArrow=classic;endFill=1;" parent="GJAqLuctV7d4QnNTkr7x-1" source="-P9XjbMxX2e68eat4lF5-0" edge="1">
          <mxGeometry relative="1" as="geometry">
            <mxPoint x="190" y="1570" as="targetPoint" />
          </mxGeometry>
        </mxCell>
        <mxCell id="-P9XjbMxX2e68eat4lF5-0" value="Т2.8. Породить событие ТМ1" style="ellipse;whiteSpace=wrap;html=1;" parent="GJAqLuctV7d4QnNTkr7x-1" vertex="1">
          <mxGeometry x="280" y="1530" width="120" height="80" as="geometry" />
        </mxCell>
        <mxCell id="N3c5fbNlLKNSTU4hxYUX-2" value="&lt;b&gt;Тостер&lt;/b&gt;" style="text;html=1;align=center;verticalAlign=middle;resizable=0;points=[];autosize=1;" parent="GJAqLuctV7d4QnNTkr7x-1" vertex="1">
          <mxGeometry x="389" y="1800" width="60" height="20" as="geometry" />
        </mxCell>
        <mxCell id="N3c5fbNlLKNSTU4hxYUX-3" value="&lt;b&gt;3. Таймер обжарки установлен&lt;/b&gt;" style="text;html=1;align=center;verticalAlign=middle;resizable=0;points=[];autosize=1;" parent="GJAqLuctV7d4QnNTkr7x-1" vertex="1">
          <mxGeometry x="319" y="1820" width="200" height="20" as="geometry" />
        </mxCell>
        <mxCell id="N3c5fbNlLKNSTU4hxYUX-4" value="СостояниеТ" style="edgeStyle=orthogonalEdgeStyle;rounded=0;orthogonalLoop=1;jettySize=auto;html=1;exitX=0.5;exitY=1;exitDx=0;exitDy=0;entryX=0.5;entryY=0;entryDx=0;entryDy=0;startArrow=none;startFill=0;endArrow=classic;endFill=1;" parent="GJAqLuctV7d4QnNTkr7x-1" source="N3c5fbNlLKNSTU4hxYUX-5" target="N3c5fbNlLKNSTU4hxYUX-7" edge="1">
          <mxGeometry relative="1" as="geometry" />
        </mxCell>
        <mxCell id="N3c5fbNlLKNSTU4hxYUX-5" value="Т3.1. Считать состояние тостера" style="ellipse;whiteSpace=wrap;html=1;" parent="GJAqLuctV7d4QnNTkr7x-1" vertex="1">
          <mxGeometry x="359" y="2030" width="120" height="80" as="geometry" />
        </mxCell>
        <mxCell id="N3c5fbNlLKNSTU4hxYUX-6" value="СостояниеТ == 2" style="edgeStyle=orthogonalEdgeStyle;rounded=0;orthogonalLoop=1;jettySize=auto;html=1;exitX=0.5;exitY=1;exitDx=0;exitDy=0;entryX=0.5;entryY=0;entryDx=0;entryDy=0;startArrow=none;startFill=0;endArrow=classic;endFill=1;dashed=1;" parent="GJAqLuctV7d4QnNTkr7x-1" source="N3c5fbNlLKNSTU4hxYUX-7" target="N3c5fbNlLKNSTU4hxYUX-9" edge="1">
          <mxGeometry relative="1" as="geometry" />
        </mxCell>
        <mxCell id="N3c5fbNlLKNSTU4hxYUX-7" value="Т3.2. Проверить состояние тостера" style="ellipse;whiteSpace=wrap;html=1;" parent="GJAqLuctV7d4QnNTkr7x-1" vertex="1">
          <mxGeometry x="359" y="2160" width="120" height="80" as="geometry" />
        </mxCell>
        <mxCell id="N3c5fbNlLKNSTU4hxYUX-8" value="СостояниеТ" style="edgeStyle=orthogonalEdgeStyle;rounded=0;orthogonalLoop=1;jettySize=auto;html=1;exitX=0.5;exitY=1;exitDx=0;exitDy=0;entryX=0.5;entryY=0;entryDx=0;entryDy=0;startArrow=none;startFill=0;endArrow=classic;endFill=1;" parent="GJAqLuctV7d4QnNTkr7x-1" source="N3c5fbNlLKNSTU4hxYUX-9" target="N3c5fbNlLKNSTU4hxYUX-12" edge="1">
          <mxGeometry relative="1" as="geometry" />
        </mxCell>
        <mxCell id="N3c5fbNlLKNSTU4hxYUX-9" value="Т3.3. Изменить СостояниеТ&lt;br&gt;СостояниеТ = 3" style="ellipse;whiteSpace=wrap;html=1;" parent="GJAqLuctV7d4QnNTkr7x-1" vertex="1">
          <mxGeometry x="359" y="2290" width="120" height="80" as="geometry" />
        </mxCell>
        <mxCell id="N3c5fbNlLKNSTU4hxYUX-10" value="СостояниеТ" style="edgeStyle=orthogonalEdgeStyle;rounded=0;orthogonalLoop=1;jettySize=auto;html=1;exitX=0;exitY=0.5;exitDx=0;exitDy=0;entryX=0.5;entryY=1;entryDx=0;entryDy=0;startArrow=none;startFill=0;endArrow=classic;endFill=1;" parent="GJAqLuctV7d4QnNTkr7x-1" source="N3c5fbNlLKNSTU4hxYUX-12" target="N3c5fbNlLKNSTU4hxYUX-14" edge="1">
          <mxGeometry relative="1" as="geometry" />
        </mxCell>
        <mxCell id="N3c5fbNlLKNSTU4hxYUX-11" style="edgeStyle=orthogonalEdgeStyle;rounded=0;orthogonalLoop=1;jettySize=auto;html=1;exitX=1;exitY=0.5;exitDx=0;exitDy=0;entryX=0;entryY=0.5;entryDx=0;entryDy=0;startArrow=none;startFill=0;endArrow=classic;endFill=1;dashed=1;" parent="GJAqLuctV7d4QnNTkr7x-1" source="N3c5fbNlLKNSTU4hxYUX-12" target="N3c5fbNlLKNSTU4hxYUX-19" edge="1">
          <mxGeometry relative="1" as="geometry" />
        </mxCell>
        <mxCell id="N3c5fbNlLKNSTU4hxYUX-12" value="Т3.4. Записать СостояниеТ" style="ellipse;whiteSpace=wrap;html=1;" parent="GJAqLuctV7d4QnNTkr7x-1" vertex="1">
          <mxGeometry x="359" y="2420" width="120" height="80" as="geometry" />
        </mxCell>
        <mxCell id="N3c5fbNlLKNSTU4hxYUX-13" value="СостояниеТ" style="edgeStyle=orthogonalEdgeStyle;rounded=0;orthogonalLoop=1;jettySize=auto;html=1;exitX=1;exitY=0.5;exitDx=0;exitDy=0;entryX=0;entryY=0.5;entryDx=0;entryDy=0;startArrow=none;startFill=0;endArrow=classic;endFill=1;" parent="GJAqLuctV7d4QnNTkr7x-1" source="N3c5fbNlLKNSTU4hxYUX-14" target="N3c5fbNlLKNSTU4hxYUX-5" edge="1">
          <mxGeometry relative="1" as="geometry" />
        </mxCell>
        <mxCell id="N3c5fbNlLKNSTU4hxYUX-14" value="Тостер" style="html=1;" parent="GJAqLuctV7d4QnNTkr7x-1" vertex="1">
          <mxGeometry x="140" y="2045" width="110" height="50" as="geometry" />
        </mxCell>
        <mxCell id="N3c5fbNlLKNSTU4hxYUX-16" style="edgeStyle=orthogonalEdgeStyle;rounded=0;orthogonalLoop=1;jettySize=auto;html=1;exitX=0.5;exitY=0;exitDx=0;exitDy=0;startArrow=classic;startFill=1;endArrow=none;endFill=0;" parent="GJAqLuctV7d4QnNTkr7x-1" source="N3c5fbNlLKNSTU4hxYUX-17" edge="1">
          <mxGeometry relative="1" as="geometry">
            <mxPoint x="419" y="1850" as="targetPoint" />
          </mxGeometry>
        </mxCell>
        <mxCell id="M3xswwOsh6h9f35eQnij-2" style="edgeStyle=orthogonalEdgeStyle;rounded=0;orthogonalLoop=1;jettySize=auto;html=1;exitX=1;exitY=0.5;exitDx=0;exitDy=0;entryX=1;entryY=0.5;entryDx=0;entryDy=0;dashed=1;startArrow=none;startFill=0;endArrow=classic;endFill=1;" parent="GJAqLuctV7d4QnNTkr7x-1" source="N3c5fbNlLKNSTU4hxYUX-17" target="N3c5fbNlLKNSTU4hxYUX-7" edge="1">
          <mxGeometry relative="1" as="geometry" />
        </mxCell>
        <mxCell id="N3c5fbNlLKNSTU4hxYUX-17" value="Т3.0. Принять событие" style="ellipse;whiteSpace=wrap;html=1;" parent="GJAqLuctV7d4QnNTkr7x-1" vertex="1">
          <mxGeometry x="359" y="1900" width="120" height="80" as="geometry" />
        </mxCell>
        <mxCell id="N3c5fbNlLKNSTU4hxYUX-18" value="СостояниеР" style="edgeStyle=orthogonalEdgeStyle;rounded=0;orthogonalLoop=1;jettySize=auto;html=1;exitX=0.5;exitY=1;exitDx=0;exitDy=0;entryX=0.5;entryY=0;entryDx=0;entryDy=0;startArrow=none;startFill=0;endArrow=classic;endFill=1;" parent="GJAqLuctV7d4QnNTkr7x-1" source="N3c5fbNlLKNSTU4hxYUX-19" target="N3c5fbNlLKNSTU4hxYUX-23" edge="1">
          <mxGeometry relative="1" as="geometry" />
        </mxCell>
        <mxCell id="N3c5fbNlLKNSTU4hxYUX-19" value="Т3.5. Считать состояние рычага" style="ellipse;whiteSpace=wrap;html=1;" parent="GJAqLuctV7d4QnNTkr7x-1" vertex="1">
          <mxGeometry x="540" y="2420" width="120" height="80" as="geometry" />
        </mxCell>
        <mxCell id="N3c5fbNlLKNSTU4hxYUX-20" value="СостояниеР" style="edgeStyle=orthogonalEdgeStyle;rounded=0;orthogonalLoop=1;jettySize=auto;html=1;exitX=0.5;exitY=1;exitDx=0;exitDy=0;entryX=0.5;entryY=0;entryDx=0;entryDy=0;startArrow=none;startFill=0;endArrow=classic;endFill=1;" parent="GJAqLuctV7d4QnNTkr7x-1" source="N3c5fbNlLKNSTU4hxYUX-21" target="N3c5fbNlLKNSTU4hxYUX-19" edge="1">
          <mxGeometry relative="1" as="geometry" />
        </mxCell>
        <mxCell id="N3c5fbNlLKNSTU4hxYUX-21" value="Рычаг" style="html=1;" parent="GJAqLuctV7d4QnNTkr7x-1" vertex="1">
          <mxGeometry x="545" y="2305" width="110" height="50" as="geometry" />
        </mxCell>
        <mxCell id="N3c5fbNlLKNSTU4hxYUX-22" value="СостояниеР == 2" style="edgeStyle=orthogonalEdgeStyle;rounded=0;orthogonalLoop=1;jettySize=auto;html=1;exitX=0;exitY=0.5;exitDx=0;exitDy=0;entryX=1;entryY=0.5;entryDx=0;entryDy=0;startArrow=none;startFill=0;endArrow=classic;endFill=1;dashed=1;" parent="GJAqLuctV7d4QnNTkr7x-1" source="N3c5fbNlLKNSTU4hxYUX-23" target="N3c5fbNlLKNSTU4hxYUX-25" edge="1">
          <mxGeometry relative="1" as="geometry" />
        </mxCell>
        <mxCell id="N3c5fbNlLKNSTU4hxYUX-23" value="Т3.6. Проверить состояние рычага" style="ellipse;whiteSpace=wrap;html=1;" parent="GJAqLuctV7d4QnNTkr7x-1" vertex="1">
          <mxGeometry x="540" y="2570" width="120" height="80" as="geometry" />
        </mxCell>
        <mxCell id="N3c5fbNlLKNSTU4hxYUX-24" style="edgeStyle=orthogonalEdgeStyle;rounded=0;orthogonalLoop=1;jettySize=auto;html=1;exitX=0;exitY=0.5;exitDx=0;exitDy=0;startArrow=none;startFill=0;endArrow=classic;endFill=1;" parent="GJAqLuctV7d4QnNTkr7x-1" source="N3c5fbNlLKNSTU4hxYUX-25" edge="1">
          <mxGeometry relative="1" as="geometry">
            <mxPoint x="190" y="2610" as="targetPoint" />
          </mxGeometry>
        </mxCell>
        <mxCell id="N3c5fbNlLKNSTU4hxYUX-25" value="Т3.7. Породить события НЭ1, ТМ3" style="ellipse;whiteSpace=wrap;html=1;" parent="GJAqLuctV7d4QnNTkr7x-1" vertex="1">
          <mxGeometry x="280" y="2570" width="120" height="80" as="geometry" />
        </mxCell>
        <mxCell id="8Pui4u7qCIeKWxzLVBMN-1" style="edgeStyle=orthogonalEdgeStyle;rounded=0;orthogonalLoop=1;jettySize=auto;html=1;exitX=0;exitY=0.5;exitDx=0;exitDy=0;startArrow=none;startFill=0;endArrow=classic;endFill=1;" parent="GJAqLuctV7d4QnNTkr7x-1" source="xcekw1lreLymJ1NFjqmP-0" edge="1">
          <mxGeometry relative="1" as="geometry">
            <mxPoint x="450" y="1714" as="targetPoint" />
          </mxGeometry>
        </mxCell>
        <mxCell id="xcekw1lreLymJ1NFjqmP-0" value="Т2.7. Породить событие ТМ2" style="ellipse;whiteSpace=wrap;html=1;" parent="GJAqLuctV7d4QnNTkr7x-1" vertex="1">
          <mxGeometry x="540" y="1674" width="120" height="80" as="geometry" />
        </mxCell>
        <mxCell id="xcekw1lreLymJ1NFjqmP-2" value="СостояниеРО == 1" style="edgeStyle=orthogonalEdgeStyle;rounded=0;orthogonalLoop=1;jettySize=auto;html=1;exitX=0.5;exitY=0;exitDx=0;exitDy=0;entryX=0.5;entryY=1;entryDx=0;entryDy=0;dashed=1;startArrow=classic;startFill=1;endArrow=none;endFill=0;" parent="GJAqLuctV7d4QnNTkr7x-1" source="xcekw1lreLymJ1NFjqmP-0" target="eo1vOUJSKPXQdKr5qjcm-2" edge="1">
          <mxGeometry relative="1" as="geometry" />
        </mxCell>
        <mxCell id="QlqVGrFy-eWkUQbzwajw-1" value="СостояниеРО" style="edgeStyle=orthogonalEdgeStyle;rounded=0;orthogonalLoop=1;jettySize=auto;html=1;exitX=0.5;exitY=0;exitDx=0;exitDy=0;entryX=0.5;entryY=1;entryDx=0;entryDy=0;startArrow=none;startFill=0;endArrow=classic;endFill=1;" parent="GJAqLuctV7d4QnNTkr7x-1" source="QlqVGrFy-eWkUQbzwajw-0" target="N3c5fbNlLKNSTU4hxYUX-25" edge="1">
          <mxGeometry relative="1" as="geometry" />
        </mxCell>
        <mxCell id="QlqVGrFy-eWkUQbzwajw-0" value="Регулятор &lt;br&gt;обжарки" style="html=1;" parent="GJAqLuctV7d4QnNTkr7x-1" vertex="1">
          <mxGeometry x="285" y="2720" width="110" height="50" as="geometry" />
        </mxCell>
        <mxCell id="K4fGSP6SJeXi4x3zBvTm-1" value="СостояниеТМ" style="edgeStyle=orthogonalEdgeStyle;rounded=0;orthogonalLoop=1;jettySize=auto;html=1;exitX=0.5;exitY=0;exitDx=0;exitDy=0;entryX=1;entryY=1;entryDx=0;entryDy=0;startArrow=none;startFill=0;endArrow=classic;endFill=1;" parent="GJAqLuctV7d4QnNTkr7x-1" source="K4fGSP6SJeXi4x3zBvTm-0" target="N3c5fbNlLKNSTU4hxYUX-25" edge="1">
          <mxGeometry relative="1" as="geometry" />
        </mxCell>
        <mxCell id="K4fGSP6SJeXi4x3zBvTm-0" value="Таймер" style="html=1;" parent="GJAqLuctV7d4QnNTkr7x-1" vertex="1">
          <mxGeometry x="444" y="2720" width="110" height="50" as="geometry" />
        </mxCell>
        <mxCell id="K4fGSP6SJeXi4x3zBvTm-4" value="СостояниеНЭ" style="edgeStyle=orthogonalEdgeStyle;rounded=0;orthogonalLoop=1;jettySize=auto;html=1;exitX=0.5;exitY=0;exitDx=0;exitDy=0;entryX=0;entryY=1;entryDx=0;entryDy=0;startArrow=none;startFill=0;endArrow=classic;endFill=1;" parent="GJAqLuctV7d4QnNTkr7x-1" source="K4fGSP6SJeXi4x3zBvTm-2" target="N3c5fbNlLKNSTU4hxYUX-25" edge="1">
          <mxGeometry relative="1" as="geometry" />
        </mxCell>
        <mxCell id="K4fGSP6SJeXi4x3zBvTm-2" value="Нагревательный&lt;br&gt;элемент" style="html=1;" parent="GJAqLuctV7d4QnNTkr7x-1" vertex="1">
          <mxGeometry x="130" y="2720" width="110" height="50" as="geometry" />
        </mxCell>
        <mxCell id="K4fGSP6SJeXi4x3zBvTm-5" value="&lt;b&gt;Тостер&lt;/b&gt;" style="text;html=1;align=center;verticalAlign=middle;resizable=0;points=[];autosize=1;" parent="GJAqLuctV7d4QnNTkr7x-1" vertex="1">
          <mxGeometry x="389" y="2830" width="60" height="20" as="geometry" />
        </mxCell>
        <mxCell id="K4fGSP6SJeXi4x3zBvTm-6" value="&lt;b&gt;4. Обжарка&lt;/b&gt;" style="text;html=1;align=center;verticalAlign=middle;resizable=0;points=[];autosize=1;" parent="GJAqLuctV7d4QnNTkr7x-1" vertex="1">
          <mxGeometry x="379" y="2850" width="80" height="20" as="geometry" />
        </mxCell>
        <mxCell id="K4fGSP6SJeXi4x3zBvTm-7" value="СостояниеТ" style="edgeStyle=orthogonalEdgeStyle;rounded=0;orthogonalLoop=1;jettySize=auto;html=1;exitX=0.5;exitY=1;exitDx=0;exitDy=0;entryX=0.5;entryY=0;entryDx=0;entryDy=0;startArrow=none;startFill=0;endArrow=classic;endFill=1;" parent="GJAqLuctV7d4QnNTkr7x-1" source="K4fGSP6SJeXi4x3zBvTm-8" target="K4fGSP6SJeXi4x3zBvTm-10" edge="1">
          <mxGeometry relative="1" as="geometry" />
        </mxCell>
        <mxCell id="K4fGSP6SJeXi4x3zBvTm-8" value="Т4.1. Считать состояние тостера" style="ellipse;whiteSpace=wrap;html=1;" parent="GJAqLuctV7d4QnNTkr7x-1" vertex="1">
          <mxGeometry x="359" y="3060" width="120" height="80" as="geometry" />
        </mxCell>
        <mxCell id="K4fGSP6SJeXi4x3zBvTm-9" value="СостояниеТ == 3" style="edgeStyle=orthogonalEdgeStyle;rounded=0;orthogonalLoop=1;jettySize=auto;html=1;exitX=0.5;exitY=1;exitDx=0;exitDy=0;entryX=0.5;entryY=0;entryDx=0;entryDy=0;startArrow=none;startFill=0;endArrow=classic;endFill=1;dashed=1;" parent="GJAqLuctV7d4QnNTkr7x-1" source="K4fGSP6SJeXi4x3zBvTm-10" target="K4fGSP6SJeXi4x3zBvTm-12" edge="1">
          <mxGeometry relative="1" as="geometry" />
        </mxCell>
        <mxCell id="K4fGSP6SJeXi4x3zBvTm-10" value="Т4.2. Проверить состояние тостера" style="ellipse;whiteSpace=wrap;html=1;" parent="GJAqLuctV7d4QnNTkr7x-1" vertex="1">
          <mxGeometry x="359" y="3190" width="120" height="80" as="geometry" />
        </mxCell>
        <mxCell id="K4fGSP6SJeXi4x3zBvTm-11" value="СостояниеТ" style="edgeStyle=orthogonalEdgeStyle;rounded=0;orthogonalLoop=1;jettySize=auto;html=1;exitX=0.5;exitY=1;exitDx=0;exitDy=0;entryX=0.5;entryY=0;entryDx=0;entryDy=0;startArrow=none;startFill=0;endArrow=classic;endFill=1;" parent="GJAqLuctV7d4QnNTkr7x-1" source="K4fGSP6SJeXi4x3zBvTm-12" target="K4fGSP6SJeXi4x3zBvTm-15" edge="1">
          <mxGeometry relative="1" as="geometry" />
        </mxCell>
        <mxCell id="K4fGSP6SJeXi4x3zBvTm-12" value="Т4.3. Изменить СостояниеТ&lt;br&gt;СостояниеТ = 4" style="ellipse;whiteSpace=wrap;html=1;" parent="GJAqLuctV7d4QnNTkr7x-1" vertex="1">
          <mxGeometry x="359" y="3320" width="120" height="80" as="geometry" />
        </mxCell>
        <mxCell id="K4fGSP6SJeXi4x3zBvTm-13" value="СостояниеТ" style="edgeStyle=orthogonalEdgeStyle;rounded=0;orthogonalLoop=1;jettySize=auto;html=1;exitX=0;exitY=0.5;exitDx=0;exitDy=0;entryX=0.5;entryY=1;entryDx=0;entryDy=0;startArrow=none;startFill=0;endArrow=classic;endFill=1;" parent="GJAqLuctV7d4QnNTkr7x-1" source="K4fGSP6SJeXi4x3zBvTm-15" target="K4fGSP6SJeXi4x3zBvTm-17" edge="1">
          <mxGeometry relative="1" as="geometry" />
        </mxCell>
        <mxCell id="K4fGSP6SJeXi4x3zBvTm-14" style="edgeStyle=orthogonalEdgeStyle;rounded=0;orthogonalLoop=1;jettySize=auto;html=1;exitX=1;exitY=0.5;exitDx=0;exitDy=0;entryX=0;entryY=0.5;entryDx=0;entryDy=0;startArrow=none;startFill=0;endArrow=classic;endFill=1;dashed=1;" parent="GJAqLuctV7d4QnNTkr7x-1" source="K4fGSP6SJeXi4x3zBvTm-15" target="K4fGSP6SJeXi4x3zBvTm-22" edge="1">
          <mxGeometry relative="1" as="geometry" />
        </mxCell>
        <mxCell id="K4fGSP6SJeXi4x3zBvTm-15" value="Т4.4. Записать СостояниеТ" style="ellipse;whiteSpace=wrap;html=1;" parent="GJAqLuctV7d4QnNTkr7x-1" vertex="1">
          <mxGeometry x="359" y="3450" width="120" height="80" as="geometry" />
        </mxCell>
        <mxCell id="K4fGSP6SJeXi4x3zBvTm-16" value="СостояниеТ" style="edgeStyle=orthogonalEdgeStyle;rounded=0;orthogonalLoop=1;jettySize=auto;html=1;exitX=1;exitY=0.5;exitDx=0;exitDy=0;entryX=0;entryY=0.5;entryDx=0;entryDy=0;startArrow=none;startFill=0;endArrow=classic;endFill=1;" parent="GJAqLuctV7d4QnNTkr7x-1" source="K4fGSP6SJeXi4x3zBvTm-17" target="K4fGSP6SJeXi4x3zBvTm-8" edge="1">
          <mxGeometry relative="1" as="geometry" />
        </mxCell>
        <mxCell id="K4fGSP6SJeXi4x3zBvTm-17" value="Тостер" style="html=1;" parent="GJAqLuctV7d4QnNTkr7x-1" vertex="1">
          <mxGeometry x="140" y="3075" width="110" height="50" as="geometry" />
        </mxCell>
        <mxCell id="K4fGSP6SJeXi4x3zBvTm-19" style="edgeStyle=orthogonalEdgeStyle;rounded=0;orthogonalLoop=1;jettySize=auto;html=1;exitX=0.5;exitY=0;exitDx=0;exitDy=0;startArrow=classic;startFill=1;endArrow=none;endFill=0;" parent="GJAqLuctV7d4QnNTkr7x-1" source="K4fGSP6SJeXi4x3zBvTm-20" edge="1">
          <mxGeometry relative="1" as="geometry">
            <mxPoint x="419" y="2880" as="targetPoint" />
          </mxGeometry>
        </mxCell>
        <mxCell id="M3xswwOsh6h9f35eQnij-3" style="edgeStyle=orthogonalEdgeStyle;rounded=0;orthogonalLoop=1;jettySize=auto;html=1;exitX=1;exitY=0.5;exitDx=0;exitDy=0;entryX=1;entryY=0.5;entryDx=0;entryDy=0;dashed=1;startArrow=none;startFill=0;endArrow=classic;endFill=1;" parent="GJAqLuctV7d4QnNTkr7x-1" source="K4fGSP6SJeXi4x3zBvTm-20" target="K4fGSP6SJeXi4x3zBvTm-10" edge="1">
          <mxGeometry relative="1" as="geometry" />
        </mxCell>
        <mxCell id="K4fGSP6SJeXi4x3zBvTm-20" value="Т4.0. Принять событие" style="ellipse;whiteSpace=wrap;html=1;" parent="GJAqLuctV7d4QnNTkr7x-1" vertex="1">
          <mxGeometry x="359" y="2930" width="120" height="80" as="geometry" />
        </mxCell>
        <mxCell id="K4fGSP6SJeXi4x3zBvTm-21" value="СостояниеР" style="edgeStyle=orthogonalEdgeStyle;rounded=0;orthogonalLoop=1;jettySize=auto;html=1;exitX=0.5;exitY=1;exitDx=0;exitDy=0;entryX=0.5;entryY=0;entryDx=0;entryDy=0;startArrow=none;startFill=0;endArrow=classic;endFill=1;" parent="GJAqLuctV7d4QnNTkr7x-1" source="K4fGSP6SJeXi4x3zBvTm-22" target="K4fGSP6SJeXi4x3zBvTm-26" edge="1">
          <mxGeometry relative="1" as="geometry" />
        </mxCell>
        <mxCell id="K4fGSP6SJeXi4x3zBvTm-22" value="Т4.5. Считать состояние рычага" style="ellipse;whiteSpace=wrap;html=1;" parent="GJAqLuctV7d4QnNTkr7x-1" vertex="1">
          <mxGeometry x="540" y="3450" width="120" height="80" as="geometry" />
        </mxCell>
        <mxCell id="K4fGSP6SJeXi4x3zBvTm-23" value="СостояниеР" style="edgeStyle=orthogonalEdgeStyle;rounded=0;orthogonalLoop=1;jettySize=auto;html=1;exitX=0.5;exitY=1;exitDx=0;exitDy=0;entryX=0.5;entryY=0;entryDx=0;entryDy=0;startArrow=none;startFill=0;endArrow=classic;endFill=1;" parent="GJAqLuctV7d4QnNTkr7x-1" source="K4fGSP6SJeXi4x3zBvTm-24" target="K4fGSP6SJeXi4x3zBvTm-22" edge="1">
          <mxGeometry relative="1" as="geometry" />
        </mxCell>
        <mxCell id="K4fGSP6SJeXi4x3zBvTm-24" value="Рычаг" style="html=1;" parent="GJAqLuctV7d4QnNTkr7x-1" vertex="1">
          <mxGeometry x="545" y="3335" width="110" height="50" as="geometry" />
        </mxCell>
        <mxCell id="K4fGSP6SJeXi4x3zBvTm-25" value="СостояниеР == 2" style="edgeStyle=orthogonalEdgeStyle;rounded=0;orthogonalLoop=1;jettySize=auto;html=1;exitX=0;exitY=0.5;exitDx=0;exitDy=0;entryX=1;entryY=0.5;entryDx=0;entryDy=0;startArrow=none;startFill=0;endArrow=classic;endFill=1;dashed=1;" parent="GJAqLuctV7d4QnNTkr7x-1" source="K4fGSP6SJeXi4x3zBvTm-26" target="K4fGSP6SJeXi4x3zBvTm-28" edge="1">
          <mxGeometry relative="1" as="geometry" />
        </mxCell>
        <mxCell id="37weivCg6QUozB8-OPpF-1" value="СостояниеР == 1" style="edgeStyle=orthogonalEdgeStyle;rounded=0;orthogonalLoop=1;jettySize=auto;html=1;exitX=1;exitY=0.5;exitDx=0;exitDy=0;entryX=0.5;entryY=0;entryDx=0;entryDy=0;startArrow=none;startFill=0;endArrow=classic;endFill=1;" parent="GJAqLuctV7d4QnNTkr7x-1" source="K4fGSP6SJeXi4x3zBvTm-26" target="37weivCg6QUozB8-OPpF-0" edge="1">
          <mxGeometry relative="1" as="geometry" />
        </mxCell>
        <mxCell id="K4fGSP6SJeXi4x3zBvTm-26" value="Т4.6. Проверить состояние рычага" style="ellipse;whiteSpace=wrap;html=1;" parent="GJAqLuctV7d4QnNTkr7x-1" vertex="1">
          <mxGeometry x="540" y="3600" width="120" height="80" as="geometry" />
        </mxCell>
        <mxCell id="Ve95F9Y8gx2t-508QtYl-3" value="СостояниеТМ" style="edgeStyle=orthogonalEdgeStyle;rounded=0;orthogonalLoop=1;jettySize=auto;html=1;exitX=0.5;exitY=1;exitDx=0;exitDy=0;entryX=0.5;entryY=0;entryDx=0;entryDy=0;startArrow=none;startFill=0;endArrow=classic;endFill=1;" parent="GJAqLuctV7d4QnNTkr7x-1" source="K4fGSP6SJeXi4x3zBvTm-28" target="Ve95F9Y8gx2t-508QtYl-2" edge="1">
          <mxGeometry relative="1" as="geometry" />
        </mxCell>
        <mxCell id="K4fGSP6SJeXi4x3zBvTm-28" value="Т4.8. Считать состояние таймера" style="ellipse;whiteSpace=wrap;html=1;" parent="GJAqLuctV7d4QnNTkr7x-1" vertex="1">
          <mxGeometry x="280" y="3600" width="120" height="80" as="geometry" />
        </mxCell>
        <mxCell id="8Pui4u7qCIeKWxzLVBMN-2" style="edgeStyle=orthogonalEdgeStyle;rounded=0;orthogonalLoop=1;jettySize=auto;html=1;exitX=0.5;exitY=1;exitDx=0;exitDy=0;startArrow=none;startFill=0;endArrow=classic;endFill=1;" parent="GJAqLuctV7d4QnNTkr7x-1" source="37weivCg6QUozB8-OPpF-0" edge="1">
          <mxGeometry relative="1" as="geometry">
            <mxPoint x="730" y="3850" as="targetPoint" />
          </mxGeometry>
        </mxCell>
        <mxCell id="37weivCg6QUozB8-OPpF-0" value="Т4.7. Породить события Т6, ТМ5, НЭ2" style="ellipse;whiteSpace=wrap;html=1;" parent="GJAqLuctV7d4QnNTkr7x-1" vertex="1">
          <mxGeometry x="670" y="3680" width="120" height="80" as="geometry" />
        </mxCell>
        <mxCell id="Ve95F9Y8gx2t-508QtYl-1" value="Состояние ТМ" style="edgeStyle=orthogonalEdgeStyle;rounded=0;orthogonalLoop=1;jettySize=auto;html=1;exitX=1;exitY=0.5;exitDx=0;exitDy=0;entryX=0;entryY=0.5;entryDx=0;entryDy=0;startArrow=none;startFill=0;endArrow=classic;endFill=1;" parent="GJAqLuctV7d4QnNTkr7x-1" source="Ve95F9Y8gx2t-508QtYl-0" target="K4fGSP6SJeXi4x3zBvTm-28" edge="1">
          <mxGeometry relative="1" as="geometry" />
        </mxCell>
        <mxCell id="Ve95F9Y8gx2t-508QtYl-0" value="Таймер" style="html=1;" parent="GJAqLuctV7d4QnNTkr7x-1" vertex="1">
          <mxGeometry x="70" y="3615" width="110" height="50" as="geometry" />
        </mxCell>
        <mxCell id="KvLdWLNq0tYfyzJIFWEu-0" value="СостояниеТМ == 4&amp;nbsp;" style="edgeStyle=orthogonalEdgeStyle;rounded=0;orthogonalLoop=1;jettySize=auto;html=1;exitX=0;exitY=1;exitDx=0;exitDy=0;entryX=0.5;entryY=0;entryDx=0;entryDy=0;startArrow=none;startFill=0;endArrow=classic;endFill=1;dashed=1;" parent="GJAqLuctV7d4QnNTkr7x-1" source="Ve95F9Y8gx2t-508QtYl-2" target="Dyu-WplIO8P3oOP63Sud-0" edge="1">
          <mxGeometry relative="1" as="geometry" />
        </mxCell>
        <mxCell id="9PEy4DUKFXQVcAVGU1K5-1" value="СостояниеТМ == 5" style="edgeStyle=orthogonalEdgeStyle;rounded=0;orthogonalLoop=1;jettySize=auto;html=1;exitX=0.5;exitY=1;exitDx=0;exitDy=0;entryX=0.5;entryY=0;entryDx=0;entryDy=0;dashed=1;startArrow=none;startFill=0;endArrow=classic;endFill=1;" parent="GJAqLuctV7d4QnNTkr7x-1" source="Ve95F9Y8gx2t-508QtYl-2" target="9PEy4DUKFXQVcAVGU1K5-0" edge="1">
          <mxGeometry relative="1" as="geometry" />
        </mxCell>
        <mxCell id="9PEy4DUKFXQVcAVGU1K5-3" value="СостояниеТМ == 3" style="edgeStyle=orthogonalEdgeStyle;rounded=0;orthogonalLoop=1;jettySize=auto;html=1;exitX=1;exitY=1;exitDx=0;exitDy=0;dashed=1;startArrow=none;startFill=0;endArrow=classic;endFill=1;" parent="GJAqLuctV7d4QnNTkr7x-1" source="Ve95F9Y8gx2t-508QtYl-2" target="9PEy4DUKFXQVcAVGU1K5-2" edge="1">
          <mxGeometry relative="1" as="geometry" />
        </mxCell>
        <mxCell id="Ve95F9Y8gx2t-508QtYl-2" value="Т4.9. Проверить состояние таймера" style="ellipse;whiteSpace=wrap;html=1;" parent="GJAqLuctV7d4QnNTkr7x-1" vertex="1">
          <mxGeometry x="280" y="3740" width="120" height="80" as="geometry" />
        </mxCell>
        <mxCell id="-6Rxq14J95f2a1_B4mVW-0" style="edgeStyle=orthogonalEdgeStyle;rounded=0;orthogonalLoop=1;jettySize=auto;html=1;exitX=0.5;exitY=1;exitDx=0;exitDy=0;startArrow=none;startFill=0;endArrow=classic;endFill=1;" parent="GJAqLuctV7d4QnNTkr7x-1" source="Dyu-WplIO8P3oOP63Sud-0" edge="1">
          <mxGeometry relative="1" as="geometry">
            <mxPoint x="180" y="4050" as="targetPoint" />
          </mxGeometry>
        </mxCell>
        <mxCell id="Dyu-WplIO8P3oOP63Sud-0" value="Т4.10. Породить события Т5, НЭ2" style="ellipse;whiteSpace=wrap;html=1;" parent="GJAqLuctV7d4QnNTkr7x-1" vertex="1">
          <mxGeometry x="120" y="3880" width="120" height="80" as="geometry" />
        </mxCell>
        <mxCell id="-6Rxq14J95f2a1_B4mVW-1" style="edgeStyle=orthogonalEdgeStyle;rounded=0;orthogonalLoop=1;jettySize=auto;html=1;exitX=0.5;exitY=1;exitDx=0;exitDy=0;startArrow=none;startFill=0;endArrow=classic;endFill=1;" parent="GJAqLuctV7d4QnNTkr7x-1" source="9PEy4DUKFXQVcAVGU1K5-0" edge="1">
          <mxGeometry relative="1" as="geometry">
            <mxPoint x="340" y="4050" as="targetPoint" />
          </mxGeometry>
        </mxCell>
        <mxCell id="9PEy4DUKFXQVcAVGU1K5-0" value="Т4.11. Породить события Т6, НЭ2" style="ellipse;whiteSpace=wrap;html=1;" parent="GJAqLuctV7d4QnNTkr7x-1" vertex="1">
          <mxGeometry x="280" y="3880" width="120" height="80" as="geometry" />
        </mxCell>
        <mxCell id="-6Rxq14J95f2a1_B4mVW-2" style="edgeStyle=orthogonalEdgeStyle;rounded=0;orthogonalLoop=1;jettySize=auto;html=1;exitX=0.5;exitY=1;exitDx=0;exitDy=0;startArrow=none;startFill=0;endArrow=classic;endFill=1;" parent="GJAqLuctV7d4QnNTkr7x-1" source="9PEy4DUKFXQVcAVGU1K5-2" edge="1">
          <mxGeometry relative="1" as="geometry">
            <mxPoint x="499" y="4050" as="targetPoint" />
          </mxGeometry>
        </mxCell>
        <mxCell id="9PEy4DUKFXQVcAVGU1K5-2" value="Т4.10. Породить событие НЭ1" style="ellipse;whiteSpace=wrap;html=1;" parent="GJAqLuctV7d4QnNTkr7x-1" vertex="1">
          <mxGeometry x="439" y="3880" width="120" height="80" as="geometry" />
        </mxCell>
      </root>
    </mxGraphModel>
  </diagram>
</mxfile>
